<svg width="186" height="75" viewBox="0 0 186 75" fill="none" xmlns="http://www.w3.org/2000/svg">
<path d="M31.2861 0C31.5191 0 32.2507 0.0220091 33.1895 0.254883C33.8266 0.0973988 34.4904 0.015625 35.1709 0.015625H35.3066C36.1848 0.015625 36.9573 0.0537003 37.6992 0.0839844C38.3882 0.11427 39.0398 0.144528 39.7666 0.144531C40.4935 0.144531 41.0315 0.159902 41.5918 0.182617C41.9929 0.197754 42.3941 0.212885 42.8936 0.212891H43.1133C44.249 0.250747 45.1274 0.311258 45.9072 0.364258C46.8158 0.424832 47.5354 0.477539 48.5576 0.477539C49.2087 0.477539 49.2772 0.478286 49.6709 0.44043C50.14 0.395037 50.5184 0.371585 50.9043 0.356445C51.1237 0.341311 51.3361 0.334206 51.6084 0.311523C52.6079 0.228234 54.1758 0.144531 55.1602 0.144531C55.6977 0.144535 56.1292 0.167716 56.5684 0.19043C56.7804 0.198002 57.0004 0.212891 57.2881 0.212891C59.7737 0.213003 62.0453 1.23282 63.7051 3.05664C65.179 1.65574 67.1936 0.833984 69.4258 0.833984H69.7812C70.6369 0.720409 71.9546 0.636719 74.0898 0.636719C75.2482 0.636722 77.3679 0.666734 78.6777 0.780273C78.9958 0.795417 79.2687 0.818841 79.458 0.833984C79.723 0.833984 80.0107 0.81812 80.3135 0.810547C80.9267 0.787835 81.5704 0.773442 82.2139 0.773438C84.9047 0.773438 87.9808 0.983769 90.6309 2.45801C91.8756 1.64881 93.3061 1.20834 94.7451 1.15137C100.045 0.863646 106.709 0.780059 112.069 0.711914C114.401 0.681627 116.537 0.652116 118.286 0.614258H118.793C119.747 0.614258 120.66 0.749064 121.513 1.00781C121.966 0.913452 122.427 0.851385 122.896 0.826172C123.729 0.742883 124.426 0.743164 125.055 0.743164C128.265 0.743164 131.408 0.728034 134.558 0.712891C137.753 0.697748 140.955 0.682618 144.241 0.682617H144.771C145.324 0.682625 145.877 0.743164 146.414 0.864258C146.523 0.888339 146.631 0.9139 146.737 0.941406C147.115 0.897042 147.508 0.871101 147.914 0.871094H149.406L149.808 0.939453H156.773C158.962 0.939501 160.915 1.56789 162.46 2.71875C163.52 1.87086 164.807 1.28794 166.269 1.00781C167.646 0.735306 168.722 0.735352 169.365 0.735352H177.36C183.032 0.735352 186 4.74804 186 8.70801C186 9.07898 186 10.0026 185.689 11.123C185.614 11.4637 185.508 11.8429 185.372 12.2441C185.296 12.5319 185.205 12.8046 185.106 13.0469C184.629 14.6065 184.243 15.4999 183.842 16.416C183.66 16.8248 183.539 17.0976 183.365 17.582C183.176 18.1043 183.025 18.5058 182.881 18.8994C182.767 19.2022 182.646 19.5129 182.502 19.9141L182.456 20.0508L182.274 20.5049C181.956 21.3074 181.677 22.0041 181.192 22.9883C180.859 23.7682 180.624 24.2532 180.412 24.6924C180.177 25.1693 179.958 25.624 179.488 26.752L179.436 26.8799L179.375 27.0088C179.042 27.728 178.875 28.2051 178.617 28.9395C178.398 29.5603 178.171 30.2045 177.86 30.9844L177.83 31.0527C177.8 31.2876 177.793 31.8473 177.785 32.2559C177.785 32.7479 177.769 33.3085 177.731 33.9141C177.724 34.3608 177.701 34.755 177.679 35.0957V35.2314C177.679 35.3299 177.679 35.4287 177.687 35.5195C177.709 35.9434 177.731 36.375 177.731 36.8896C177.731 36.9426 177.74 37.0188 177.747 37.0869C177.77 37.4276 177.792 37.7834 177.8 38.1846C177.853 39.1537 177.861 39.472 177.898 40.585L177.929 41.5469V42.3643C178.065 43.7953 178.064 45.0752 178.064 46.2109C178.064 47.1195 178.05 48.0053 178.027 48.9062C178.012 49.724 177.997 50.5497 177.997 51.4053C177.997 52.6015 177.997 53.8357 178.058 55.2061V56.001C178.058 58.7571 176.831 61.2559 174.695 62.8535L174.529 62.9824L174.354 63.0957C172.25 64.504 170.273 64.5039 169.622 64.5039L169.63 64.5273C166.988 64.5273 164.777 64.5044 162.732 64.4893C161.014 64.4741 159.416 64.459 157.772 64.459H157.303L156.834 64.3984C154.74 64.1361 152.845 63.1302 151.447 61.6455C151.44 61.6542 151.434 61.6642 151.427 61.6729C150.533 62.763 149.382 63.5804 148.058 64.0801L125.388 73.9609C124.388 74.3925 123.344 74.6123 122.269 74.6123L122.283 74.6045C119.285 74.6044 116.514 72.8559 115.234 70.1455C114.182 67.9218 114.261 65.3341 115.381 63.1963C114.159 63.9176 112.728 64.3301 111.184 64.3301C110.631 64.3301 109.904 64.3601 109.14 64.3828C108.141 64.4206 107.006 64.4579 105.992 64.458C105.562 64.458 105.079 64.4586 104.543 64.4209C104.308 64.4436 104.036 64.459 103.726 64.459C102.125 64.459 100.906 64.0018 100.179 63.6699C99.0064 64.2136 97.5572 64.5498 95.7754 64.5498C95.3514 64.5498 94.8662 64.5344 94.374 64.5117C94.0788 64.4966 93.7832 64.4814 93.5107 64.4814H93.3066C92.0043 64.542 90.0884 64.5498 88.3848 64.5498H83.3193C82.5845 64.5498 79.7456 64.3904 77.6182 62.0283C76.4294 63.2398 74.7101 64.1862 72.2266 64.3906C71.7421 64.436 71.1895 64.4509 70.3721 64.4736C69.4105 64.5039 68.1228 64.542 67.0098 64.6328C66.1848 64.7539 65.4809 64.769 65.0342 64.7842H64.8525L64.542 64.8223H63.3682C62.7779 64.8904 62.3161 64.8906 62.0586 64.8906L62.0889 64.8604C60.5384 64.8604 58.9805 64.5089 57.6055 63.8174C57.2583 63.8442 56.8999 63.8604 56.5303 63.8604H56.0615C53.5704 63.8604 51.1772 63.906 48.6406 63.959C46.0511 64.012 43.3782 64.0654 40.5312 64.0654C39.6303 64.0654 38.782 64.0652 38.04 64.1182L37.79 64.1328H35.8066L35.8369 64.126C35.0495 64.126 33.9819 64.0731 32.7705 63.6719L32.2627 63.5049L31.7861 63.2705C31.0326 62.8928 30.3505 62.4196 29.752 61.8701C28.6936 62.6701 27.3761 63.1454 25.9473 63.1455C24.7344 63.1455 23.6018 62.8025 22.6396 62.21C21.6703 62.9237 20.5172 63.4503 19.2168 63.7393L18.7178 63.8525L18.21 63.8984C15.5447 64.118 11.3802 64.2539 9.05566 64.2539H9.04785C6.01179 64.2538 3.99022 62.8681 2.82422 61.7021C0.658858 59.5367 0.204115 57.1291 0.204102 55.4785C0.204102 54.6759 0.173842 53.8732 0.143555 53.0176C0.105697 52.0863 0.0761719 51.1166 0.0761719 50.0869C0.0761719 49.4207 0.0754246 48.6784 0.143555 47.8154C0.143559 46.8161 0.158687 45.7259 0.173828 44.6357C0.188972 43.4697 0.204102 42.2959 0.204102 41.2207C0.2041 40.2668 0.188969 39.3281 0.173828 38.3818C0.158685 37.3597 0.136719 36.3293 0.136719 35.292C0.136725 34.3911 0.174061 33.5432 0.211914 32.7256C0.242201 32.0896 0.272461 31.4529 0.272461 30.832C0.272427 30.6278 0.250233 30.4159 0.227539 30.2041C0.18968 29.7498 0.14429 29.2041 0.136719 28.5908C0.0610114 27.1448 0 25.7134 0 24.1689C1.3831e-05 21.2464 0.143507 18.2859 0.264648 15.6738L0.34082 14.0986C0.363534 13.5763 0.39379 13.069 0.431641 12.5693C0.469494 11.9259 0.515127 11.3051 0.530273 10.7373C0.462128 10.3663 0.401367 9.87378 0.401367 9.31348C0.401404 7.70824 0.908831 4.67987 4.30078 2.41602L4.55859 2.24121L4.82324 2.08984C7.0341 0.863336 9.0335 0.810306 10.0859 0.802734C10.4946 0.787601 10.9865 0.772946 11.5312 0.757812C13.0077 0.712382 15.4541 0.636278 16.499 0.530273L16.6582 0.477539L17.6572 0.416992C18.3538 0.379134 19.0507 0.318627 19.7549 0.265625C21.4054 0.136914 23.1089 5.29287e-06 24.9639 0C25.668 0 26.0848 0.0231833 26.5088 0.0458984C26.7358 0.0610312 26.9629 0.0683568 27.3564 0.0683594C27.7274 0.0683594 28.1744 0.0837314 28.6514 0.106445C28.939 0.121585 29.2419 0.136712 29.5371 0.136719L30.2031 0H31.2861ZM105.997 64.459H105.989L105.992 64.458C105.994 64.458 105.995 64.459 105.997 64.459Z" fill="#860909"/>
<path d="M31.0368 21.5721C29.7042 21.5721 29.4392 21.769 28.1747 21.9053C27.4402 21.9734 24.775 22.1703 24.0405 22.1703C21.9734 22.1703 18.8463 22.5035 17.7106 22.5035C17.3093 22.5035 17.1805 23.6392 17.1805 25.1687C17.1805 26.9708 17.3774 29.3029 17.3774 30.6961V30.7642C19.1795 30.6961 20.3758 30.6961 21.5721 30.6961H24.7674C26.2969 30.6961 26.2363 30.5598 27.6977 30.5598H28.6971C29.6966 30.5598 30.6279 31.1579 30.6279 32.2937C30.6279 33.225 30.7642 32.4906 30.7642 36.4884C30.7642 37.3516 30.6961 37.4198 30.6961 38.4192V38.4874C30.6961 39.0855 30.8324 39.7518 30.8324 40.4182C30.8324 40.7513 30.7642 41.0845 30.6961 41.3495C30.5598 41.7508 30.0979 41.7508 29.6966 41.8795C28.9621 42.0764 28.2277 42.1445 27.5008 42.1445C26.1682 42.1445 25.2369 42.2127 24.3661 42.2127C23.6998 42.2127 23.0335 42.1445 22.2309 42.0764L18.498 42.0082C18.3617 44.1434 18.3617 43.6059 18.3617 45.6729C18.3617 47.2024 18.2254 49.1408 18.2254 50.7384C18.2254 51.6016 18.2254 53.0705 18.2936 53.9337C18.3617 54.2668 18.3617 54.6 18.3617 55.0013V55.4707C18.3617 56.0008 18.1649 56.2052 17.5591 56.3339C15.1589 56.5308 11.2292 56.6671 9.03337 56.6671C8.70021 56.6671 8.4352 56.5989 8.17019 56.3339C7.90518 56.0689 7.76889 55.8645 7.76889 55.4707C7.76889 53.6081 7.6326 51.8742 7.6326 50.0721C7.6326 49.4058 7.6326 48.8076 7.70074 48.1413C7.70074 46.0061 7.76889 43.409 7.76889 41.2132C7.76889 39.2143 7.70074 37.2835 7.70074 35.2845C7.70074 33.8156 7.83704 32.2861 7.83704 30.8172C7.83704 30.0146 7.70074 29.1514 7.70074 28.3488C7.6326 27.0162 7.56445 25.6154 7.56445 24.1541C7.56445 20.8225 7.76132 17.3547 7.89761 14.4244C7.96576 13.0237 8.09447 11.6229 8.09447 10.2297C8.09447 9.76026 7.95818 9.49524 7.95818 9.29838C7.95818 9.10151 8.09447 8.96522 8.4882 8.70021C9.08637 8.36706 9.62396 8.36706 10.2221 8.36706C11.9561 8.29891 15.6889 8.23077 17.4153 8.0339C17.6803 8.0339 17.8847 8.0339 18.0816 7.96576C20.3455 7.82947 22.6095 7.56445 24.9416 7.56445C26.0092 7.56445 26.206 7.6326 27.3418 7.6326C27.94 7.6326 28.8107 7.70074 29.6057 7.70074C30.1358 7.70074 30.6052 7.6326 30.9384 7.56445H31.2715C31.8697 7.56445 32.006 8.70021 32.006 10.0328C32.006 13.3644 31.8697 17.8317 31.8697 20.6257C31.8697 21.0951 31.4684 21.4889 31.0065 21.557L31.0368 21.5721Z" fill="#FEFDFB"/>
<path d="M56.8872 37.4955C55.8878 37.5636 55.0246 37.6317 54.0251 37.6317H53.2225C51.6249 37.6317 50.3604 37.5636 48.7552 37.5636C48.7552 37.5636 48.2858 40.1607 48.2858 42.2278C48.2858 42.4247 48.7552 42.4246 48.9521 42.4928C49.8834 42.6897 50.8147 42.7578 51.8142 42.7578C53.5481 42.7578 55.6152 42.5609 57.2128 42.5609H57.3491C57.9473 42.5609 58.4849 42.5609 58.4849 43.5604C58.4849 47.0283 58.553 50.5567 58.553 53.9564V55.4253C58.553 56.2279 57.4173 56.2885 56.5541 56.2885H56.0846C50.8904 56.2885 46.0218 56.4853 40.5626 56.4853C39.5631 56.4853 38.5637 56.4853 37.5642 56.5535H35.8303C35.6334 56.5535 35.3608 56.5535 35.164 56.4853C34.7627 56.2885 34.4976 55.9553 34.4976 55.4177V53.8201C34.5658 52.4193 34.5658 50.958 34.5658 49.5572C34.5658 39.8957 34.3008 29.4997 34.3008 19.0432V14.8484C34.3008 13.3795 34.3689 11.85 34.3689 10.3205V9.45737C34.3689 8.92735 34.4371 8.4579 34.6339 7.92788C34.7702 7.73102 34.8989 7.59473 35.164 7.59473H35.3003C36.7692 7.59473 38.0336 7.73102 39.7676 7.73102C40.9639 7.73102 41.6984 7.79917 42.9023 7.79917C45.1662 7.86731 46.302 8.06418 48.5659 8.06418C49.3004 8.06418 49.6335 8.06417 50.368 7.99603C51.1024 7.92788 51.5643 7.92788 52.2988 7.85974C53.1014 7.79159 54.434 7.72344 55.1609 7.72344C55.9635 7.72344 56.4254 7.79159 57.2961 7.79159C57.6974 7.79159 58.0306 7.98846 58.2956 8.38976C58.3637 8.52605 58.3637 8.58663 58.3637 8.72292V9.45737C58.4319 9.98739 58.3637 10.26 58.4319 10.7219C58.5 11.1913 58.5682 15.5223 58.5682 15.9842C58.5682 16.7868 58.3713 17.12 57.5687 17.2487C55.9711 17.4455 53.5027 17.4455 51.64 17.4455H49.3761C48.9748 17.4455 48.6416 17.4455 48.5129 17.8468C48.2479 18.6494 48.1798 19.7776 48.1798 20.7771V24.4418C48.1798 24.775 48.1798 25.04 48.2479 25.2444C48.316 25.4488 48.5129 25.5094 48.7174 25.5094C49.9137 25.5094 51.1857 25.5776 52.5184 25.5776C53.7147 25.5776 54.9186 25.5094 56.0468 25.3807C56.2436 25.3807 56.3799 25.3126 56.5768 25.3126H56.7131C56.91 25.3126 57.1825 25.3807 57.3113 25.5094C57.7126 25.7744 57.7126 26.2439 57.7126 26.6452V28.1747C57.7126 30.7036 57.5763 29.2423 57.5763 34.1033V36.9049C57.5763 37.1017 57.5763 37.3062 57.44 37.4349C57.3037 37.4349 57.0387 37.503 56.91 37.503L56.8872 37.4955Z" fill="#FEFDFB"/>
<path d="M62.2854 44.0904C62.5504 43.4241 63.4212 37.4273 63.5499 36.6928C63.6862 36.0947 63.8149 35.5571 63.9512 34.9589C64.2843 33.8913 64.4206 30.2266 64.7538 29.2271C64.8901 28.8258 64.9507 28.4927 64.9507 28.1595C65.2157 26.3574 65.617 24.2298 66.0183 21.8977C66.1546 21.0951 66.2151 20.2319 66.4196 19.3687C66.6846 17.703 67.0859 15.9009 67.419 14.1064C67.8885 12.2437 68.3504 10.7067 68.8198 8.70775C68.888 8.44274 69.0848 8.3746 69.418 8.3746H70.4174C70.8869 8.2383 72.4845 8.17773 74.0822 8.17773C75.8842 8.17773 77.6787 8.24588 78.2163 8.31403C78.6176 8.31403 78.9508 8.38217 79.2158 8.38217C80.079 8.38217 81.1466 8.31403 82.2142 8.31403C84.0768 8.31403 86.0152 8.45031 87.0752 9.11663C87.2115 9.31349 87.2115 9.44978 87.2115 9.64664C87.681 11.5774 87.5447 12.115 88.1429 13.9777C88.3397 14.7803 88.6729 16.8398 88.8773 17.5742C89.2105 19.3082 89.5436 20.9739 89.9449 22.7079C90.1418 23.6392 90.2781 24.5705 90.5431 25.5094C92.1407 32.3088 93.3446 39.1688 95.071 45.6956C95.2073 46.4982 95.2679 46.892 95.4723 47.6946V47.8308C95.7373 49.0272 95.9417 49.8298 96.2067 51.0942C96.2067 51.1624 96.7368 54.0927 96.7368 54.1608C96.8049 54.2289 97.1381 56.3566 97.1381 56.4248V56.561C97.1381 56.8942 96.5399 56.9623 95.8054 56.9623C95.1391 56.9623 94.276 56.8942 93.5415 56.8942H93.1402C91.9439 56.9623 89.6118 56.9623 88.4079 56.9623H83.3424C82.9411 56.9623 82.6761 54.4334 82.3429 52.6995C82.0098 51.17 81.7448 49.2316 81.6766 48.7016C81.5403 47.7021 81.4116 46.7027 81.2071 45.7713C81.139 45.5745 81.0709 45.37 81.0709 45.1732C80.8059 43.3105 80.6014 42.1748 80.2077 40.3121C80.1395 39.8427 79.9427 39.5777 79.4732 39.5095C79.2764 39.4414 76.278 39.3127 76.0054 39.3127C75.6722 39.2445 75.2709 39.1764 74.9378 39.1764C74.5365 39.1764 74.1352 39.2445 73.6733 39.3127C73.2038 39.3808 73.2038 42.7805 73.1433 44.1131C73.0751 45.1126 73.0751 46.2484 73.007 47.4447C73.007 48.641 72.9388 49.8449 72.9388 50.9731C72.8707 51.8363 72.8707 52.6389 72.8025 53.3052C72.8025 54.1078 72.7344 54.706 72.7344 55.236C72.5981 56.5005 72.4694 56.7655 71.5986 56.8336C70.8642 56.9018 68.2671 56.9018 66.0713 57.0986C65.405 57.2349 64.7387 57.1668 64.1405 57.2349H62.8079C62.5428 57.3031 62.2778 57.3031 62.0734 57.3031C60.9376 57.3031 60.6045 57.0381 60.6045 56.3036C60.6045 55.9704 60.6726 55.5691 60.7408 55.0391C61.2708 51.5107 62.0734 44.7794 62.2703 44.1131L62.2854 44.0904ZM79.3445 32.6344C78.6782 27.6371 78.345 24.8355 77.6787 19.8382C77.6106 19.6413 77.6787 19.4369 77.4819 19.3687C77.285 19.2324 76.8837 19.0356 76.5505 19.0356H76.4824C76.2855 19.0356 76.0811 19.1037 76.0811 19.1719C75.7479 20.9058 74.279 31.0292 74.2185 32.7631V32.8313C74.2185 33.0281 74.2184 33.1644 74.2866 33.3007C74.3547 33.437 74.4835 33.5657 74.6879 33.5657H74.756C75.2255 33.4976 76.225 33.4976 77.0881 33.4976H78.4889C79.2234 33.4976 79.5565 33.3007 79.3521 32.6344H79.3445Z" fill="#FEFDFB"/>
<path d="M101.333 24.8355C100.333 24.8355 99.0686 24.9037 97.736 24.9037C96.8728 24.9037 95.9339 24.8355 95.207 24.7674C95.0708 24.7674 94.942 24.6992 94.7376 24.6992C94.3363 24.5024 94.0713 24.2298 94.0713 23.7679V19.3687C94.2076 16.5672 94.2682 13.3038 94.3363 10.6385V10.3054C94.3363 9.63907 94.4044 8.70775 95.0708 8.70775C102.468 8.30645 112.592 8.30645 118.46 8.17773H118.793C119.194 8.17773 119.596 8.24588 119.861 8.70775C119.997 8.90462 119.997 9.1772 119.997 9.51035C119.929 11.3124 119.8 12.5088 119.8 13.9095C119.8 14.2427 119.868 14.5758 119.868 14.909V17.9755C119.868 19.24 119.936 19.9063 120.004 21.1708V22.6397C120.004 23.1092 120.004 23.5029 120.073 23.9723V24.4418C120.073 24.7068 119.739 24.7749 119.474 24.8431C118.944 24.9112 118.672 24.9794 118.339 24.9794C117.869 24.9794 117.407 24.8431 116.272 24.8431H114.742C114.076 24.8431 113.273 24.9794 112.478 25.04C112.281 25.4413 112.145 26.5089 112.145 27.0389C112.145 28.1065 112.077 28.9697 112.077 29.7041C112.077 37.1699 112.077 46.2256 111.941 55.024C111.941 55.289 111.941 55.6221 111.872 55.9553C111.872 56.4247 111.607 56.7579 111.206 56.7579C109.873 56.7579 107.678 56.8942 106.012 56.8942C105.482 56.8942 105.012 56.8942 104.679 56.826H104.482C104.217 56.826 104.013 56.8942 103.748 56.8942C103.551 56.8942 103.415 56.826 103.15 56.6973C102.953 56.561 102.817 55.766 102.817 55.501V40.8421C102.817 36.1098 102.817 31.8469 102.62 27.1828C102.62 26.8496 102.483 25.8501 102.483 25.517C102.483 25.3201 102.483 25.1157 102.415 24.9188C102.082 24.8507 101.681 24.8507 101.348 24.8507L101.333 24.8355Z" fill="#FEFDFB"/>
<path d="M147.172 8.77535C147.172 8.51034 147.369 8.44219 147.906 8.44219H148.769C149.171 8.51034 149.572 8.51034 149.905 8.51034H156.765C157.432 8.51034 158.03 8.64663 158.295 9.31294C159.764 13.7121 161.694 19.6408 162.429 22.1697C162.83 23.5705 162.898 24.5018 163.027 24.5018C163.073 24.5018 163.118 24.4564 163.163 24.3655V24.2974C163.163 24.2974 163.232 24.2292 163.36 23.7674C164.693 19.4363 164.095 21.1021 165.359 16.7029C165.556 15.8398 166.222 13.3032 166.359 12.5082C166.555 11.4406 166.692 10.373 166.828 9.31294C167.161 8.71478 166.964 8.57849 167.691 8.44977C168.358 8.31348 168.888 8.31348 169.357 8.31348H177.353C177.951 8.31348 178.42 8.38162 178.42 8.71478C178.42 8.85107 178.42 9.04793 178.352 9.18422C178.284 9.51738 178.216 9.78239 178.087 10.0474C178.087 10.1837 178.019 10.3806 177.951 10.5168C177.216 12.9852 176.883 13.1821 176.217 15.0447C175.884 15.9761 175.687 16.4455 175.354 17.3768C174.953 18.3763 174.756 18.9063 174.286 19.8452C173.62 21.4428 173.484 21.4428 172.484 23.8431C171.682 25.577 171.485 26.5083 170.818 28.1741C170.016 30.0368 170.288 31.8388 170.152 33.6409C170.152 34.3072 170.084 34.7766 170.084 35.1704C170.084 35.7685 170.152 36.238 170.152 36.9043C170.152 37.4343 170.22 37.8356 170.22 38.4338C170.288 39.6983 170.288 39.8346 170.356 41.6972V42.7648C170.493 43.9611 170.493 45.0969 170.493 46.2327C170.493 47.9666 170.425 49.6324 170.425 51.4269C170.425 52.6913 170.425 54.024 170.493 55.561V56.0305C170.493 56.3636 170.425 56.6286 170.16 56.8331C169.963 56.9694 169.826 56.9694 169.63 56.9694C164.769 56.9694 161.369 56.9012 157.772 56.9012C157.242 56.8331 156.773 56.4318 156.637 55.9017C156.568 55.3717 156.568 54.9023 156.568 54.4328C156.568 52.237 156.765 50.1018 156.765 47.7016C156.833 45.7026 157.03 43.9687 157.03 41.6366V41.1066C157.03 40.039 157.098 37.775 157.098 35.708C157.098 34.3753 157.098 33.0427 156.902 32.4446C156.5 30.9756 156.235 29.7112 155.501 28.583C154.304 26.7203 153.502 24.5851 152.237 21.8517C151.435 20.1178 150.973 19.1183 150.238 17.3844C149.769 16.3168 149.64 15.7186 149.239 14.651C148.906 13.7197 148.709 13.1821 148.376 12.1826C148.111 11.5163 148.043 11.2513 147.709 10.3806C147.444 9.57795 147.179 9.04793 147.179 8.78292L147.172 8.77535Z" fill="#FEFDFB"/>
<path d="M146.105 16.574C146.105 15.6427 146.105 15.1051 146.037 14.1738C145.9 12.1748 145.84 10.8422 145.635 9.10829C145.567 8.57827 145.37 8.37384 144.772 8.24512H144.242C137.715 8.24512 131.514 8.31327 125.055 8.31327C124.457 8.31327 123.988 8.31326 123.458 8.38141C123.124 8.38141 122.859 8.44956 122.594 8.57827C122.193 8.71457 122.064 8.91143 122.064 9.24458C122.064 10.0472 122.133 10.6454 122.133 11.5085V14.9082C122.133 19.8374 122.329 20.1706 122.329 24.9711C122.466 25.7055 123.064 26.1068 123.662 26.1068H123.859C125.926 25.9705 127.054 25.8418 129.053 25.8418H129.719C130.121 25.8418 130.454 25.8418 130.916 25.9781C131.582 26.1144 132.513 25.9781 132.513 26.5081C132.513 26.705 132.445 27.0381 132.317 27.3713C132.18 27.6363 132.052 27.9695 131.915 28.1739C130.78 29.7715 129.651 31.1042 128.251 32.5049C127.584 33.2394 126.85 33.9057 126.252 34.7007C125.184 35.8971 124.253 37.101 123.253 38.4336C122.92 38.903 122.587 39.3649 122.587 39.9631C122.587 40.0994 122.655 40.2962 122.655 40.4325C122.791 45.498 122.791 49.6246 122.791 53.6906C122.791 54.0238 122.791 54.4251 122.859 54.7582C122.996 55.5608 122.928 56.159 123.662 56.5603L123.859 56.7572C124.056 56.8253 124.26 56.954 124.457 56.954H128.182C128.932 56.954 129.341 57.8248 128.871 58.4002L122.125 66.661C122.163 66.7291 125.487 65.5631 135.33 61.8756C136.148 61.5652 138.139 60.7702 139.464 60.3083C141.16 59.7177 144.764 58.6728 145.605 56.8556C145.673 56.7041 145.719 56.5527 145.719 56.5527C145.719 56.2196 145.787 55.9545 145.787 55.6895C145.787 55.1595 145.719 54.4932 145.719 53.8269V51.2979C145.787 48.3677 145.984 45.5661 145.984 42.4996C145.984 41.167 145.719 40.9701 145.385 40.9701H139.055C137.125 41.1064 136.193 41.1064 134.459 41.1064H133.99C133.657 41.1064 133.324 41.1064 132.99 41.0382C132.521 40.9701 132.256 40.7051 132.256 40.2356V40.0994C132.256 39.8344 132.324 39.5693 132.521 39.3649C137.117 33.8375 141.918 29.5065 145.582 24.5697C145.847 24.3729 145.984 24.0397 146.052 23.7066C146.052 23.3053 146.12 22.9721 146.12 22.5102C146.12 21.9802 146.052 21.7076 146.052 21.1776C146.052 19.3756 146.12 18.3761 146.12 16.5816L146.105 16.574Z" fill="#FEFDFB"/>
</svg>
