<svg width="32" height="32" viewBox="0 0 32 32" fill="none" xmlns="http://www.w3.org/2000/svg">
<path d="M26.8036 27.6924C23.8789 30.472 20.0729 32 16.0851 32C12.3477 32 8.70478 30.636 5.82966 28.1611C4.28697 26.8323 3.05141 25.2831 1.94341 23.2817C0.237713 20.2115 -0.348178 16.8812 0.197551 13.3892C1.13072 7.43401 5.27448 2.60612 11.0105 0.789805C12.6666 0.264831 14.3652 0 16.0615 0C18.6791 0 21.2069 0.616376 23.5788 1.83507C28.67 4.45056 31.8144 9.37689 31.9916 15.0157C32.1428 19.799 30.2528 24.4183 26.8036 27.6924Z" fill="#FFFBF0"/>
<path d="M7.37707 26.3892C5.94069 25.1517 4.90594 23.7643 4.01056 22.1519C2.55292 19.5247 2.07098 16.6842 2.53166 13.7476C3.32781 8.67363 6.79118 4.58398 11.7287 3.02078C15.3409 1.87708 19.1185 2.18176 22.4921 3.91605C26.7493 6.10266 29.4779 10.2579 29.6315 15.0882C29.7614 19.1731 28.11 23.2089 25.1711 26.0001C20.184 30.7366 12.591 30.8772 7.37707 26.3892ZM18.1475 14.9288L22.074 18.7325L26.2012 22.7823C28.7219 19.1778 29.244 14.3077 27.1958 10.2743C23.7915 3.56216 15.0669 1.7224 8.81817 6.04641C9.2505 6.40499 9.64031 6.66982 9.98523 7.00964L14.7125 11.6407L18.1475 14.9288ZM25.4286 23.7174L23.5481 21.9902L19.9832 18.5497L12.9808 11.6899L10.2026 9.04158C9.40879 8.28458 8.72604 7.56274 7.98186 6.712C5.82021 8.42989 4.17357 11.1391 3.82865 13.8413C3.65147 15.2335 3.79322 16.5529 4.08144 17.9333C5.42804 24.4111 11.3744 28.7937 17.9633 27.8961C20.94 27.4907 23.5765 25.8853 25.4286 23.7151V23.7174Z" fill="#860909"/>
<path d="M23.2992 19.3099C23.1283 21.1289 22.2025 22.7659 20.427 23.419C19.3441 23.8175 18.1662 23.7309 16.997 23.7517L13.1852 23.821C11.085 23.8591 9.76898 22.7902 9.02114 20.8915C8.2733 18.9929 8.85015 17.2761 10.3286 15.9231C10.3752 15.6806 10.3579 15.3445 10.3337 14.9981C10.0315 15.5195 9.51682 15.8175 8.93132 15.8642C7.43909 15.982 6.58589 14.3848 6.38209 13.0613C6.351 12.8551 6.522 12.6542 6.71371 12.6265C8.23357 12.3995 10.0764 12.0704 11.2733 11.0674L12.6619 9.90495C12.5134 9.01452 12.7673 7.47619 13.7984 7.17822C13.807 7.95778 13.8761 8.60048 14.0764 9.25878C15.5324 8.83435 16.9296 8.82049 18.3631 9.21027L18.7103 7.73604C18.7258 7.66675 18.8208 7.53682 18.8744 7.51603C19.2958 7.34453 19.8519 9.27957 19.693 9.90321L20.8053 11.0795C21.2561 11.5541 22.0091 11.6858 22.6239 11.8902C23.5704 12.2055 24.4806 12.4082 25.4651 12.5312C25.5324 12.5399 25.7034 12.6092 25.7259 12.6698C25.8813 13.0907 25.2751 14.5736 24.7397 15.1644C23.9728 16.0098 22.8692 16.1743 21.9486 15.4C21.9245 15.5022 21.9694 15.7205 22.0523 15.8071C22.9763 16.7581 23.4219 17.9795 23.2975 19.3116L23.2992 19.3099ZM13.7327 9.37485C13.6118 8.80837 13.5566 8.29386 13.5479 7.73777C13.1334 8.35449 12.9538 9.03704 12.9745 9.73345L13.731 9.37485H13.7327ZM19.2871 9.61218C19.2871 8.89845 19.2181 8.48442 19.0056 8.01322L18.712 9.34886L19.2871 9.61045V9.61218ZM17.8053 17.361C19.0315 16.7581 20.1334 16.4429 21.0678 17.7265C21.9469 18.9357 22.0402 20.4325 21.6706 21.879C22.4806 21.1271 22.7932 20.0981 22.845 19.0535C22.8916 18.0955 22.5618 17.2207 21.9003 16.5381C21.636 16.2662 21.4685 16.0219 21.3977 15.5749C20.7552 15.892 20.282 15.2198 19.807 15.0604C19.3321 14.9011 18.8485 15.1488 18.4823 14.6083C17.5514 13.2293 18.7034 12.7027 18.427 11.9526C18.168 11.2475 18.465 10.5528 19.1732 10.2376C17.6636 9.13752 14.6602 9.24319 13.206 10.2826C13.6654 10.9392 13.5168 11.8383 12.8743 12.2713C12.6464 12.4255 12.3234 12.571 12.2474 12.8413C12.1334 13.2415 12.0488 13.6364 11.8605 13.9569C11.6135 14.3744 11.2336 14.3917 10.7776 14.1596L10.8018 15.7343C10.807 16.0132 10.5997 16.183 10.4253 16.377C9.48228 17.4355 8.91405 18.837 9.40455 20.2662C9.73789 21.2397 10.3441 22.1284 11.2681 22.6222C10.4097 21.1653 9.97796 19.6529 10.8104 18.1042C11.3838 17.0388 12.5496 16.5104 13.7379 16.8326C15.2025 17.2276 16.0609 18.2185 17.8053 17.361ZM9.09022 15.2337C9.49091 15.1505 10.1818 14.7625 10.2146 14.2462C10.2664 13.4164 10.3735 12.7079 10.7327 11.9127C9.53236 12.6473 8.2353 12.9747 6.78624 13.1081C7.0384 14.2012 7.79488 15.5057 9.09022 15.2337ZM23.0574 15.3151C22.8744 14.248 23.1179 13.458 23.6637 12.7062C22.7777 12.481 22.0212 12.2558 21.2284 11.9162C21.6568 12.8777 21.8934 13.8409 21.9486 14.8664C22.3131 15.0795 22.6447 15.2527 23.0574 15.3151ZM19.6982 21.2501C19.8554 21.8253 19.7051 22.3883 19.5065 22.986C19.7535 22.9582 20.1922 22.9115 20.3942 22.7105C20.6637 22.442 20.9504 22.1059 21.1041 21.7664C21.6291 20.6092 21.4806 19.2493 20.8191 18.222C20.358 17.5065 19.6049 17.2692 18.8415 17.6001L17.6809 18.1024C16.9072 18.4368 16.0782 18.4229 15.3061 18.099L14.0246 17.5637C13.4823 17.3367 12.845 17.2726 12.2992 17.5152C11.4322 17.9015 10.9089 18.7538 10.8743 19.7291C10.8312 20.9487 11.3407 22.151 12.2629 22.9565C12.4857 23.1523 12.9745 23.1349 13.2491 23.1886C12.9192 22.7348 12.6256 22.1891 12.8225 21.5845C13.0868 20.772 13.9607 20.2055 14.8139 20.3112C15.4529 20.3892 15.8174 20.9522 15.9469 21.5446C16.0643 22.0851 15.8951 22.5979 15.674 23.1193H17.3925C16.7759 22.293 16.7483 20.895 17.5756 20.4065C18.358 19.9457 19.4909 20.4896 19.6982 21.2519V21.2501Z" fill="#860909"/>
</svg>
