<svg width="90" height="73" viewBox="0 0 90 73" fill="none" xmlns="http://www.w3.org/2000/svg">
<path d="M50.8404 72.13C41.6504 72.13 35.9004 64 33.8604 60.5C32.8904 58.84 32.3304 56.98 32.1604 55.09C31.6704 55.1 31.1904 55.11 30.7204 55.12C28.6404 55.17 26.4904 55.22 24.1004 55.22C21.2404 55.22 18.4604 55.15 15.3504 55C6.62039 54.58 0.320386 47.99 0.0203857 38.99C-0.519614 22.29 9.8204 19.71 13.0004 19.32C18.7504 18.61 23.6504 18.28 28.4004 18.28C29.6404 18.28 30.8804 18.3 32.1004 18.35C32.1104 18.35 32.1204 18.35 32.1304 18.35C31.8404 13.9 33.5904 9.37 37.3104 5.75C41.1804 1.99 45.7904 0 50.6304 0C54.2204 0 57.8004 1.14 60.9804 3.31C64.4404 5.67 67.3604 8.36 70.1904 10.97L84.9604 24.56C88.1204 27.47 89.8404 31.35 89.8004 35.5C89.7404 42.23 85.2304 47.24 82.5504 49.63L67.0504 63.41C64.6004 65.59 62.0604 67.57 59.3004 69.46C56.7604 71.2 53.8404 72.12 50.8604 72.12L50.8404 72.13Z" fill="white"/>
<path d="M49.8504 44.85C47.0904 44.99 44.4604 45.1401 41.6904 45.0801C31.0904 44.8601 27.0704 45.5701 15.8304 45.0301C12.1104 44.8501 10.1304 42.14 10.0104 38.68C9.91041 35.59 10.0304 29.7801 14.2104 29.2601C20.1204 28.5301 25.7904 28.1401 31.7104 28.3601C38.1604 28.6001 44.4304 28.34 50.7904 27.57C48.0004 25.2 45.5204 23.3301 43.5504 21.0101C41.1104 18.1401 41.9004 15.2501 44.2804 12.9401C47.4904 9.82006 51.4404 8.93005 55.3404 11.5901C58.4704 13.7201 61.2904 16.4 64.1704 19.05L78.1704 31.9401C81.6204 35.1201 78.9004 39.49 75.8804 42.18L60.3804 55.96C58.2004 57.9 56.0304 59.5901 53.6304 61.2301C49.2304 64.2401 44.6304 59.1201 42.4904 55.4701C41.7604 54.2101 42.0904 52.2401 43.1504 51.2301L49.8504 44.85Z" fill="#860909"/>
</svg>
