<svg width="40" height="46" viewBox="0 0 40 46" fill="none" xmlns="http://www.w3.org/2000/svg">
<g filter="url(#filter0_d_853_3367)">
<path d="M37.6915 12.4111L37.7652 21.1393L37.6547 25.4482L37.4706 33.5873L37.3233 36.3125C37.1391 39.9953 34.3402 42.647 30.3996 42.9048L19.7562 43.5308L9.44436 43.4572C6.97688 43.4572 4.61988 42.3523 3.0731 40.4741C1.48949 38.5959 0.826591 36.0547 1.19487 33.5504C1.04756 33.3663 0.900243 33.1453 0.752931 32.9612C0.0163681 31.7458 -0.204601 30.3096 0.200509 28.9837C0.458306 28.1367 0.90023 27.437 1.45265 26.8845V24.9695C0.531948 24.0119 0.274151 22.9439 0.163667 22.4283C-0.0573017 20.992 0.31098 19.5926 1.26851 18.4877C1.379 18.3404 1.52632 18.1931 1.67363 18.0826V16.1675C1.59998 16.0939 1.52632 15.9834 1.41583 15.8729C0.237332 14.6576 -0.0941118 12.8898 0.45831 11.2326C0.716107 10.4592 1.15803 9.75944 1.71045 9.17019C1.6368 6.9605 2.37336 4.27206 4.10428 2.20969C5.39327 0.699734 7.63978 0 9.18656 0H17.2887L23.5127 0.147299L28.9264 0.22096C32.0568 0.257788 34.8926 1.8414 36.3289 4.34571C37.8388 6.99734 37.8757 9.90676 37.7284 12.3742L37.6915 12.4111Z" fill="white"/>
</g>
<path d="M9.00287 32.2984C10.1077 32.1511 10.4024 31.2303 10.3287 30.3096C10.255 29.3889 9.62896 28.0999 8.30315 28.2104L5.57786 28.4682C5.39372 28.4682 5.0991 28.0263 5.0991 27.8421V25.0064C5.0991 24.6013 5.39373 23.8647 5.72518 23.6806L8.92923 23.4964C9.408 23.4964 9.96041 22.9808 10.1814 22.6862C10.4023 22.3916 10.5128 21.4341 10.2182 21.0658C9.408 19.9978 8.26631 19.8136 7.05099 19.6295L5.32006 19.3717L5.39372 15.9099C5.39372 15.2469 5.94616 14.9155 6.53541 14.8786C8.45047 14.7682 10.3287 14.1421 10.2919 12.5585C10.255 10.9749 8.19267 10.5329 6.53541 10.6066H5.87248C5.20958 10.6434 4.87814 7.03426 6.90369 4.64043C7.67707 3.72645 8.45045 3.71973 9.18701 3.71973H17.1787L23.4027 3.86705L28.8532 3.94071C30.5105 3.94071 32.2782 4.75092 33.1253 6.18722C34.1933 8.06545 34.1933 10.2015 34.0092 12.2639L34.0828 21.0658L33.9724 25.3378L33.7882 33.4769L33.6409 36.1653C33.5304 38.154 32.0573 39.1484 30.179 39.2589L19.6462 39.8849L9.44482 39.8113C6.38808 39.8113 4.28889 37.0492 4.80448 34.0661C5.24839 32.6666 5.61469 32.7771 6.4249 32.6666L8.96605 32.2984H9.00287ZM7.23513 34.6922C6.64588 36.5704 9.37117 38.3013 11.1389 38.3013H15.9266L29.4793 37.3438C30.0317 37.307 31.0261 36.9019 31.2102 36.4231C31.8732 34.5817 31.7995 32.7403 31.91 30.8252L32.3151 24.454L32.4624 15.7625L32.5361 9.39127L32.0205 7.14474C31.8731 6.48183 31.2839 6.18722 30.621 6.1504L20.5669 5.81893L11.2126 5.48747C10.0341 5.45064 8.48729 5.70846 7.67707 6.51868C6.86685 7.3289 6.97733 8.47055 6.79319 9.35443C8.119 9.50174 9.26067 9.64906 10.476 10.1646C11.6913 10.6802 12.3174 11.9324 12.0228 13.0004C11.1389 16.2045 7.52975 16.1676 6.97733 16.941C6.4249 17.7144 6.83002 17.8617 6.94051 18.0459C8.30315 18.3037 9.62895 18.5983 10.6601 19.4822C11.6913 20.366 12.1333 21.4341 11.8386 22.5389C11.3599 24.3435 9.66579 25.3747 7.86121 25.4115C6.05663 25.4483 6.46175 25.8534 6.64589 26.4427L9.48166 27.0319C10.3287 27.2161 10.7338 27.9895 11.1021 28.6156C12.1333 30.3096 11.9123 32.1879 10.2919 33.44C8.67142 34.6922 8.30315 34.3239 7.30879 34.6554L7.23513 34.6922Z" fill="#860909"/>
<path d="M9.33435 31.5625C8.11903 32.2991 6.42493 32.0781 5.09912 31.8571C3.77331 31.6361 3.51551 30.8628 3.73647 30.0894C3.95744 29.316 4.9518 28.874 5.68836 28.874H7.86123C8.52414 28.874 9.15021 29.1687 9.44483 29.6842C9.73946 30.1998 10.0341 31.1206 9.33435 31.5625Z" fill="#860909"/>
<path d="M9.29654 22.8703C7.16051 23.3123 4.06694 23.3859 3.80914 21.876C3.51452 20.0714 7.08684 19.4822 9.07556 20.6238C11.0643 21.7655 9.77531 22.2811 9.29654 22.8703Z" fill="#860909"/>
<path d="M13.1636 20.7339C13.09 20.6234 13.0163 20.4761 12.9795 20.3657C12.9795 20.3657 13.0531 20.3288 13.0531 20.292C13.0531 20.4025 13.1268 20.5498 13.1268 20.6603C13.1268 20.6603 13.1268 20.6971 13.1268 20.7339H13.1636Z" fill="#860909"/>
<path d="M9.7027 12.8159C9.59222 13.8471 8.74517 13.9944 7.97178 14.0313C6.64596 14.1417 5.06236 14.3627 4.068 13.3315C3.07364 12.3003 4.25214 11.4533 5.09919 11.306C7.16156 10.9745 9.85002 11.3796 9.7027 12.8159Z" fill="#860909"/>
<path d="M13.1636 20.7339C13.09 20.6234 13.0163 20.4761 12.9795 20.3657C12.9795 20.3657 13.0531 20.3288 13.0531 20.292C13.0531 20.4025 13.1268 20.5498 13.1268 20.6603C13.1268 20.6603 13.1268 20.6971 13.1268 20.7339H13.1636Z" fill="#860909"/>
<path d="M26.6795 30.1992L14.0475 30.6043C12.3902 30.6411 12.648 26.0376 14.4157 24.012C16.1835 21.9865 17.3252 22.1338 18.9088 22.0233L21.5236 21.8392C23.5491 21.6919 25.722 22.2443 27.0846 23.9384C28.4473 25.6325 28.4841 27.1424 28.2631 28.8733C28.1895 29.5362 27.4161 30.1992 26.6795 30.236V30.1992Z" fill="#860909"/>
<path d="M24.6178 17.9358C23.5498 20.7715 20.088 21.729 17.7678 20.3664C16 19.3352 15.5213 17.0887 16.0737 15.2473C16.6629 13.2586 18.2834 12.0801 20.3826 12.0064C22.4818 11.9328 23.1447 12.7798 23.9181 13.811C24.6915 14.8422 25.1334 16.5363 24.6178 17.9358Z" fill="#860909"/>
<defs>
<filter id="filter0_d_853_3367" x="0" y="0" width="39.7852" height="45.5312" filterUnits="userSpaceOnUse" color-interpolation-filters="sRGB">
<feFlood flood-opacity="0" result="BackgroundImageFix"/>
<feColorMatrix in="SourceAlpha" type="matrix" values="0 0 0 0 0 0 0 0 0 0 0 0 0 0 0 0 0 0 127 0" result="hardAlpha"/>
<feOffset dx="2" dy="2"/>
<feComposite in2="hardAlpha" operator="out"/>
<feColorMatrix type="matrix" values="0 0 0 0 0 0 0 0 0 0 0 0 0 0 0 0 0 0 1 0"/>
<feBlend mode="normal" in2="BackgroundImageFix" result="effect1_dropShadow_853_3367"/>
<feBlend mode="normal" in="SourceGraphic" in2="effect1_dropShadow_853_3367" result="shape"/>
</filter>
</defs>
</svg>
