<svg width="18" height="18" viewBox="0 0 18 18" fill="none" xmlns="http://www.w3.org/2000/svg">
<path d="M13.125 17.5C15.5412 17.5 17.5 15.5412 17.5 13.125C17.5 10.7088 15.5412 8.75 13.125 8.75C10.7088 8.75 8.75 10.7088 8.75 13.125C8.75 15.5412 10.7088 17.5 13.125 17.5ZM11.25 12.5H15C15.3452 12.5 15.625 12.7798 15.625 13.125C15.625 13.4702 15.3452 13.75 15 13.75H11.25C10.9048 13.75 10.625 13.4702 10.625 13.125C10.625 12.7798 10.9048 12.5 11.25 12.5Z" fill="black"/>
<path d="M11.25 3.75C11.25 5.82107 9.57107 7.5 7.5 7.5C5.42893 7.5 3.75 5.82107 3.75 3.75C3.75 1.67893 5.42893 0 7.5 0C9.57107 0 11.25 1.67893 11.25 3.75ZM7.5 6.25C8.88071 6.25 10 5.13071 10 3.75C10 2.36929 8.88071 1.25 7.5 1.25C6.11929 1.25 5 2.36929 5 3.75C5 5.13071 6.11929 6.25 7.5 6.25Z" fill="black"/>
<path d="M7.82007 15C7.67892 14.6007 7.58159 14.1806 7.53385 13.7456H1.25C1.25178 13.4372 1.44219 12.5131 2.29012 11.6651C3.10544 10.8498 4.6386 10 7.49999 10C7.82561 10 8.13403 10.011 8.42615 10.0317C8.7076 9.60504 9.0456 9.21897 9.42948 8.88417C8.84635 8.79771 8.20498 8.75 7.5 8.75C1.25 8.75 0 12.5 0 13.75C0 15 1.25 15 1.25 15H7.82007Z" fill="black"/>
</svg>
