<svg width="18" height="18" viewBox="0 0 18 18" fill="none" xmlns="http://www.w3.org/2000/svg">
<path d="M13.125 17.5C15.5412 17.5 17.5 15.5412 17.5 13.125C17.5 10.7088 15.5412 8.75 13.125 8.75C10.7088 8.75 8.75 10.7088 8.75 13.125C8.75 15.5412 10.7088 17.5 13.125 17.5ZM13.75 11.25V12.5H15C15.3452 12.5 15.625 12.7798 15.625 13.125C15.625 13.4702 15.3452 13.75 15 13.75H13.75V15C13.75 15.3452 13.4702 15.625 13.125 15.625C12.7798 15.625 12.5 15.3452 12.5 15V13.75H11.25C10.9048 13.75 10.625 13.4702 10.625 13.125C10.625 12.7798 10.9048 12.5 11.25 12.5H12.5V11.25C12.5 10.9048 12.7798 10.625 13.125 10.625C13.4702 10.625 13.75 10.9048 13.75 11.25Z" fill="black"/>
<path d="M11.25 3.75C11.25 5.82107 9.57107 7.5 7.5 7.5C5.42893 7.5 3.75 5.82107 3.75 3.75C3.75 1.67893 5.42893 0 7.5 0C9.57107 0 11.25 1.67893 11.25 3.75Z" fill="black"/>
<path d="M0 13.75C0 15 1.25 15 1.25 15H7.82007C7.61279 14.4135 7.5 13.7824 7.5 13.125C7.5 11.4329 8.24712 9.91535 9.42948 8.88417C8.84635 8.79771 8.20498 8.75 7.5 8.75C1.25 8.75 0 12.5 0 13.75Z" fill="black"/>
</svg>
