<svg width="53" height="56" viewBox="0 0 53 56" fill="none" xmlns="http://www.w3.org/2000/svg">
<path d="M20.0547 3.25C21.1677 3.25002 22.3355 3.34061 23.5127 3.51758H23.5137C25.4203 3.80417 26.879 5.24246 27.3047 7.29883V7.2998C27.4422 7.9584 27.5756 8.55651 27.7139 9.10547L27.7607 9.29102L27.9521 9.29395C29.659 9.32288 31.1029 9.44376 32.4844 9.67188L33.0732 9.77637C36.3962 10.4045 37.6307 12.5945 38.2441 14.0527L38.4736 14.626C38.504 14.7042 38.5354 14.7835 38.5684 14.8701L38.6113 14.9805L38.7236 15.0176C38.7846 15.0379 38.8556 15.0618 38.9326 15.0811C39.8545 15.3612 41.051 15.7305 42.1592 16.6455L42.3799 16.8369C43.6464 17.9799 43.9923 19.7024 43.3057 22.043V22.0439L42.5029 24.7871C42.0783 26.2337 40.9371 27.3481 39.5312 27.7773L39.373 27.8262L39.3555 27.9912C39.302 28.5176 39.2285 29.0661 39.1416 29.6328C38.6628 32.7224 38.2959 35.7042 38.0293 38.7529C37.8404 40.9184 37.5963 43.0802 37.1758 45.0068C36.7546 46.9365 36.161 48.6081 35.2871 49.8096C34.3713 51.0678 32.6905 51.8123 30.54 52.2354C28.3972 52.6569 25.8407 52.75 23.2344 52.75C22.1041 52.75 21.2306 52.7206 20.8086 52.7041H20.8076C18.5829 52.6189 16.7784 51.3839 16.0322 49.4756L15.9629 49.2891C15.372 47.5811 14.925 45.7319 14.6094 43.6543L14.4824 42.75L13.876 38.0605L13.873 38.0469L12.3975 30.1406C12.2159 29.1753 12.0752 28.1968 11.9678 27.1475L11.957 27.0381L11.8691 26.9727L11.6289 26.7803C11.0728 26.2989 10.5393 25.5823 10.1455 24.5205C9.76541 23.489 9.60639 22.384 9.48535 21.5576L9.48438 21.5537C9.47247 21.4802 9.46302 21.4083 9.45312 21.3369C9.44337 21.2666 9.43294 21.1953 9.42188 21.1289C9.14084 19.3951 9.70203 18.1911 10.5195 17.3398C11.3478 16.4775 12.4485 15.9684 13.2461 15.667L13.3428 15.6309L13.3857 15.5371L13.5684 15.1338C14.3997 13.2976 15.7854 11.9209 17.5947 11.123L18.1006 10.8994L17.5986 10.667C17.1331 10.4515 16.7214 10.1209 16.4102 9.69824C15.5121 8.46595 15.3083 6.64671 15.9121 5.18652L15.9131 5.18555C16.3467 4.12273 17.3525 3.39603 18.498 3.30762H18.499C19.0106 3.2667 19.532 3.25 20.0547 3.25Z" fill="white" stroke="#1F1F1F" stroke-width="0.5"/>
<path d="M32.816 48.0198C31.4775 49.8613 23.2674 49.7533 20.927 49.6618C19.9958 49.6244 19.1561 49.1921 18.8444 48.29C18.1792 46.3736 17.7718 44.3949 17.51 42.358L16.8906 37.5817L15.3982 29.5878C15.0864 27.925 14.9243 26.3412 14.8287 24.666C12.8998 25.3144 12.6629 22.0637 12.4343 20.6462C12.1599 18.946 14.1968 18.6259 15.5894 18.073L16.346 16.3978C16.9197 15.134 17.8633 14.2486 19.1894 13.7705C20.7732 13.201 22.4402 12.8477 24.0988 12.5941L23.1011 7.89675L18.8735 7.90506C18.6032 7.53509 18.5201 6.85335 18.728 6.35036C20.1871 6.23812 21.6379 6.32126 23.0637 6.53326C23.7829 6.64134 24.1819 7.25657 24.3191 7.91753C24.6351 9.43898 24.9967 10.8939 25.5288 12.3572C27.9482 12.3031 30.2054 12.3364 32.5084 12.7729C35.8007 13.3923 35.2312 16.2065 36.6363 17.4952C37.9083 18.0813 39.2885 18.152 40.336 19.0998C40.8141 19.5321 40.5439 20.6254 40.3818 21.1907L39.5795 23.9343C39.3924 24.5703 38.7106 25.0234 38.0164 24.9071L36.5573 24.6576C36.4783 26.1833 36.3703 27.6216 36.1291 29.1679C35.6428 32.3023 35.2687 35.3244 34.9901 38.492C34.7615 41.1026 34.2959 45.9912 32.816 48.024V48.0198ZM34.7781 17.1086C34.5079 15.4416 33.7971 14.1779 32.0054 13.9742C30.3925 13.7913 28.8627 13.5876 27.2415 13.6209C24.872 13.6666 17.5307 14.5728 16.8241 17.6823C22.7602 16.8467 28.6258 16.4684 34.7781 17.1086ZM30.2553 22.1551C33.1236 22.5875 35.7924 23.0156 38.6566 23.8803C39.0598 22.4711 39.3591 21.1866 39.5129 19.8356C37.0977 18.7173 34.7449 18.2725 32.1509 18.1852C25.8281 17.9732 19.2393 18.4638 13.1701 20.0559C13.7312 21.3903 14.1802 22.5584 14.546 23.8263C16.425 23.0156 18.4744 22.6374 20.5363 22.2466C23.8203 21.623 26.9547 21.6522 30.2553 22.151V22.1551ZM29.1121 29.5088C31.095 29.7208 32.8119 29.9993 34.7075 30.6146L35.5014 24.3666C33.0031 23.8055 30.6128 23.4438 28.0479 23.1778C25.9029 23.0531 23.8577 23.1237 21.7418 23.3731L15.8056 24.4207L16.6328 30.8058C17.8799 30.3485 19.0564 30.0492 20.3783 29.8289C23.2799 29.4839 26.1191 29.3384 29.108 29.513L29.1121 29.5088ZM30.9204 48.1071C31.9514 47.8951 32.5417 47.3131 32.7869 46.3778C33.2733 44.4988 33.5144 42.5908 33.6765 40.6703C28.5426 39.6103 23.5085 39.9968 18.3123 40.6703C18.5866 43.0522 18.9649 45.2928 19.6176 47.5708C19.8296 48.3025 20.4448 48.6641 21.2138 48.6932C24.4355 48.8138 27.6239 48.5394 30.9163 48.1071H30.9204Z" fill="#860909"/>
</svg>
