<svg width="37" height="32" viewBox="0 0 37 32" fill="none" xmlns="http://www.w3.org/2000/svg">
<path d="M37 25.1761C37.0038 26.856 36.1661 28.67 34.8661 29.7949C34.3013 30.2866 33.6001 30.5995 32.8535 30.6926C28.8547 31.2103 25.0569 31.4934 20.9104 31.5865L14.1827 31.7393C13.4057 31.7579 12.6325 31.7579 11.9654 31.7579H11.34C9.61544 31.7579 8.06902 31.7728 6.56429 31.9553C6.31034 31.9851 6.05639 32 5.80245 32C3.19475 32 1.0419 30.3834 0.321748 27.8766C-0.0989696 26.4202 -0.0117948 25.0755 0.06022 23.9953C0.0791712 23.7123 0.0981206 23.4254 0.105701 23.1424L0.215622 17.5328C0.264895 14.9179 1.72793 12.5899 4.03241 11.4613L10.8245 8.13875C10.8852 8.10895 10.9458 8.07915 11.0103 8.05308L11.7721 7.72902C11.9047 6.94308 12.1928 6.19066 12.6287 5.48295C13.2086 4.54429 14.05 3.86637 14.8763 3.38959C15.8731 1.35584 17.8289 0 20.0576 0C20.4063 0 20.7588 0.0335236 21.1075 0.100571C22.3658 0.335235 23.3475 1.1547 23.4574 1.24782C23.6886 1.44896 23.8971 1.67245 24.0715 1.91084C24.4353 1.86614 24.803 1.84379 25.1668 1.84379C29.8781 1.85124 33.7366 6.68979 35.1845 9.94157C35.9577 11.6699 36.981 14.3108 36.9848 17.2981L37 25.1761Z" fill="#FFFBF0"/>
<path d="M32.3609 27.0013C28.4077 27.5116 24.7197 27.7761 20.8234 27.8617L14.0957 28.0145C11.3894 28.0741 8.78553 27.9325 6.10204 28.2566C5.07867 28.3795 4.25997 27.8692 3.96812 26.8635C3.63458 25.7051 3.86958 24.4647 3.89611 23.2132L4.00603 17.6036C4.02877 16.3818 4.65416 15.324 5.7268 14.7988L12.5189 11.4725L15.7217 10.1092C15.4185 9.21153 15.3161 8.31757 15.8733 7.41616C16.2296 6.83882 17.1506 6.35086 17.992 6.09385C18.1209 4.82368 19.023 3.50137 20.4027 3.75838C20.5543 3.78818 20.8651 3.96697 20.9636 4.04892C21.4791 4.49217 19.2049 4.56295 19.0154 6.00818C19.8 6.28754 20.4519 6.6265 21.119 7.08465C22.3205 6.25402 23.685 5.56492 25.1822 5.56865C27.7557 5.57237 30.6136 8.95452 31.7165 11.4353C32.5428 13.2865 33.1947 15.2532 33.1985 17.3056L33.2137 25.1836C33.2137 25.7684 32.8498 26.5841 32.3647 27.0013H32.3609ZM6.55308 15.3426H13.0117L27.6382 14.7131L31.311 14.6498C31.0381 12.1467 29.5751 9.99002 27.7292 8.217C26.3875 6.92821 24.9055 6.45143 23.0937 7.26717L21.4715 7.99724C21.7292 9.43502 21.3275 10.8505 20.2018 11.6885C18.8145 12.7203 16.9232 12.102 16.0856 10.7313L13.0344 12.3739L6.54928 15.3426H6.55308ZM17.2833 18.4528C17.9769 19.0041 18.6591 18.8477 19.3338 18.3783C20.8726 17.3056 22.7488 17.2758 24.1398 18.505C24.7235 19.0227 25.4854 19.0078 26.1411 18.5944C28.1158 17.354 29.8063 17.1491 31.7848 18.5497L31.5422 15.4357C30.6174 15.8306 29.738 15.946 28.6768 15.9795L18.4431 16.3185C14.4444 16.4489 10.639 16.691 6.64026 16.3669L5.11277 16.3967C4.92705 17.4583 4.85126 18.248 4.874 19.384L6.55308 18.4938C9.48673 16.9405 10.5745 19.723 11.5979 19.4883C12.4355 19.2946 14.5884 16.3148 17.2795 18.4528H17.2833ZM18.9775 26.6922C23.4538 26.6326 27.6117 26.4761 32.0349 26.0329L32.1183 23.8166L30.1891 23.1424C29.2074 22.7997 28.3546 22.7401 27.5283 23.3845C26.3799 24.2785 24.86 24.2636 23.594 23.4962C22.7071 22.9599 21.7103 22.7215 20.8196 23.4106C19.7431 24.2449 18.2308 24.3157 17.1013 23.4515C14.8044 21.6972 13.4513 24.8558 10.3395 23.5074C8.10328 22.539 6.96621 23.9321 4.85883 24.1369L4.88537 26.1818C4.88537 26.4202 5.09004 26.8709 5.27197 26.9901C5.42358 27.0907 5.88599 27.1391 6.08687 27.1131C8.38755 26.8374 10.5328 26.8039 12.8297 26.7741L18.9813 26.6922H18.9775Z" fill="#860909"/>
<path d="M7.93257 24.8892C8.23958 24.8334 8.69062 24.9265 8.8157 25.1015C8.94078 25.2766 8.78159 25.8316 8.59208 25.9322C8.40257 26.0328 8.03112 25.9322 7.8454 25.8204C7.5725 25.6528 7.6066 24.9451 7.93257 24.8855V24.8892Z" fill="#860909"/>
<path d="M15.0203 24.8709C15.3273 24.815 15.7253 25.0422 15.7708 25.2434C15.8163 25.4445 15.6343 25.9325 15.4334 26.0032C15.2326 26.074 14.8763 25.8692 14.736 25.6941C14.5882 25.5041 14.7512 24.923 15.0203 24.8746V24.8709Z" fill="#860909"/>
<path d="M21.642 24.8895C21.9907 24.8299 22.4834 24.9193 22.4758 25.0981C22.4607 25.3663 22.3242 25.7648 22.1499 25.8952C22.0058 26.0032 21.5662 25.8207 21.4487 25.6903C21.2933 25.519 21.3804 24.9379 21.642 24.8932V24.8895Z" fill="#860909"/>
<path d="M28.6615 24.8556C28.8359 24.7848 29.3438 24.8779 29.4271 25.0344C29.5295 25.2206 29.4347 25.6229 29.2755 25.7644C29.086 25.9358 28.616 25.8836 28.4985 25.7049C28.381 25.5261 28.4568 24.9338 28.6577 24.8519L28.6615 24.8556Z" fill="#860909"/>
</svg>
