<svg width="20" height="32" viewBox="0 0 20 32" fill="none" xmlns="http://www.w3.org/2000/svg">
<path d="M19.7166 16.3466L19.1015 23.0388C19.0969 23.0692 19.0946 23.0997 19.09 23.1301L18.4932 27.6751C18.4086 28.3144 18.0771 29.909 16.7989 30.9299C15.6098 31.8782 13.9292 32 12.5984 32C11.9627 32 11.3133 31.9696 10.7394 31.9415C10.3141 31.9204 9.91391 31.9017 9.57778 31.897L5.69056 31.8501C4.76906 31.8384 3.47942 31.6253 2.57621 30.6793C1.56324 29.6186 1.35745 28.3448 1.22026 27.5042L1.19739 27.3637C0.703483 24.3547 0.440524 21.7907 0.371926 19.2946L0.294182 16.5198L0.0335095 12.0591C-0.0396617 10.8228 0.0060702 9.72223 0.179852 8.59593C0.344487 7.52583 1.20425 6.71096 2.25837 6.62666L4.60671 6.437C4.62958 6.43466 4.65473 6.43231 4.6776 6.43231L10.3278 6.15835C10.6548 4.94775 11.327 3.82146 12.3491 2.75604L14.3248 0.700133C14.7706 0.236501 15.3629 0 15.9551 0C16.4719 0 16.9909 0.177963 17.4162 0.540907C18.2326 1.23401 18.7516 1.97395 19.0992 2.93634C19.3781 3.70438 19.2432 4.56374 18.747 5.20533L17.9102 6.2848C18.132 6.37612 18.3377 6.5049 18.523 6.66647C19.4559 7.47666 19.9498 8.69428 19.9887 10.2842C20.0435 12.4314 19.8903 14.4686 19.7166 16.3466Z" fill="#FFFBF0"/>
<path d="M15.3927 29.085C14.2883 29.9654 11.4003 29.579 9.60534 29.5556L5.71812 29.5088C5.21049 29.5018 4.55195 29.3987 4.21125 29.0428C3.66703 28.4715 3.57786 27.7292 3.45438 26.9752C3.02907 24.3854 2.73182 21.8612 2.65864 19.2293L2.5809 16.4194L2.31565 11.9212C2.2562 10.9167 2.28364 9.98002 2.43913 8.96144L4.78747 8.77177L12.3973 8.4018C12.2624 6.73226 12.9415 5.48186 13.9819 4.39771L15.9575 2.3418C16.4468 2.7586 16.7464 3.16603 16.9568 3.75143L15.9026 5.11188L15.1092 6.10471C14.613 6.72523 14.3775 7.52371 14.3272 8.27536L17.0436 8.45097C17.565 8.90524 17.6885 9.66859 17.7045 10.3453C17.7548 12.3122 17.6222 14.1761 17.4415 16.1267L16.8241 22.8166L16.2273 27.3616C16.1473 27.9727 15.8729 28.6986 15.3927 29.0826V29.085ZM16.831 11.5442C16.831 10.8043 16.7624 10.0479 16.5978 9.33375L14.1923 9.39229L14.0093 12.5066C14.4529 12.4644 15.0177 12.4293 15.3927 12.2467L16.831 11.5465V11.5442ZM7.06264 11.9493C7.96584 11.3569 9.15259 10.9494 10.1267 11.3733L12.1297 12.2467L12.2692 9.54918L6.43153 9.80206L3.81566 9.92851L3.75393 13.0381C5.05729 13.1248 5.99937 12.6471 7.06492 11.9469L7.06264 11.9493ZM16.376 16.0096L16.7189 13.01C15.8363 13.5533 14.9514 13.7383 13.927 13.8694C13.7464 17.8665 13.7235 21.7582 13.7509 25.7248C13.7555 26.453 13.0284 26.4952 12.0909 26.357C11.8736 25.8934 11.8531 25.4368 11.8599 24.9544L11.9262 19.8943L12.0611 13.6399L10.4331 12.7735C9.74939 12.4106 9.11829 12.2958 8.4003 12.612L7.05349 13.4737C6.06797 14.1035 4.9704 14.4478 3.79051 14.2581C3.95743 17.178 4.03746 19.9388 4.06033 22.8002L4.1678 24.4533L4.45591 27.6098C5.63122 28.0476 6.74023 28.2373 7.96356 28.2701L12.443 28.3965C13.2456 28.4199 13.959 28.3755 14.7753 28.2186C15.1252 26.8183 15.3058 25.5 15.4362 24.0552C15.6808 21.3554 15.9621 18.7445 16.3714 16.0072L16.376 16.0096Z" fill="#860909"/>
<path d="M9.32188 20.5615C8.99032 20.9783 8.53529 21.2031 8.06882 21.0837C7.26623 20.8776 6.78604 19.4821 7.24108 18.7843C7.74184 18.0115 9.23042 18.1755 9.63057 18.9599C9.90496 19.4984 9.6946 20.0932 9.32188 20.5592V20.5615Z" fill="#860909"/>
<path d="M10.5155 16.4007C10.3943 16.6816 10.081 16.958 9.86382 16.9907C9.59172 17.0305 9.2533 16.8619 9.0658 16.6301C8.8783 16.3983 8.75939 16.012 8.84857 15.7216C9.00406 15.2135 9.95071 14.9348 10.4446 15.3938C10.6664 15.5998 10.6756 16.0354 10.5155 16.4007Z" fill="#860909"/>
<path d="M8.98094 25.1976C8.8003 24.8838 8.72256 24.4647 8.82774 24.2328C8.9718 23.9191 9.34223 23.7083 9.72866 23.6919C10.1151 23.6755 10.4512 24.0432 10.5107 24.3476C10.5907 24.748 10.4169 25.2397 10.1105 25.4083C9.74467 25.6073 9.23704 25.6425 8.98094 25.1999V25.1976Z" fill="#860909"/>
</svg>
