<svg width="18" height="18" viewBox="0 0 18 18" fill="none" xmlns="http://www.w3.org/2000/svg">
<path d="M5.625 4.5C5.31434 4.5 5.0625 4.75184 5.0625 5.0625C5.0625 5.37316 5.31434 5.625 5.625 5.625H12.375C12.6857 5.625 12.9375 5.37316 12.9375 5.0625C12.9375 4.75184 12.6857 4.5 12.375 4.5H5.625Z" fill="black"/>
<path d="M5.0625 7.3125C5.0625 7.00184 5.31434 6.75 5.625 6.75H12.375C12.6857 6.75 12.9375 7.00184 12.9375 7.3125C12.9375 7.62316 12.6857 7.875 12.375 7.875H5.625C5.31434 7.875 5.0625 7.62316 5.0625 7.3125Z" fill="black"/>
<path d="M5.625 9C5.31434 9 5.0625 9.25184 5.0625 9.5625C5.0625 9.87316 5.31434 10.125 5.625 10.125H12.375C12.6857 10.125 12.9375 9.87316 12.9375 9.5625C12.9375 9.25184 12.6857 9 12.375 9H5.625Z" fill="black"/>
<path d="M5.625 11.25C5.31434 11.25 5.0625 11.5018 5.0625 11.8125C5.0625 12.1232 5.31434 12.375 5.625 12.375H9C9.31066 12.375 9.5625 12.1232 9.5625 11.8125C9.5625 11.5018 9.31066 11.25 9 11.25H5.625Z" fill="black"/>
<path d="M2.25 2.25C2.25 1.00736 3.25736 0 4.5 0H13.5C14.7426 0 15.75 1.00736 15.75 2.25V15.75C15.75 16.9926 14.7426 18 13.5 18H4.5C3.25736 18 2.25 16.9926 2.25 15.75V2.25ZM13.5 1.125H4.5C3.87868 1.125 3.375 1.62868 3.375 2.25V15.75C3.375 16.3713 3.87868 16.875 4.5 16.875H13.5C14.1213 16.875 14.625 16.3713 14.625 15.75V2.25C14.625 1.62868 14.1213 1.125 13.5 1.125Z" fill="black"/>
</svg>
