<svg width="37" height="32" viewBox="0 0 37 32" fill="none" xmlns="http://www.w3.org/2000/svg">
<path d="M36.8613 27.063C36.1858 29.5884 34.1903 31.3512 31.6534 31.6614C30.073 31.8553 28.4745 31.9483 26.7678 31.9483C26.0871 31.9483 25.3704 31.9328 24.6408 31.9018L17.3162 31.9509L15.5011 32H15.429C15.4109 32 8.68445 31.8475 8.68445 31.8475C8.59937 31.8475 8.51171 31.8449 8.42663 31.8449C8.23585 31.8449 8.03991 31.8501 7.84397 31.8527C7.61966 31.8552 7.39278 31.8604 7.16591 31.8604C6.04182 31.8604 3.05114 31.8604 1.36244 29.0249L0.423979 27.4507C-0.228299 26.3573 -0.0529831 24.8659 0.444605 24.0181C0.900941 23.2375 1.93479 22.4388 3.0795 22.3405C3.41466 20.115 4.34538 18.1893 5.23743 16.5687C5.57517 15.9535 5.98252 15.3745 6.44659 14.8317C5.37665 14.0743 4.65734 12.8155 4.59547 11.642C4.53875 10.6003 4.93321 9.77576 5.35603 9.17867C5.0879 8.7651 4.83781 8.26624 4.69344 7.66656C4.28866 5.97609 5.17813 4.73021 5.65509 4.06074C5.70924 3.98578 5.77627 3.89014 5.83299 3.80743C5.57259 3.05266 5.66541 2.20484 6.1037 1.53279C6.63222 0.721161 7.56295 0.237799 8.59164 0.237799C9.18977 0.237799 9.75182 0.395472 10.2262 0.690141C10.7908 0.232629 11.5076 0 12.1598 0C12.5955 0 13.0261 0.103394 13.4051 0.299839C14.2585 0.741843 14.854 1.51211 15.0809 2.46849C15.3722 3.69887 14.9829 4.90339 14.5446 5.77706C14.8231 6.07173 15.1015 6.44136 15.3026 6.90662C16.1044 6.23199 17.1331 5.82359 18.2237 5.78223C18.2933 5.77964 18.3603 5.77706 18.4274 5.77706C19.6907 5.77706 20.856 6.2294 21.7764 7.06171C21.6784 6.78772 21.6088 6.48788 21.5702 6.1622C21.467 5.25234 21.6552 3.96252 22.9933 2.71406C23.05 2.12472 23.3104 1.56639 23.7358 1.14248C24.2205 0.656538 24.878 0.385135 25.5586 0.385135C25.6334 0.385135 25.7107 0.387722 25.7881 0.395476C26.0072 0.416155 26.5615 0.491114 27.1416 0.790953C27.5928 0.452342 28.1445 0.266236 28.7194 0.266236C28.8535 0.266236 29.0056 0.279161 29.1371 0.299839L29.4516 0.348952C30.0317 0.43942 30.5654 0.728912 30.9599 1.16575C31.7694 2.06009 32.1587 3.2 32.0504 4.3735C32.0066 4.87237 31.8726 5.35315 31.6611 5.79774C32.2799 6.5706 32.8368 7.75444 32.3882 9.37771C32.1948 10.0834 31.8597 10.6184 31.5039 11.0242C31.9267 11.9625 31.6895 12.9292 31.5606 13.3247C31.4368 13.6918 31.2435 14.0174 30.996 14.2914C32.7388 16.2714 33.9119 18.7477 34.3502 21.4048L34.5358 22.537L34.5384 22.5396C36.3869 23.1677 37.3847 25.1115 36.8613 27.063Z" fill="#FFFBF0"/>
<path d="M15.4289 29.4153L8.74116 29.2628C6.85909 29.2188 4.7321 29.6427 3.5745 27.6989L2.63862 26.1248C2.54065 25.9594 2.57159 25.4889 2.66698 25.3261C2.76237 25.1632 3.12332 24.9151 3.3141 24.9125L5.43852 24.8841L5.54938 23.403C5.70149 21.3997 6.53424 19.5594 7.49332 17.8172C9.14593 14.8188 13.3329 12.5235 16.8289 12.1435C16.1921 11.3164 16.0142 10.3212 16.4783 9.46566C16.865 8.75225 17.6152 8.39038 18.3191 8.36195C19.1209 8.33093 19.8196 8.64627 20.3378 9.28472C20.9772 10.0679 20.9643 11.1484 20.3507 11.9755C23.2408 12.2392 25.9943 13.1335 28.1522 15.0799C30.1117 16.8453 31.375 19.2285 31.8004 21.8237L32.2747 24.7057C32.7285 24.7548 33.2699 24.8376 33.7056 24.9849C34.3399 25.1994 34.5203 25.8198 34.3682 26.391C33.9738 27.8592 32.8755 28.9061 31.3389 29.0947C29.1165 29.3661 26.9405 29.4153 24.6846 29.317L17.2698 29.3661L15.4264 29.4178L15.4289 29.4153ZM14.8411 25.0547L18.2675 25.0185L31.4703 24.6359L30.9573 21.6918C30.2535 18.4065 28.209 15.6692 25.2105 14.2166C22.8309 13.0637 20.3223 12.7691 17.7158 13.0482C15.0706 13.33 12.7167 14.2476 10.5871 15.8346C7.4959 18.1377 7.11691 20.7897 6.22744 24.1138L6.00056 24.9642L14.8411 25.0598V25.0547Z" fill="#860909"/>
<path d="M8.66113 11.911C8.89832 12.1772 9.05559 12.9113 8.58121 12.9423C7.95213 12.9863 7.20446 12.1488 7.17095 11.5026C7.10907 10.3601 8.97051 9.70873 8.37237 8.87642C7.95729 8.29742 7.37462 7.79338 7.19931 7.06187C6.88992 5.77205 9.16387 4.95784 8.26151 2.94685C8.3698 2.78143 8.81582 2.77626 8.95504 2.96236C9.7517 4.00921 9.4449 5.02504 8.71269 6.11842C7.8258 7.43926 9.55318 7.91487 9.67693 9.02117C9.85482 10.5979 7.97276 11.1459 8.65855 11.9136L8.66113 11.911Z" fill="#860909"/>
<path d="M11.6029 12.3501C10.9635 12.0089 10.4169 11.3291 10.3989 10.6286C10.3679 9.34915 12.1366 8.99503 11.8891 8.21959C11.1955 7.65868 10.3937 7.13397 10.3318 6.14657C10.2571 4.93171 11.7369 4.3191 11.7834 2.78372C11.8117 2.67516 12.1185 2.54592 12.2216 2.6002C12.9281 2.96725 12.5645 4.27775 11.8246 5.29875C11.6416 5.55206 11.4662 5.9191 11.4791 6.20601C11.5204 7.01765 12.843 7.26579 13.0106 8.17823C13.1446 8.91232 12.6342 9.50166 12.1134 9.91006C10.9016 10.8561 12.3531 11.5333 11.6029 12.3527V12.3501Z" fill="#860909"/>
<path d="M25.4969 10.5825C26.175 11.4381 27.0593 11.6836 26.6958 12.2135C26.425 12.609 24.5842 11.619 24.2336 10.3266C23.8469 8.90236 26.1028 8.27942 25.5046 7.72886C24.9065 7.17829 24.2233 6.7001 24.1279 5.86779C24.0505 5.20091 24.6487 4.64001 25.1385 4.28072C25.5717 3.96279 25.6103 3.62159 25.551 2.97021C25.7418 2.98831 26.0151 3.08137 26.1182 3.20802C26.67 3.87749 25.9996 4.70721 25.3293 5.49041C24.7389 6.17797 26.4457 6.85002 26.6416 7.64614C27.0103 9.15826 24.7157 9.60544 25.4917 10.5825H25.4969Z" fill="#860909"/>
<path d="M29.1115 12.5083C28.9748 12.9218 27.8017 11.9603 27.3686 10.8023C26.8788 9.48663 28.6061 9.14285 28.9233 8.5897C29.4518 7.67467 27.8172 7.45497 27.4537 6.23493C27.2809 5.65852 27.7218 5.03558 28.1756 4.71506C29.1785 4.00424 28.4282 2.80489 28.7325 2.85141L29.047 2.90052C29.7173 3.64237 29.6116 4.70214 28.7892 5.33284C27.4537 6.79584 30.4289 6.76999 29.8978 8.69051C29.5343 10.0113 27.8688 9.87694 28.5185 10.9987L29.1476 12.0818C29.1862 12.1464 29.1321 12.4359 29.1063 12.5083H29.1115Z" fill="#860909"/>
<path d="M11.2549 18.5949C10.5665 18.0521 12.0593 16.7183 13.0725 16.0799C14.0857 15.4414 15.6094 14.5988 16.5762 15.1235C16.2926 15.4595 15.9961 15.6405 15.5862 15.7619C13.8923 16.2556 12.464 17.1862 11.2549 18.5975V18.5949Z" fill="#860909"/>
<path d="M8.79005 23.2554C8.69981 23.5216 8.5245 23.7413 8.27441 23.718C8.3234 22.3998 9.04271 20.0244 9.66921 20.12C9.79554 20.1407 10.0353 20.2983 10.1255 20.4017C9.5635 21.3349 9.15099 22.2008 8.79263 23.2554H8.79005Z" fill="#860909"/>
</svg>
