<svg width="25" height="32" viewBox="0 0 25 32" fill="none" xmlns="http://www.w3.org/2000/svg">
<path d="M25 16.0464V16.1282L24.9254 19.4019C24.9115 20.0675 24.9115 20.755 24.9115 21.4179C24.9115 23.0302 24.9115 24.697 24.7069 26.4157C24.3613 29.3347 21.9836 31.4708 19.0502 31.4926L11.7927 31.5499L6.18019 31.9809C6.02259 31.9945 5.865 32 5.71017 32C3.60342 32 1.80631 30.8624 1.01835 29.0292C0.105978 26.9095 -0.195384 23.5431 0.122565 19.0254C0.260804 17.0612 0.266335 15.0861 0.14192 12.8055C0.0672715 11.4169 0.133626 10.0992 0.202746 8.82251C0.233158 8.18414 0.266335 7.58397 0.280159 6.97834C0.340984 4.30486 2.22932 2.3052 4.87245 2.11696L8.2123 1.88235C9.03343 0.684738 10.1145 0.256435 10.9937 0.130945C11.5991 0.0436476 12.2019 0 12.7825 0C13.3935 0 13.9658 0.049103 14.4883 0.147313C15.5942 0.357372 16.2993 0.990281 16.7554 1.64501C16.7554 1.64501 20.0953 1.61773 20.1036 1.61773C22.5864 1.61773 24.7429 3.67468 24.8175 6.1081C24.8175 6.1081 24.9558 10.6639 24.9558 10.6858L25 16.0464Z" fill="#FFFBF0"/>
<path d="M19.0284 28.7649L11.6741 28.8222L5.96481 29.2614C4.91972 29.3406 3.9797 28.9368 3.56222 27.9629C2.61667 25.7668 2.69408 21.8521 2.87932 19.214C3.03691 16.9907 3.02309 14.8874 2.90144 12.6613C2.79914 10.7707 2.9982 8.92658 3.04244 7.0415C3.07009 5.81933 3.78617 4.93272 5.06902 4.83996L10.029 4.48805C10.2447 3.71874 10.5875 2.94397 11.3893 2.82939C12.1911 2.71481 13.156 2.67389 13.9633 2.82939C14.5992 2.94943 14.7678 3.85241 14.9946 4.38984L20.0873 4.34619C21.0992 4.338 22.0226 5.20825 22.053 6.19308L22.1913 10.708L22.2327 16.0686L22.1609 19.3423C22.1111 21.6284 22.2272 23.8517 21.9618 26.0996C21.7848 27.5919 20.5877 28.754 19.0284 28.7649ZM13.8748 4.36801C13.3799 3.26042 11.1211 3.49776 11.0658 4.45258L13.8748 4.36801ZM12.6473 26.0969L16.2885 26.0615L18.7021 25.906C20.2255 25.8077 20.3167 23.2106 20.1757 21.432C19.9712 18.873 19.8716 16.4151 19.9076 13.8453C19.938 11.7692 19.8993 9.7941 19.6919 7.74534C19.6477 7.31158 19.4514 6.87781 19.186 6.50134L10.0816 7.1288C8.71023 7.22428 7.44949 7.1588 6.08093 7.03058C5.94269 7.01694 5.65239 7.04695 5.63027 7.15335L5.55009 7.55437V12.4076L5.51415 19.9834L5.4395 21.432C5.37315 22.7469 5.41185 23.9963 5.81275 25.2458C5.95098 25.6822 6.31593 25.9551 6.78042 25.966L12.65 26.0996L12.6473 26.0969Z" fill="#860909"/>
<path d="M13.9022 10.6312H10.0702L7.39947 10.4566C7.11193 10.4376 6.93775 9.71735 7.16446 9.51275L12.4065 9.45273L17.1011 9.37361C17.5434 9.36543 18.1959 9.44454 18.5553 9.70371C18.8042 9.88376 18.2899 10.4294 17.9885 10.443L13.9022 10.6285V10.6312Z" fill="#860909"/>
<path d="M18.1352 16.764L16.421 16.8322C14.0737 16.9249 7.55439 17.1923 6.78578 16.5975C6.66137 16.4993 6.62266 16.172 6.63096 15.8773L10.5956 15.9046C12.5725 15.9183 14.4497 15.9592 16.4238 15.8337C17.1233 15.79 17.9029 15.82 18.5582 16.0983C18.7379 16.1747 18.3342 16.7558 18.1379 16.764H18.1352Z" fill="#860909"/>
<path d="M12.8237 18.6465L7.16424 18.6629L6.63894 18.4501C6.49517 18.3928 6.45923 17.9563 6.54494 17.7817C8.17615 17.558 9.87925 17.5253 11.516 17.719L13.7223 17.9782C13.5702 18.4556 13.2882 18.5347 12.8237 18.6465Z" fill="#860909"/>
<path d="M9.84065 20.1797C8.6048 20.207 6.97358 20.2343 6.32662 19.7814C6.25474 19.7323 6.40404 19.3776 6.48698 19.3749L9.77153 19.2549L13.4819 19.3886C13.2883 19.9451 12.7907 20.1142 12.3096 20.1251L9.83788 20.1824L9.84065 20.1797Z" fill="#860909"/>
<path d="M13.8024 20.9617C13.1056 22.1511 10.0533 21.4337 7.01485 21.6819C6.85725 21.6956 6.5946 21.5019 6.59184 21.3709C6.57801 20.708 10.316 20.6316 11.9251 20.7844L13.8024 20.9617Z" fill="#860909"/>
<path d="M9.64674 14.0272L9.23756 12.8869C9.05785 13.4243 8.95279 13.929 8.48554 14.2509C8.15377 14.0163 7.97406 13.4679 7.91323 13.056L7.0368 14.5728C6.85156 14.4855 6.70226 14.1636 6.75479 14.0217L7.53722 11.9211C7.72523 11.8502 8.18694 11.8829 8.24777 12.033L8.54913 12.775L8.86432 12.0112C8.90302 11.9157 9.20715 11.8366 9.30945 11.8639C9.43663 11.8993 9.7131 12.0957 9.74628 12.2267L10.1803 13.8908C10.1997 13.9672 10.0393 14.2072 9.99234 14.27C9.94534 14.3327 9.67163 14.1145 9.64398 14.0326L9.64674 14.0272Z" fill="#860909"/>
<path d="M12.6383 23.3844L7.15027 23.278L6.82402 22.9398C6.41484 22.5169 9.91228 22.4105 11.6458 22.6097L13.3461 22.8034C13.3738 23.1526 13.0309 23.3408 12.6383 23.3817V23.3844Z" fill="#860909"/>
<path d="M13.3465 12.8352C13.2746 13.4708 13.2746 13.7982 13.0728 14.3002C12.6968 13.6127 12.6498 12.7288 12.8461 12.0359C13.5511 11.864 14.035 12.4615 14.516 12.9443C14.5409 12.5242 14.469 12.0032 14.7704 11.5803C14.8976 11.4003 15.257 11.8831 15.2432 12.1341L15.1685 13.7109C15.163 13.82 14.9556 14.0601 14.8644 14.1119C14.751 14.1747 14.4358 14.0465 14.3391 13.9401L13.3465 12.8379V12.8352Z" fill="#860909"/>
<path d="M16.028 11.7528C16.5588 12.3694 16.4621 13.9216 17.2611 13.6788C18.1375 13.4115 17.38 12.2575 18.0131 11.6191C18.7264 12.574 18.4057 14.0962 17.38 14.3799C17.0979 14.4563 16.5008 14.3172 16.357 14.0826C15.9174 13.3787 15.6769 12.6776 16.0307 11.7528H16.028Z" fill="#860909"/>
<path d="M11.2012 13.5151L12.1772 13.7197C12.05 14.3089 11.1736 14.7072 10.7146 14.2325C10.2557 13.7579 10.2474 12.6666 10.5543 12.1674C11.1349 11.8946 11.8537 11.7691 12.3845 12.0883L10.8971 12.6912L12.0832 13.0458L11.2012 13.5151Z" fill="#860909"/>
<path d="M17.9415 20.1001L16.1417 20.152C15.8624 20.1601 15.5555 19.7509 15.6578 19.4481C16.6034 19.2817 17.5932 19.2462 18.6161 19.4099C18.5664 19.7073 18.1987 20.0919 17.9415 20.1001Z" fill="#860909"/>
<path d="M18.6575 18.0928C18.3367 18.6329 16.4899 18.502 15.9259 18.3247C15.8346 18.2946 15.8125 18.101 15.8125 17.9154C16.6972 17.7245 17.6815 17.7027 18.6575 18.0928Z" fill="#860909"/>
<path d="M18.3781 21.1041C18.1127 21.7779 16.2492 21.7943 15.6299 21.2759C16.4814 20.6758 17.4906 20.7249 18.3781 21.1041Z" fill="#860909"/>
<path d="M18.3649 22.8175C18.0387 23.6304 17.1899 23.3358 16.5651 23.2976L16.0951 23.2676C15.9706 23.2594 15.9596 22.8557 16.0121 22.6865L18.3622 22.8175H18.3649Z" fill="#860909"/>
</svg>
