<svg width="289" height="289" viewBox="0 0 289 289" fill="none" xmlns="http://www.w3.org/2000/svg">
<g filter="url(#filter0_d_853_3328)">
<path d="M272.072 43.9544L271.078 44.9489C272.271 49.7222 273.067 54.8933 273.663 60.4622L275.652 82.1411L278.238 109.19C280.227 130.272 274.857 147.575 262.128 160.105L238.659 183.574L221.356 199.883L194.506 225.739L161.49 256.765L140.01 276.654C134.242 282.024 126.883 285.008 118.928 285.008C106.796 285.008 94.6635 278.444 80.7413 264.522L38.1791 221.96L18.4891 198.491C11.7269 190.337 -9.55418 162.293 4.96469 140.217C19.0858 118.737 36.7869 101.632 53.8913 85.3233L78.5535 61.6555C82.9291 57.4788 87.3046 53.1033 91.6802 48.9266C103.415 37.59 115.348 25.6567 128.475 14.5189C138.22 6.16559 150.352 2.18779 165.667 2.18779C180.981 2.18779 177.998 2.78447 183.964 3.38113L233.488 8.55225C235.278 8.55225 236.869 8.95002 238.46 9.34779L241.046 7.16001C246.217 2.58557 252.78 0 259.144 0C265.509 0 274.061 3.58 279.033 9.94444L285 17.9L282.216 27.4467C280.624 33.0156 276.647 39.5789 272.271 43.9544H272.072Z" fill="white"/>
</g>
<path d="M150.949 120.924C146.375 125.101 139.811 128.681 133.447 128.084C120.917 126.692 115.149 113.764 118.729 102.627C122.309 91.4888 123.701 92.4833 128.276 90.2955C137.623 85.5222 151.546 91.6878 155.722 102.229C159.899 112.77 156.717 115.753 150.949 120.924ZM146.971 110.98C148.364 107.002 144.585 102.428 142.198 100.439C139.811 98.4499 134.441 96.66 130.861 98.2511C127.281 99.8422 125.69 104.417 125.491 107.798C125.292 111.179 126.287 115.355 129.867 117.543C135.635 120.924 144.386 118.339 146.971 110.98Z" fill="#860909"/>
<path d="M142.596 195.309C135.833 196.9 131.259 194.911 127.48 190.535C121.911 184.171 120.32 176.613 124.099 168.657C127.878 160.702 138.817 153.343 148.761 157.321C158.706 161.299 164.871 171.84 160.496 182.182C156.12 192.524 150.352 193.717 142.795 195.309H142.596ZM153.932 179.199C154.728 170.845 148.96 166.271 141.402 166.072C137.623 166.072 134.441 169.055 133.049 171.84C131.259 176.016 131.856 179.994 134.242 183.574C140.806 187.154 149.159 185.364 153.733 179.199H153.932Z" fill="#860909"/>
<path d="M125.889 150.36C112.961 151.951 92.0778 157.719 88.4978 153.343C84.9178 148.968 92.0778 143.001 103.414 141.609L151.744 135.443L183.567 131.466C184.959 131.466 187.544 132.261 188.738 132.659C189.931 133.057 191.522 136.836 190.329 137.83C185.754 141.808 179.39 143.996 173.224 144.791L125.889 150.559V150.36Z" fill="#860909"/>
<path d="M112.762 240.854C92.2768 227.131 70.0013 199.883 55.2835 179.795C40.5658 159.708 41.1625 157.52 48.5213 147.575C59.2613 133.056 71.3935 120.526 83.9235 107.599L101.028 90.0965L122.508 68.6164C129.867 61.2576 137.623 54.8932 146.375 49.5232C155.126 44.1532 165.866 43.9543 174.617 50.1198C183.368 56.2854 189.334 61.8543 195.898 69.0142C207.433 81.7431 217.975 94.472 227.919 108.394C237.863 122.316 232.692 135.244 220.958 148.769C199.279 173.63 176.208 196.303 152.341 219.175C128.475 242.047 126.685 249.804 113.359 240.655L112.762 240.854ZM121.116 234.291L133.447 224.744L179.987 178.005L215.787 141.41C225.134 131.863 225.134 118.339 217.577 107.996C206.24 92.4831 193.909 78.5609 180.981 64.4398C172.827 55.4898 162.087 48.3298 151.943 54.6942C141.8 61.0587 134.441 68.6165 126.088 76.3732L96.4535 104.019C87.7024 112.173 80.3435 121.322 71.9902 129.874C63.6368 138.426 61.4491 141.012 57.8691 148.172C54.2891 155.332 54.2891 167.464 59.858 175.022C73.3824 193.121 88.498 209.032 105.205 223.949C121.911 238.865 114.95 231.904 121.116 234.092V234.291Z" fill="#860909"/>
<path d="M126.685 262.135C117.735 270.489 104.409 259.947 95.0613 250.6L53.0958 208.634L33.8036 185.762C25.6492 176.215 16.1025 159.708 21.6714 151.155C34.7981 131.266 51.5047 115.355 68.6092 98.8477L92.4758 75.7766C108.785 60.0644 124.298 44.1533 141.402 29.4355C152.54 19.8889 167.059 21.4799 181.777 22.8722L231.101 28.0433C235.278 28.4411 238.858 29.6344 242.637 31.4244L253.775 21.6789C256.36 19.2922 260.139 18.0989 262.725 21.6789C262.128 24.0655 259.94 27.6455 257.951 29.6344L248.405 39.1811C251.587 47.1366 252.979 54.2966 253.775 62.2522L255.763 83.931L258.349 110.98C259.542 124.305 257.553 136.438 248.007 145.984L224.737 169.254L207.434 185.563L180.782 211.419L147.767 242.445L126.486 262.135H126.685ZM220.759 160.105L242.836 138.029C249.001 131.863 250.592 124.305 249.797 115.753L248.007 97.8532L246.813 65.4344C246.615 58.4733 245.62 52.3077 240.847 46.54L231.897 55.49C234.283 62.4511 232.294 68.4177 227.72 73.3899C223.146 78.3622 214.792 78.7599 209.82 73.3899C204.848 68.0199 203.853 59.8655 208.229 53.8988C212.605 47.9321 219.168 47.7333 225.135 49.5233L232.891 40.971C208.428 36.7944 184.362 33.8111 160.098 32.0211C135.833 30.2311 149.358 35.9989 145.181 39.38C137.425 45.9433 129.668 50.9155 122.508 58.0755L40.7648 141.012L30.4225 151.951C27.2403 155.133 27.0414 160.105 29.2292 164.282C32.6103 170.845 36.3892 177.21 41.5603 182.381L70.797 212.214L85.1169 227.529C93.6691 236.479 112.961 258.555 119.127 256.765C125.292 254.975 122.906 254.776 124.298 253.384L180.385 198.093L198.086 181.386L220.759 160.702V160.105ZM217.776 66.8266C216.383 66.8266 214.991 62.2521 215.787 61.0588L219.963 55.0922C216.185 55.0922 213.798 55.6888 212.207 57.6777C210.616 59.6666 210.815 62.451 212.008 65.0366C213.201 67.6221 216.781 71.0032 219.963 70.6054C224.737 70.0088 228.715 65.4344 227.919 60.4622C224.936 63.0477 222.151 66.4288 217.975 67.0255L217.776 66.8266Z" fill="#860909"/>
<defs>
<filter id="filter0_d_853_3328" x="0" y="0" width="289" height="289.008" filterUnits="userSpaceOnUse" color-interpolation-filters="sRGB">
<feFlood flood-opacity="0" result="BackgroundImageFix"/>
<feColorMatrix in="SourceAlpha" type="matrix" values="0 0 0 0 0 0 0 0 0 0 0 0 0 0 0 0 0 0 127 0" result="hardAlpha"/>
<feOffset dx="4" dy="4"/>
<feColorMatrix type="matrix" values="0 0 0 0 0 0 0 0 0 0 0 0 0 0 0 0 0 0 1 0"/>
<feBlend mode="normal" in2="BackgroundImageFix" result="effect1_dropShadow_853_3328"/>
<feBlend mode="normal" in="SourceGraphic" in2="effect1_dropShadow_853_3328" result="shape"/>
</filter>
</defs>
</svg>
