<svg width="53" height="56" viewBox="0 0 53 56" fill="none" xmlns="http://www.w3.org/2000/svg">
<path d="M35.207 3.25H36.2354L36.5625 3.25684C37.4295 3.28374 39.0032 3.39907 40.6768 3.70801C43.429 4.21722 45.2138 5.00542 46.3525 6.15625L46.3535 6.15723L46.3584 6.16113C47.2503 7.06158 47.7298 8.21955 47.7178 9.41211V13.6074C47.7134 15.673 46.5728 17.4153 44.8574 18.2852L44.7617 18.333L44.7305 18.4365C44.2361 20.0843 43.6907 21.6782 43.1523 23.2383C42.8475 24.1232 42.5376 25.0155 42.2402 25.916V25.917L39.7129 33.6025C38.9884 35.8012 38.0824 37.816 37.2041 39.7764V39.7783C36.8876 40.4957 36.5586 41.2203 36.2402 41.959L36.1348 42.1992V42.2012C35.1804 44.4238 34.2839 46.5012 32.9219 48.6787C32.2236 49.7943 30.4422 52.6317 26.8555 52.75H26.7197L26.4258 52.7402C24.9665 52.6406 23.608 51.7929 22.3926 50.1504H22.3916C19.7676 46.5909 16.4061 39.9724 14.9131 35.4092L10.5967 22.2119V22.21L10.5684 22.123L10.5654 22.1133L10.0986 20.5156L10.0605 20.3828L9.92871 20.3447L9.57031 20.2275C8.73245 19.9189 7.89528 19.3573 7.32227 18.3232L7.32129 18.3223C6.65868 17.1345 6.20705 15.8894 5.80371 14.7686V14.7676L5.68066 14.4326C4.72636 11.8109 5.52951 9.06756 7.57422 7.7334C9.15411 6.70638 11.7233 5.85186 14.2676 5.21777C16.8044 4.58557 19.2833 4.17996 20.6611 4.03711C26.1732 3.46558 30.1164 3.25 35.207 3.25ZM37.8789 15.1084C33.9448 14.7216 30.1088 14.948 26.2471 15.3682C25.6588 15.4319 25.0696 15.5002 24.4795 15.5713L22.7061 15.793L15.5 16.708L15.3916 16.7217L15.3281 16.8105C14.9328 17.3639 14.6081 17.9831 14.3672 18.6709L14.3389 18.7529L14.3662 18.835C15.4103 21.8869 16.145 24.8123 16.9824 27.8008C17.4832 29.5874 18.019 31.4 18.6875 33.2607L18.6904 33.2686C18.9031 33.8044 19.1198 34.332 19.3359 34.8574C19.8516 36.1116 20.3752 37.3498 20.9238 38.5811L21.4814 39.8096C21.9663 40.8643 22.4763 41.9103 23.0117 42.96L23.0127 42.9609C23.7486 44.3896 24.6569 45.6602 25.7285 46.792V46.791C25.9598 47.0354 26.211 47.1932 26.4795 47.2627C26.7484 47.3322 27.0158 47.3092 27.2695 47.2236C27.7663 47.056 28.2291 46.6441 28.6289 46.1758C29.4342 45.2323 30.0857 43.9329 30.3428 43.3652V43.3643L32.8271 37.8535C34.0216 35.1936 35.2208 32.5623 36.2666 29.8672V29.8662C36.6976 28.7485 37.1 27.6201 37.4678 26.4736L37.4785 26.5049L37.7061 25.749C37.8889 25.1408 38.0635 24.5314 38.2256 23.9131L40.4473 15.4209L40.5293 15.1084H37.8789ZM21.7588 17.6787C22.8319 17.723 23.8258 18.2116 24.458 19.0596L23.1357 19.2227H23.1348L18.6328 19.7949L18.3389 19.832L18.3398 19.835L18.3389 19.8359L18.4258 20.1201C18.9035 21.6802 19.3222 23.2075 19.7334 24.7168V24.7178L19.7949 24.9424C19.7292 24.9088 19.6637 24.8741 19.5996 24.8359H19.6006C18.2965 24.0374 17.7538 22.6542 17.8398 21.2842C17.8529 21.0791 17.8801 20.8743 17.9209 20.6719L17.9941 20.3633V20.3623C18.1623 19.7443 18.4077 19.263 18.7451 18.8809C19.0825 18.4989 19.5231 18.2029 20.1006 17.9727L20.1885 17.9375C20.7088 17.7432 21.2423 17.6585 21.7588 17.6787Z" fill="white" stroke="#1F1F1F" stroke-width="0.5"/>
<path d="M37.8599 15.345C33.9511 14.9634 30.1313 15.1839 26.2734 15.6036C25.5993 15.044 24.8235 14.6158 23.9714 14.3317C23.2337 14.0816 22.4367 13.9502 21.61 13.9502C20.6222 13.9502 19.6471 14.141 18.7187 14.5098C18.1336 14.743 17.6079 15.027 17.1331 15.3662C16.5057 15.8028 15.9715 16.3328 15.5306 16.9475C15.149 17.4816 14.8353 18.0794 14.6021 18.745C14.5216 18.9527 14.458 19.1647 14.3987 19.3852C14.068 20.6061 14.0256 21.8271 14.2375 22.9802C14.3605 23.6755 14.581 24.3411 14.8862 24.9643C15.4161 26.0496 16.2089 27.0034 17.2264 27.7284C17.7266 29.5174 18.2608 31.3234 18.9264 33.1718C19.1384 33.7018 19.3546 34.2317 19.5708 34.7574C19.6174 36.1098 20.0456 37.4706 20.8299 38.6322C21.0885 39.0223 21.3853 39.3741 21.7075 39.6963C22.1908 40.752 22.6953 41.7991 23.2337 42.842C23.9544 44.2537 24.8532 45.5001 25.9088 46.6151C27.5538 48.3533 29.6056 44.3767 30.1144 43.2575L32.5987 37.7462C33.7985 35.0881 34.9898 32.4596 36.0327 29.7718C36.9272 28.6314 37.4317 27.1942 37.4614 25.6595C37.6437 25.0533 37.8175 24.4471 37.9786 23.8323L40.2001 15.3407H37.8599V15.345Z" fill="white"/>
<path d="M36.2152 6.47629C30.5936 6.44662 26.5534 6.66283 20.9912 7.24363C18.0618 7.54463 11.7237 8.87582 9.33267 10.4359C8.39999 11.0422 8.35759 12.3606 8.70947 13.3315C9.13766 14.5016 9.54464 15.6886 10.1382 16.7612C10.5536 17.5158 11.8594 17.3462 12.5462 17.4013L13.6612 21.2126L14.242 22.9889L14.8906 24.973L17.9812 34.41C19.2954 38.429 22.4835 44.8475 24.989 48.2348C25.3664 48.7435 26.0404 49.5533 26.7527 49.5321C28.5036 49.4727 29.4447 48.1755 30.1951 46.9715C31.4754 44.9281 32.3403 42.8804 33.2815 40.6886C34.4558 37.9669 35.7234 35.419 36.6518 32.5997L39.1828 24.9136C40.2088 21.7892 41.3449 18.83 42.1674 15.6462C43.418 15.748 44.4906 14.8619 44.4949 13.607V9.39303C44.5161 7.06982 37.8643 6.48901 36.2194 6.48053L36.2152 6.47629ZM37.9788 23.8368C37.8177 24.4515 37.6439 25.0578 37.4616 25.664C37.0376 27.0588 36.5543 28.4239 36.0329 29.7763C34.99 32.4641 33.7944 35.0883 32.5989 37.7507L30.1146 43.262C29.6058 44.3854 27.5539 48.3578 25.909 46.6196C24.8534 45.5046 23.9588 44.254 23.2339 42.8465C22.6997 41.7993 22.191 40.7564 21.7077 39.7051C20.9531 38.0729 20.2536 36.4322 19.5668 34.7619C19.3505 34.2362 19.1343 33.7105 18.9224 33.1763C18.2568 31.3237 17.7226 29.5177 17.2223 27.7329C16.3872 24.7525 15.6495 21.8146 14.6023 18.7537C14.42 18.2238 14.2293 17.6896 14.0258 17.147L15.5308 16.9562L22.7379 16.0405C23.9207 15.8879 25.0993 15.7437 26.2736 15.6165C30.1315 15.1968 33.9513 14.9721 37.8643 15.3579H40.2045L37.983 23.8495L37.9788 23.8368ZM43.2358 12.9457C43.117 13.8953 42.0233 14.1285 41.2771 14.0522C37.8262 13.7257 34.5236 13.5222 31.0515 13.6961C28.6604 13.819 26.316 14.0395 23.9673 14.3362C21.7035 14.6203 19.4438 14.9764 17.1291 15.3664C17.0612 15.3749 16.9934 15.3918 16.9256 15.4003C15.4714 15.6462 12.2537 16.1634 11.1387 15.7395C10.6427 14.3871 8.83241 11.5806 10.9479 10.8896C14.8737 9.605 18.8672 8.85462 23.0262 8.54514L27.7193 8.19751L30.9413 7.84563C33.2942 7.59127 39.9756 7.78628 42.2691 8.64689C43.6088 9.15138 43.3799 11.7502 43.2315 12.9372L43.2358 12.9457Z" fill="#860909"/>
<path d="M23.6296 24.8501C23.4091 25.0155 23.1802 25.1511 22.9258 25.2656C22.1203 25.6387 21.0774 25.6726 20.1786 25.3716C19.9285 25.291 19.6911 25.185 19.4749 25.0536C17.7579 24.0022 17.2873 22.0139 17.7579 20.297C18.1098 19.0039 18.8008 18.2239 20.0133 17.7406C21.8744 16.9987 23.9603 17.6176 24.9057 19.2668C25.1049 19.6102 25.2491 20.0002 25.3381 20.4326C25.3381 20.4453 25.3466 20.4623 25.3466 20.475C25.6645 22.1284 24.9904 23.8751 23.6381 24.8544L23.6296 24.8501Z" fill="#860909"/>
<path d="M33.019 27.9406C32.7265 28.2247 32.3704 28.4621 31.938 28.6232C31.141 28.9242 30.3185 28.903 29.5808 28.6444C29.3222 28.5554 29.0636 28.4324 28.8304 28.2798C28.8304 28.2798 28.8304 28.2798 28.822 28.2798C28.1903 27.8813 27.6731 27.2878 27.3636 26.5713C27.3042 26.4356 27.2576 26.3 27.2194 26.1601C26.787 24.6169 27.4526 22.7982 28.8601 21.963C28.9534 21.9037 29.0509 21.8528 29.1526 21.8062C30.1362 21.3525 31.107 21.2805 32.1076 21.7892C32.8537 22.1665 33.354 22.9339 33.7228 23.9725C33.8669 24.371 33.9475 24.7823 33.9729 25.1892C34.0408 26.2279 33.7313 27.2369 33.019 27.9406Z" fill="#860909"/>
<path d="M28.873 37.0769C28.1904 37.9629 27.2238 38.3529 26.1428 38.2342C25.5535 38.1706 25.0193 37.9375 24.5657 37.6025C23.5143 36.814 22.9038 35.4277 23.0564 34.1262C23.0776 33.9566 23.1115 33.787 23.1582 33.6217C23.3998 32.7823 24.1121 31.7818 25.1253 31.4342C25.8587 31.1798 26.5837 31.184 27.2365 31.3875C27.546 31.485 27.8385 31.6292 28.1099 31.8115C28.5041 32.0743 28.8476 32.4262 29.1231 32.8417C29.9498 34.0753 29.8862 35.7499 28.8645 37.0769H28.873Z" fill="#860909"/>
<path d="M24.3755 10.801C24.3035 10.89 23.905 10.678 23.9092 10.5593C23.9177 10.3982 23.9898 9.95734 24.1085 9.99549L24.6172 10.1608C24.7613 10.2075 24.5239 10.6144 24.3755 10.801Z" fill="#860909"/>
<path d="M13.0644 13.5602C13.0856 13.4755 13.5223 13.6026 13.5053 13.6832L13.4036 14.0902C13.3739 14.2004 12.9288 14.0902 12.9585 13.9799L13.0644 13.556V13.5602Z" fill="#860909"/>
<path d="M33.4561 8.88455C33.4518 8.79976 33.8461 8.82519 33.9097 8.88455C33.9945 8.96086 33.9733 9.16011 33.9139 9.2661C33.8546 9.37209 33.5748 9.51623 33.5409 9.406C33.507 9.29578 33.4603 9.00325 33.4561 8.88879V8.88455Z" fill="#860909"/>
<path d="M29.0724 9.63845C29.102 9.5367 29.5896 9.49855 29.5599 9.59606L29.42 10.0242C29.3607 10.2108 29.0173 9.8165 29.0724 9.63845Z" fill="#860909"/>
<path d="M22.2257 12.5431C22.2426 12.471 22.6496 12.4286 22.6539 12.5007L22.6708 12.9246C22.6751 13.0348 22.3995 13.0518 22.2935 13.0136C22.1875 12.9755 22.2003 12.666 22.2257 12.5431Z" fill="#860909"/>
<path d="M17.4562 13.2384C17.4478 13.1748 17.7403 13.1663 17.7572 13.2256L17.8505 13.5605C17.8759 13.6496 17.5156 13.7301 17.5029 13.6369L17.4562 13.2426V13.2384Z" fill="#860909"/>
<path d="M20.076 10.5461C20.1312 10.5249 20.394 10.5673 20.377 10.6224L20.2711 10.97C20.2456 11.0591 20.0167 10.9361 19.9446 10.8852C19.8725 10.8344 19.9955 10.5758 20.0803 10.5461H20.076Z" fill="#860909"/>
<path d="M35.9202 11.5033C35.9838 11.5033 36.3145 11.4821 36.395 11.4736C36.501 11.4609 36.3653 11.7026 36.2933 11.7704L35.9711 12.0587C35.899 12.1223 35.8227 11.5075 35.9202 11.5075V11.5033Z" fill="#860909"/>
</svg>
