<svg width="34" height="32" viewBox="0 0 34 32" fill="none" xmlns="http://www.w3.org/2000/svg">
<path d="M31.6062 16.343L27.2141 20.8647L28.0571 25.673C28.4154 27.724 27.4906 30.0719 25.8559 31.2526C25.228 31.7065 24.4772 31.9454 23.6821 31.9454C22.5457 31.9454 21.4776 31.4437 20.8565 30.9762C19.7201 30.1197 17.9319 28.956 16.4713 28.1028L11.5162 31.2765C10.9701 31.6246 10.0385 32 9.07273 32C8.1991 32 7.36643 31.6963 6.72145 31.1468C6.48256 30.9421 6.28463 30.7407 6.0321 30.4848L5.90242 30.3517C5.26085 29.7033 4.90594 28.8229 4.91618 27.9117C4.92642 27.1643 5.00149 26.5023 5.07316 25.8607L5.67378 20.4279L2.14514 17.5647C0.292099 16.0631 -0.431374 13.8313 0.25456 11.7428C0.612883 10.6576 1.48992 9.82148 2.59219 9.52117C4.85475 8.90007 7.30841 8.35406 10.076 7.86606L11.7721 4.5217C11.8369 4.39885 11.9223 4.17362 12.0042 3.95521C12.2942 3.18396 12.6935 2.12947 13.6013 1.1637C14.3043 0.412925 15.2666 0 16.3109 0C18.1844 0 19.9043 1.41964 20.4811 2.79492L22.1567 6.77743C22.3171 7.16306 22.457 7.49749 22.6003 7.80463L29.2173 8.66119C30.4118 8.81476 32.5617 9.65426 33.0395 11.8247C33.4183 13.5378 32.5924 15.3294 31.6062 16.343Z" fill="white"/>
<path d="M22.9074 28.2492C21.2114 26.9695 18.0377 24.9561 16.287 24.1234C16.1232 24.0449 15.8263 24.4613 15.6454 24.5773L9.67677 28.4028C9.52321 28.5018 9.06251 28.6588 8.93965 28.553C8.78608 28.4233 8.62228 28.2492 8.33221 27.9558C8.33903 27.2766 8.42435 26.6419 8.50284 25.9389L9.27409 18.9533L4.29851 14.9162C3.68765 14.4214 3.22354 13.6535 3.50337 12.8106C6.14132 12.0871 8.82704 11.5343 11.5298 11.077C12.11 10.978 12.4785 10.6846 12.7276 10.1966L14.823 6.06731C15.2496 5.2244 15.4202 4.21768 16.0959 3.49762C16.386 3.18707 17.205 3.78769 17.3449 4.11871L18.8635 7.72584C19.3515 8.88612 19.7474 9.94062 20.5527 10.978L28.7908 12.0428C29.0433 12.0769 29.661 12.3056 29.7156 12.5547C29.8043 12.9642 29.4733 13.6467 29.1696 13.9607L23.5627 19.7348L24.7059 26.2597C24.8424 27.0378 24.4431 28.0718 23.8698 28.4847C23.665 28.6315 23.102 28.3823 22.9211 28.2492H22.9074ZM17.3722 22.7447L22.9859 25.9218L21.7608 20.1648C21.5902 19.2775 21.8905 18.7008 22.5048 18.1138L27.3131 13.5443C25.2621 13.1587 19.8634 13.5819 19.1433 11.8039C17.9353 9.54475 17.5565 7.39822 16.4644 5.51105L14.0551 10.3262C13.7002 11.0326 13.417 12.169 12.615 12.4898C10.5879 13.3054 8.56085 13.6194 6.32901 14.1722L9.94978 17.7691C10.3183 18.1343 10.5914 18.4653 10.5094 19.0523C10.1784 21.4684 9.98391 23.789 9.85082 26.2802L15.1199 22.8505C15.8263 22.3591 16.6283 22.3011 17.3756 22.7413L17.3722 22.7447Z" fill="#860909"/>
</svg>
