<svg width="53" height="56" viewBox="0 0 53 56" fill="none" xmlns="http://www.w3.org/2000/svg">
<path d="M38.3691 3.25C38.8721 3.25 39.3754 3.33791 39.8662 3.51758C41.5803 4.14371 43.0951 5.6708 43.8164 7.48047L43.8906 7.66504L44.0869 7.63477C44.3181 7.5992 44.5505 7.57812 44.7803 7.57812C45.7964 7.57813 46.8124 7.93254 47.6221 8.62402C49.0431 9.84021 49.9565 11.7907 49.9922 13.7158C50.0144 14.9098 49.7075 16.0187 49.1191 16.9521L49.0078 17.1289L49.1611 17.2695C49.359 17.4509 49.5435 17.6509 49.7178 17.8662L49.8887 18.0869C51.085 19.7188 51.4086 22.0551 51.2354 24.5967C51.0625 27.1318 50.3993 29.8267 49.6709 32.1318C47.9109 37.7051 44.3083 42.4107 39.4609 45.5078L39.3516 45.5781L39.3467 45.709C39.2966 46.9695 39.0196 49.1187 37.0439 50.6738C36.6145 51.0112 36.1281 51.2651 35.6113 51.4229L35.3887 51.4844C33.0219 52.0666 30.7728 52.3239 28.583 52.4941L26.4111 52.6445L25.8281 52.6807L25.8262 52.6816C25.3587 52.714 24.8353 52.7489 24.2676 52.749C23.0393 52.7488 21.9786 52.5679 21.0273 52.1973C17.6247 50.8671 16.8389 48.2885 16.5967 46.8984L16.5752 46.7754L16.4639 46.7188L15.7227 46.3213C8.13246 42.0889 2.94744 33.9212 1.75391 24.1514V24.1504C1.51329 22.1937 2.61196 20.3459 4.38086 19.5928L4.47949 19.5508L4.51758 19.4502L4.71191 18.9268C5.67202 16.3309 7.72878 15.413 9.05762 15.0391L9.14355 15.0156L9.19531 14.9424C11.0778 12.2622 13.4411 11.7788 15.2979 11.6836L15.3896 11.6787L15.457 11.6162L16.5449 10.5928C18.0276 9.19956 19.99 8.48535 22.3955 8.48535H22.7861L22.8438 8.45215C23.9141 7.83656 25.556 6.9668 27.7139 6.9668C29.2138 6.9668 30.6907 7.4097 32.0469 8.26562L32.2393 8.38672L32.3779 8.20801L34.9102 4.94434C35.7551 3.85434 37.0423 3.25007 38.3691 3.25Z" fill="white" stroke="#1F1F1F" stroke-width="0.5"/>
<path d="M22.6171 48.1168C19.5066 46.904 22.2376 44.6406 18.9558 43.0622C11.3599 39.4193 7.09676 31.7541 6.10156 23.6167L7.81423 23.1584L8.81867 20.4413C9.48522 18.6408 11.6469 19.5711 12.2579 18.3491C13.5308 15.7894 14.7991 16.081 17.1505 16.0348L19.5436 13.7852C20.599 12.7946 22.1219 12.7992 23.4827 12.9196C24.6492 13.0214 27.0793 9.73499 30.2778 12.3827C30.6898 12.7252 31.31 12.9983 31.8192 13.0585L33.9577 13.3177L38.369 7.62891C39.2994 7.96681 40.3316 9.51745 39.6928 10.4525C38.7717 11.8041 37.5682 13.0307 36.4804 14.3545C37.4617 14.6184 38.1514 14.8822 39.1281 15.5302L44.7799 11.9522C45.5066 12.5724 45.9926 14.1277 45.2289 14.8313C44.3864 15.6089 43.2385 16.1135 42.234 16.8031C42.521 18.2982 44.9696 16.8541 44.9789 20.159C48.6125 19.5758 46.062 29.0185 45.4927 30.8098C43.9421 35.7255 40.7204 39.7711 36.2629 42.3215C34.0225 43.6037 35.7305 46.131 34.3326 47.2281C31.4489 47.9409 28.7179 48.0983 25.811 48.2927C24.7325 48.3621 23.5661 48.4871 22.6125 48.1168H22.6171ZM10.0685 21.3995L9.02697 23.1399L27.6949 21.5939L32.3932 15.2942C31.199 15.1784 30.3241 14.9007 29.4678 14.3545C27.0238 11.892 25.2926 14.8868 23.492 14.7387C22.5153 14.66 21.2748 14.3314 20.5342 15.0396L18.4883 16.9883C16.5349 18.8444 14.6371 16.8679 13.9937 18.8444C13.4243 20.5895 11.832 21.3902 10.0731 21.3995H10.0685ZM37.2858 16.7615C36.6285 16.0857 36.0546 15.7848 35.3741 15.6089L30.3426 21.4134L37.2858 16.7615ZM43.1135 19.6637C42.1877 19.4184 41.299 18.6963 40.651 17.7011L34.7585 21.0107L42.7108 20.446C42.8774 20.4321 43.2477 20.321 43.2292 20.2192L43.1135 19.6683V19.6637ZM9.33247 30.3747L15.0166 29.8979L44.8771 28.2501C45.4094 26.306 45.6964 24.2971 45.5297 22.4271L41.1972 22.6585L27.8523 23.3575C24.1678 23.5519 20.6638 23.8065 16.9793 24.1536L8.02715 25.0007C8.07344 26.8661 8.54557 28.7963 9.33709 30.3701L9.33247 30.3747ZM25.4222 43.2843C32.0182 44.0203 38.2209 40.8589 41.7665 35.2858L18.1179 36.1653L12.9522 36.3643C16.2294 40.0905 20.3675 42.7196 25.4222 43.2843ZM22.9643 46.6541C26.6488 46.8624 29.8844 46.7004 33.4347 46.0847L33.6707 43.5852C29.0928 44.7933 26.7229 45.2793 22.0293 44.298C22.0293 44.997 22.2561 46.2375 22.9643 46.6541Z" fill="#860909"/>
</svg>
