<svg width="53" height="56" viewBox="0 0 53 56" fill="none" xmlns="http://www.w3.org/2000/svg">
<path d="M33.002 3.25C33.2818 3.25 33.5622 3.28668 33.8398 3.35938V3.3584C34.9512 3.65194 35.8311 4.49942 36.1611 5.59961V5.60059L36.2256 5.81641V5.81836C36.7157 7.45039 37.0296 8.54771 37.1973 9.6709C37.3644 10.7907 37.3873 11.9452 37.2832 13.6855C37.1541 15.8245 36.8547 18.5903 35.7041 21.458L35.4629 22.0332C34.7757 23.6004 33.8807 25.1246 32.7695 26.626L32.4727 27.0264L32.9717 27.0244L34.8018 27.0176C37.5926 27.0068 39.0043 26.471 40.1328 26.0469C40.991 25.7228 41.9166 25.3711 43.043 25.3711C43.1434 25.3711 43.2343 25.3706 43.3271 25.377L43.3311 25.3779C44.6129 25.4472 45.7687 26.2311 46.4102 27.5039C47.0261 28.7257 46.9706 30.0807 46.2754 31.1387V31.1396C45.4035 32.4687 44.3129 34.1278 43.4287 35.668C39.7294 42.1119 33.4258 45.9492 26.5771 45.9492C24.9212 45.9492 23.2427 45.7278 21.5771 45.293L21.2803 45.2158L21.2646 45.5225C21.2205 46.3887 21.2428 47.2716 21.3311 48.1328L21.373 48.501C21.5884 50.1841 20.5532 51.4011 20.2217 51.7432C19.5946 52.3834 18.722 52.75 17.8242 52.75H17.8174C16.3005 52.75 14.8015 51.6446 14.2861 50.1895L14.1963 49.8945L14.1104 49.542C13.2646 45.8844 13.6313 41.7778 15.1846 37.6084L15.2119 37.5352L15.1934 37.46C15.1504 37.288 15.0732 37.0693 14.9834 36.8857V36.8848L14.7705 36.4883C14.2408 35.5752 13.4708 34.7281 12.2402 33.6729C7.04583 29.2117 6.56221 24.3385 6.36719 19.0928L6.33105 18.0381L6.16406 13.1982C6.1411 12.5162 6.30748 11.4914 7.25098 10.5039C7.72631 10.0115 8.70479 9.20646 10.0664 9.19629C11.7189 9.19681 13.0669 10.323 13.6162 11.374V11.375C13.623 11.3885 13.6447 11.4334 13.6719 11.4697L13.7158 11.5283L13.7842 11.5537C13.956 11.6186 14.2676 11.7099 14.4971 11.7734V11.7725C15.9292 12.1831 18.022 12.7868 20.3887 15.2021L20.666 15.4854L20.8018 15.1133C21.8088 12.351 23.5732 9.8795 25.7275 8.24023L26.4658 7.68066C27.9689 6.54271 29.2812 5.55076 30.7158 4.16992L30.7168 4.1709C31.3404 3.57369 32.1614 3.2501 33.002 3.25Z" fill="white" stroke="#1F1F1F" stroke-width="0.5"/>
<path d="M17.3908 49.0834C16.4861 45.5284 17.0857 41.7783 18.4161 38.383C18.739 37.5599 18.3132 36.1834 17.9336 35.4206C17.0786 33.6928 15.8155 32.4013 14.3822 31.1702C9.73447 27.1824 9.79475 22.8611 9.59606 17.2129L9.45418 13.0832C9.44709 12.8881 9.90122 12.4943 10.0822 12.4943C10.2631 12.4943 10.6001 12.732 10.6924 12.9094C12.2535 15.8825 14.7228 13.8176 18.4197 17.9332C20.4136 20.1506 21.6376 22.6802 22.1379 25.6391C22.5211 27.9168 22.3437 30.0739 21.3396 32.2098C23.0036 30.4855 24.1956 29.8575 24.5504 27.1221C24.7704 25.4298 22.5281 20.7715 23.6599 16.9575C24.3446 14.6478 25.8028 12.3275 27.7187 10.8694C29.6346 9.4112 31.1779 8.30427 32.998 6.55518C33.9275 9.65601 34.1758 10.3833 33.9878 13.4912C33.8352 15.9925 33.4662 18.3731 32.4409 20.7111C31.0253 23.9326 28.7334 26.6254 26.1434 28.9954L22.9326 31.933C22.145 32.6532 21.4248 33.4515 20.9848 34.4414C23.3335 31.9969 26.257 30.3507 29.6842 30.3365L34.8109 30.3187C40.1611 30.2975 41.6051 28.5909 43.1485 28.6761C43.3223 28.6867 43.6203 29.1728 43.5139 29.3324C42.5311 30.8296 41.4703 32.4475 40.562 34.0298C36.7516 40.6643 29.7623 44.159 22.1379 42.0338C20.8819 41.6825 20.0588 40.6714 19.147 39.7454C17.9655 42.5518 17.7314 46.0783 18.0933 48.9237C18.1181 49.1118 17.9265 49.3708 17.852 49.4453C17.7775 49.5198 17.4334 49.2572 17.3908 49.0869V49.0834ZM27.8925 18.8698C30 16.0741 28.3573 14.9352 30.6741 11.2703C31.0821 10.6281 31.4298 10.0747 31.7881 9.41475C30.9756 10.0924 30.3902 10.5891 29.5529 11.1816C27.2574 12.803 25.2777 15.1765 24.7385 18.0431C24.1992 20.9098 25.292 23.8439 25.6893 26.7744C27.0836 23.5494 25.6893 21.7932 27.889 18.8733L27.8925 18.8698ZM15.2017 23.5459C14.0771 22.2722 13.4845 20.7927 13.3675 19.1004L13.1759 16.3366L10.7491 15.1978C11.221 20.885 10.3128 26.0329 15.0811 29.964C16.0355 30.748 16.8728 31.6137 17.6427 32.4617C17.4653 28.7222 17.9194 26.6254 15.2017 23.5423V23.5459ZM33.9488 35.7789C34.8819 35.1474 35.7937 34.4272 36.5636 33.6537L38.6249 31.5853C34.9315 32.1672 32.2919 31.6279 29.003 31.8798C25.0897 32.1814 21.6553 34.4839 19.9736 37.9715C25.5793 33.4621 29.8439 38.564 33.9452 35.7789H33.9488Z" fill="#860909"/>
</svg>
