<svg width="18" height="18" viewBox="0 0 18 18" fill="none" xmlns="http://www.w3.org/2000/svg">
<path d="M5.625 9C5.625 9.62132 5.12132 10.125 4.5 10.125C3.87868 10.125 3.375 9.62132 3.375 9C3.375 8.37868 3.87868 7.875 4.5 7.875C5.12132 7.875 5.625 8.37868 5.625 9Z" fill="black"/>
<path d="M10.125 9C10.125 9.62132 9.62132 10.125 9 10.125C8.37868 10.125 7.875 9.62132 7.875 9C7.875 8.37868 8.37868 7.875 9 7.875C9.62132 7.875 10.125 8.37868 10.125 9Z" fill="black"/>
<path d="M13.5 10.125C14.1213 10.125 14.625 9.62132 14.625 9C14.625 8.37868 14.1213 7.875 13.5 7.875C12.8787 7.875 12.375 8.37868 12.375 9C12.375 9.62132 12.8787 10.125 13.5 10.125Z" fill="black"/>
<path d="M2.43524 17.7783L2.45801 17.7738C4.51613 17.3659 5.77504 16.8268 6.35944 16.5306C7.19446 16.7545 8.08115 16.875 9 16.875C13.9706 16.875 18 13.3492 18 9C18 4.65076 13.9706 1.125 9 1.125C4.02944 1.125 0 4.65076 0 9C0 10.981 0.835944 12.7911 2.21601 14.1751C2.13296 15.0425 1.906 15.9732 1.62729 16.7829L1.62291 16.7956C1.589 16.8937 1.55434 16.9901 1.51909 17.0843C1.46359 17.2327 1.40663 17.3757 1.34885 17.5122C1.26041 17.7211 1.43179 17.9554 1.65569 17.9187C1.81422 17.8928 1.96875 17.8659 2.1193 17.8384C2.22662 17.8187 2.33194 17.7987 2.43524 17.7783ZM3.33589 14.2823C3.36783 13.9486 3.24932 13.6181 3.01262 13.3807C1.81947 12.1842 1.125 10.6516 1.125 9C1.125 5.40849 4.50495 2.25 9 2.25C13.495 2.25 16.875 5.40849 16.875 9C16.875 12.5915 13.495 15.75 9 15.75C8.17961 15.75 7.39087 15.6424 6.6508 15.444C6.38304 15.3722 6.0982 15.4018 5.85092 15.5271C5.41527 15.7479 4.45687 16.1686 2.88762 16.5313C3.09939 15.8083 3.26429 15.0301 3.33589 14.2823Z" fill="black"/>
</svg>
