<svg width="331" height="224" viewBox="0 0 331 224" fill="none" xmlns="http://www.w3.org/2000/svg">
<g filter="url(#filter0_d_853_3336)">
<path d="M308.287 108.962C316.07 115.708 320.999 126.344 320.999 138.278C320.999 152.288 319.702 166.297 317.626 181.344C314.773 200.024 299.466 214.811 280.268 217.146C269.112 218.703 257.438 219.222 244.466 219.222C231.494 219.222 240.575 219.222 238.499 219.222L181.942 218.443C167.155 218.443 153.405 217.925 139.395 217.925C125.386 217.925 105.669 218.184 91.1406 219.222C83.0981 219.741 75.834 220 69.3481 220C58.4519 220 48.3339 219.481 38.7349 218.184C19.7962 215.59 5.52735 201.58 2.67358 182.123C0.0792373 164.481 -0.180197 147.618 0.0792372 131.792C0.0792372 120.896 5.78675 113.892 11.2349 109.222C7.08392 104.033 3.7113 96.7689 2.41413 86.6509V85.6132V84.835C1.63583 69.2689 1.11696 53.7028 1.11696 34.7641V29.0566L3.45185 23.868C4.48958 21.5331 14.8669 0 35.8811 0H36.6594L54.3009 0.5189C57.6736 0.5189 60.7868 0.5189 63.9 0.5189C67.0132 0.5189 69.867 0.5189 72.7208 0.5189C75.834 0.5189 79.2066 0.5189 82.5792 0.5189H251.73C263.924 0.5189 275.598 1.5566 287.792 3.89151C308.027 7.78302 321.518 22.5707 325.15 43.8443C327.225 56.816 325.669 70.566 323.593 83.7971C322.037 93.3962 316.329 102.476 308.546 108.703L308.287 108.962Z" fill="white"/>
</g>
<path d="M291.683 177.453C290.646 184.977 284.16 190.425 276.896 191.203C264.183 192.76 251.73 193.279 238.759 193.019L192.58 192.241C157.815 191.722 124.348 190.944 89.5842 192.76C54.82 194.576 57.9333 193.798 41.8484 191.722C25.7634 189.647 29.136 185.236 28.0983 177.713C25.7634 162.666 25.504 147.359 25.7634 131.534C26.0228 115.708 49.1125 125.826 46.7776 103.255C39.254 94.6939 29.9143 99.1043 28.0983 83.0194C27.32 66.4156 26.8011 51.109 26.8011 34.2458C28.0983 31.3921 32.5087 25.425 35.622 25.6845L53.2634 26.2034C63.1219 26.4628 72.2022 26.2034 82.3201 26.2034H251.471C262.108 26.2034 272.226 27.2411 282.344 29.3165C303.358 33.4675 300.763 58.3732 297.391 79.6468C294.018 100.92 292.202 89.2458 288.311 90.2835C284.419 91.3213 277.674 92.0996 274.561 95.4722C267.815 102.996 268.853 114.93 275.079 122.453C281.306 129.977 282.863 126.345 287.013 126.604C291.164 126.864 294.537 132.831 294.537 137.76C294.537 150.991 293.24 163.963 291.424 177.194L291.683 177.453ZM279.23 162.925L280.787 139.576C267.556 139.576 257.438 130.496 256.919 117.005C256.141 96.51 262.108 79.9062 281.046 72.1231C286.495 65.8967 285.457 55.2599 283.122 47.7364C253.028 43.326 224.23 42.0288 193.877 42.5477C163.523 43.0665 151.848 42.5477 130.834 41.2505C130.834 56.8165 129.278 75.4958 118.381 70.826C107.485 66.1562 110.339 52.925 109.042 40.2128L85.4332 40.7317C70.1266 40.7317 55.0794 40.9911 39.7728 40.4722L41.8484 82.7599C48.5936 86.6515 53.7823 91.8401 57.1549 98.5854C63.6408 111.557 61.8248 125.567 49.8908 134.647C37.9569 143.727 42.8861 140.354 41.3295 142.949C39.5134 154.883 40.5512 166.557 43.1455 178.232C65.7163 179.01 86.9898 178.232 108.782 176.156C108.263 160.071 108.263 141.911 120.716 143.208C133.169 144.505 132.391 160.331 130.834 175.637L179.867 175.118H229.16L275.598 174.081C277.155 171.227 278.712 166.557 278.971 163.184L279.23 162.925Z" fill="#860909"/>
<path d="M183.499 118.821C188.169 131.533 199.844 136.981 211.778 137.24C223.712 137.5 223.452 137.24 229.938 138.538C228.9 142.948 226.565 145.283 223.452 146.58C212.815 151.25 201.141 150.472 190.244 144.505C179.348 138.538 174.938 129.976 172.862 118.821C167.414 118.042 163.263 119.08 159.631 115.967C155.999 112.854 159.631 111.297 160.928 111.297L171.565 109.74L172.344 101.179L159.891 99.6226C159.112 99.6226 157.556 95.9905 158.075 95.4716C158.594 94.9527 160.669 93.3962 161.707 93.3962L174.938 92.099C180.645 77.3113 193.098 68.4905 208.924 68.4905C224.749 68.4905 227.862 70.8254 226.825 76.014C225.787 81.2027 202.957 70.566 189.985 91.3207L201.919 92.6179C202.697 92.6179 204.773 93.915 205.292 94.4339C208.145 96.7688 198.806 102.476 184.796 101.698L183.24 110L194.395 109.222C197.509 109.222 203.735 110.519 204.773 113.373C204.254 117.264 199.325 118.821 196.471 119.08H183.24L183.499 118.821Z" fill="#860909"/>
<path d="M130.834 120.118C130.834 126.085 126.943 129.976 122.273 130.755C117.603 131.533 112.674 128.16 111.895 122.712C109.82 110.519 109.301 97.5472 112.933 85.6133C116.565 73.6793 121.495 81.2029 125.127 82.7595C128.759 84.3161 131.353 88.7264 131.353 93.1368L130.834 119.859V120.118Z" fill="#860909"/>
<defs>
<filter id="filter0_d_853_3336" x="0" y="0" width="330.13" height="224" filterUnits="userSpaceOnUse" color-interpolation-filters="sRGB">
<feFlood flood-opacity="0" result="BackgroundImageFix"/>
<feColorMatrix in="SourceAlpha" type="matrix" values="0 0 0 0 0 0 0 0 0 0 0 0 0 0 0 0 0 0 127 0" result="hardAlpha"/>
<feOffset dx="4" dy="4"/>
<feColorMatrix type="matrix" values="0 0 0 0 0 0 0 0 0 0 0 0 0 0 0 0 0 0 1 0"/>
<feBlend mode="normal" in2="BackgroundImageFix" result="effect1_dropShadow_853_3336"/>
<feBlend mode="normal" in="SourceGraphic" in2="effect1_dropShadow_853_3336" result="shape"/>
</filter>
</defs>
</svg>
