<svg width="38" height="36" viewBox="0 0 38 36" fill="none" xmlns="http://www.w3.org/2000/svg">
<g filter="url(#filter0_d_853_3383)">
<path d="M35.3226 15.27C33.7455 20.0012 28.6983 27.0787 19.2566 32.761C18.5262 33.2022 17.3963 33.7239 16.1531 33.7239C15.9146 33.7239 15.6791 33.7061 15.4525 33.6673C13.6727 33.3692 12.4057 32.0187 11.9406 31.4522C9.29029 28.2086 6.93808 25.1499 4.74686 22.103C3.07438 19.7776 1.8789 17.6699 0.98452 15.4667C-0.914538 10.7951 -0.0559383 6.53193 3.47088 3.14224C5.57565 1.11499 8.25282 0 11.0015 0C11.2818 0 11.565 0.00894849 11.8452 0.0327985C11.9317 0.038761 12.0152 0.0506817 12.1016 0.0655879C14.9726 0.548551 17.3665 2.19421 18.9764 4.65374C21.0066 2.92163 23.5526 1.97359 26.1702 1.97359C28.6297 1.97359 30.9491 2.79046 32.8839 4.33475C35.8473 6.70186 36.7804 10.8905 35.3226 15.27Z" fill="white"/>
</g>
<path d="M11.6494 2.50586L11.6709 2.50781L11.6924 2.51172C15.3058 3.12009 17.4525 5.97929 18.2969 9.24512C18.8815 8.30079 19.5735 7.44264 20.4326 6.67676C23.5227 3.9215 28.067 3.65728 31.3389 6.27148V6.27246C33.9033 8.32231 33.8708 11.7908 32.9736 14.4854L32.8594 14.8271H32.8457C31.7065 17.9907 29.4291 21.0573 26.7705 23.7402C24.1834 26.351 21.2109 28.6269 18.5117 30.3086L17.9766 30.6367C17.7007 30.8032 17.3595 30.9743 17.0039 31.0918C16.6567 31.2065 16.2491 31.2863 15.8613 31.2207V31.2197C15.4444 31.15 15.0526 30.9424 14.7246 30.7041C14.392 30.4623 14.0943 30.167 13.8633 29.8828V29.8818C11.6992 27.2316 9.63857 24.5941 7.62305 21.8408L6.76172 20.6533C5.37184 18.7207 4.18376 16.7447 3.28516 14.5332C2.55326 12.7335 2.30652 11.0165 2.61719 9.39258C2.92848 7.76575 3.78988 6.27963 5.19336 4.93066L5.52441 4.62695C7.09783 3.24678 9.05562 2.43394 11.1895 2.48242L11.6494 2.50586ZM13.6514 5.98828C12.0925 4.78793 10.3423 4.79284 8.77832 5.48145C7.19601 6.17821 5.84026 7.56574 5.16992 9.04785C4.5897 10.3287 4.85074 11.9832 5.54688 13.7021C6.23481 15.4009 7.30089 17.0484 8.15527 18.2393C10.6144 21.6666 13.1906 24.8979 15.8516 28.1787H15.8525C15.9043 28.2422 15.9861 28.3176 16.0713 28.376C16.1094 28.4021 16.1417 28.4197 16.165 28.4307C16.1685 28.43 16.1726 28.4306 16.1768 28.4297C16.2131 28.422 16.2602 28.4087 16.3135 28.3906C16.425 28.3528 16.5256 28.306 16.5762 28.2754H16.5771C20.8714 25.677 24.6719 22.4287 27.8262 18.5293C28.932 17.1624 29.8326 15.8136 30.4941 14.252L30.6377 13.8906C30.9594 13.0213 31.1892 11.9777 31.1768 10.9902C31.1625 9.85977 30.8353 8.87868 30.0596 8.26074L30.0137 8.22461C28.2431 6.83929 25.8082 6.48509 23.79 7.46973C22.063 8.31376 20.7754 9.78911 19.8896 11.5205C19.8024 11.6913 19.4555 12.4525 19.0557 13.0674C18.8591 13.3697 18.6145 13.6934 18.3418 13.8975C18.2037 14.0008 18.0169 14.1049 17.7939 14.124C17.5471 14.1451 17.3202 14.0566 17.1426 13.8887H17.1416C16.9318 13.69 16.7977 13.4348 16.7031 13.1787C16.6083 12.9216 16.5424 12.6306 16.4873 12.3311C16.4322 12.0313 16.3835 11.6981 16.332 11.3604C16.2798 11.018 16.2225 10.6611 16.1475 10.2939C15.8484 8.83191 15.2711 7.23515 13.6514 5.98828Z" fill="#860909" stroke="#860909"/>
<defs>
<filter id="filter0_d_853_3383" x="0" y="0" width="38" height="35.7236" filterUnits="userSpaceOnUse" color-interpolation-filters="sRGB">
<feFlood flood-opacity="0" result="BackgroundImageFix"/>
<feColorMatrix in="SourceAlpha" type="matrix" values="0 0 0 0 0 0 0 0 0 0 0 0 0 0 0 0 0 0 127 0" result="hardAlpha"/>
<feOffset dx="2" dy="2"/>
<feComposite in2="hardAlpha" operator="out"/>
<feColorMatrix type="matrix" values="0 0 0 0 0 0 0 0 0 0 0 0 0 0 0 0 0 0 1 0"/>
<feBlend mode="normal" in2="BackgroundImageFix" result="effect1_dropShadow_853_3383"/>
<feBlend mode="normal" in="SourceGraphic" in2="effect1_dropShadow_853_3383" result="shape"/>
</filter>
</defs>
</svg>
