<svg width="24" height="24" viewBox="0 0 24 24" fill="none" xmlns="http://www.w3.org/2000/svg">
<path d="M13.3007 21.6154C33.2625 7.63182 20.4861 -3.22977 13.3965 0.879315L10.5 4.5L12.75 10.5L9.75 15L12 22.5C12.1388 22.4083 12.2762 22.3167 12.4121 22.2253C12.7153 22.0213 13.0114 21.818 13.3007 21.6154ZM12.8461 20.1002L11.3895 15.2449L13.9981 11.3321C14.2657 10.9306 14.3239 10.425 14.1545 9.97331L12.2038 4.77144L14.3798 2.05144C17.1707 0.630449 21.0484 2.05565 22.1752 5.21779C23.2116 8.12624 22.0919 13.4987 12.8461 20.1002ZM10.9721 21.8053C10.6478 21.581 10.332 21.3575 10.0244 21.1348C9.56003 20.7986 9.11451 20.4644 8.68732 20.1322C-7.61506 7.45464 2.76427 -2.20801 9.68134 0.439312C10.1527 0.619702 10.6079 0.85725 11.0376 1.1549L8.25 4.5L10.5 10.5L8.25 15L10.9721 21.8053ZM7.52065 17.2155L6.85729 15.5571C6.69816 15.1593 6.71675 14.7124 6.90836 14.3292L8.86584 10.4142L6.84551 5.02668C6.65615 4.52174 6.75243 3.95401 7.09767 3.53972L8.64642 1.68122C6.11339 1.00687 3.09546 2.27774 1.96156 4.87247C0.895471 7.31205 1.34261 11.6962 7.52065 17.2155Z" fill="black"/>
</svg>
