<svg width="16" height="16" viewBox="0 0 16 16" fill="none" xmlns="http://www.w3.org/2000/svg">
<path d="M1.40049 1.7002C1.61688 1.98871 2.05014 2.53981 3.1251 2.97363C4.218 3.41461 6.00933 3.74773 8.95908 3.50195L9.33018 3.47949C11.1526 3.41906 12.4462 4.07663 13.2853 5.05762C14.1612 6.08201 14.5001 7.40978 14.5001 8.5C14.5001 9.0796 14.4682 9.78528 14.2716 10.4971C14.4029 10.6629 14.5306 10.8422 14.6534 11.0371C15.4099 12.2377 15.8433 13.6 16.0011 15.0029C16.0002 15.5096 15.6157 15.9435 15.1007 15.9951C14.5857 16.0466 14.1229 15.6975 14.0216 15.2012C13.8907 14.2314 13.6249 13.2883 13.1534 12.4307C12.1738 13.3855 10.565 14 8.0001 14C6.14599 13.9999 4.68051 13.4564 3.54991 12.5645C2.42589 11.6776 1.66137 10.4696 1.15928 9.18164C0.160613 6.61975 0.161305 3.64571 0.509866 1.90234L0.729592 0.805664L1.40049 1.7002ZM1.35069 3.08984C1.204 4.69858 1.3426 6.89863 2.09092 8.81836C2.54706 9.98844 3.22058 11.0308 4.16905 11.7793C5.11112 12.5225 6.35485 12.9999 8.0001 13C10.5879 13 11.9104 12.3398 12.6085 11.5547C10.8195 9.09418 8.48715 10.3416 6.2667 8.875C5.52731 8.38656 4.53139 7.55184 4.42295 6.56738C4.39971 6.35293 4.65942 6.29289 4.80186 6.45508C6.20336 8.0554 8.37585 8.21202 10.3917 8.5C11.6194 8.71511 12.6034 9.02571 13.4259 9.6582C13.4831 9.26875 13.5001 8.87634 13.5001 8.5C13.5001 7.59023 13.2127 6.51168 12.5255 5.70801C11.8991 4.97554 10.9039 4.42661 9.3585 4.47949L9.04209 4.49805C5.99255 4.75214 4.0331 4.4186 2.75108 3.90137C2.13571 3.65303 1.68525 3.36377 1.35069 3.08984Z" fill="black"/>
</svg>
