<svg width="32" height="32" viewBox="0 0 32 32" fill="none" xmlns="http://www.w3.org/2000/svg">
<path d="M27.9419 26.5887C25.0221 30.0273 20.7092 32 16.1139 32C15.3916 32 14.6631 31.9517 13.9438 31.8552C7.64891 31.0167 2.5711 26.6491 0.695373 20.4626C-1.56278 13.0304 1.82445 5.13073 8.7446 1.6831C10.9512 0.582143 13.4491 0 15.9652 0C17.6406 0 19.2948 0.253367 20.8883 0.751058C27.0284 2.66641 31.3656 8.02941 31.9362 14.4089C32.3277 18.7735 30.9073 23.0989 27.9419 26.5887Z" fill="#FFFBF0"/>
<path d="M14.3445 28.8664C9.04209 28.1606 5.09335 24.5169 3.59702 19.5943C1.7729 13.5828 4.37706 7.23345 10.1014 4.38003C13.1092 2.88092 16.6876 2.60342 19.9747 3.62897C24.919 5.17332 28.4519 9.55903 28.9102 14.6777C29.241 18.3697 28.0027 21.8414 25.6231 24.6436C22.8642 27.8891 18.6605 29.4395 14.3445 28.8664ZM17.9624 9.40218C17.8137 8.7024 17.41 7.84577 16.7271 7.61049C15.3279 7.1309 14.0076 8.18661 13.8346 9.61332C13.5493 11.9811 13.6646 14.3821 14.2717 16.6745C14.5114 17.5764 15.3947 18.2339 16.287 17.9504C18.4511 17.2687 18.5057 11.9751 17.9624 9.40218ZM17.3311 24.4445C18.2416 23.9317 18.5664 23.0661 18.4571 22.1431C18.357 21.3015 17.668 20.6017 16.7605 20.4389C15.51 20.2126 14.2626 20.4781 13.7648 21.6212C13.3277 22.6227 13.5857 23.986 14.6359 24.5682C15.4281 25.0086 16.5207 24.9 17.3311 24.4445Z" fill="#860909"/>
</svg>
