<svg width="54" height="50" viewBox="0 0 54 50" fill="none" xmlns="http://www.w3.org/2000/svg">
<path d="M30.4395 49.45C29.0695 49.45 27.6895 49.17 26.3795 48.59C21.6495 46.49 18.8895 43.03 16.8095 39.92C16.7395 39.82 16.6795 39.71 16.6095 39.61L11.9395 39.91C11.7295 39.92 11.5195 39.93 11.3095 39.93C8.97951 39.93 6.70952 39.11 4.90952 37.61C1.89952 35.1 0.159519 31.35 0.00951885 27.06C-0.140481 22.62 1.48952 18.31 4.38952 15.53C5.98952 14 8.03951 13.05 10.2395 12.81L16.1295 12.18C16.1495 11.83 16.1895 11.47 16.2495 11.12C17.4195 4.25001 24.6195 0 30.6195 0C33.7295 0 36.6395 1.10001 38.8295 3.10001C43.7995 7.64001 47.6695 12.78 51.1995 17.65C55.4195 23.48 52.9095 31.11 48.3995 35.34C44.8895 38.64 41.8295 41.78 37.8495 46.16C35.9095 48.3 33.1995 49.44 30.4395 49.44V49.45Z" fill="white"/>
<path d="M25.1295 34.36L29.8595 28.75L11.3195 29.9199C9.44952 28.3599 9.69952 24.3 11.3195 22.75L31.3695 20.6C29.5695 17.96 27.5195 15.64 26.1195 12.8C26.4195 11.05 30.5395 9.05996 32.0995 10.48C36.3395 14.35 39.6995 18.81 43.1095 23.52C43.9695 24.71 42.4995 27.18 41.5695 28.05C37.5795 31.79 34.2595 35.2599 30.4495 39.4499C28.1495 38.4299 26.7195 36.7299 25.1295 34.36Z" fill="#860909"/>
</svg>
