<svg width="53" height="56" viewBox="0 0 53 56" fill="none" xmlns="http://www.w3.org/2000/svg">
<path d="M37.2438 4.22225C40.8607 5.85846 42.5373 8.86587 43.774 11.7375L44.0156 12.3103C44.5022 13.4776 45.5906 16.1076 44.3773 19.0383C44.0791 19.7614 43.6873 20.3813 43.2526 20.9234L43.011 21.2239L43.6047 21.4924C43.8637 21.6096 44.1169 21.7443 44.3497 21.8932C45.3351 22.5212 45.9267 23.362 46.2956 24.1573L46.3512 24.2769L46.4755 24.3165C46.7103 24.3901 46.9468 24.4736 47.1817 24.5798C48.2215 25.0501 49.04 25.8203 49.5556 26.8128C50.5716 28.761 50.7788 31.0965 50.1223 33.0464C49.4686 34.9915 48.1054 36.5744 46.3737 37.5374L46.1477 37.6637L46.241 37.9064C47.1164 40.1967 46.4435 42.1651 46.0053 43.4387L46.0059 43.4402L45.9524 43.5973L45.9478 43.6106L45.9442 43.6243C45.9181 43.7354 45.8803 43.9957 45.8531 44.1588L45.8521 44.161C45.7254 44.9724 45.4992 46.4047 44.6196 47.7641C43.762 49.0896 42.2665 50.3667 39.5654 50.8973L39.434 50.9221C37.1783 51.3385 35.0219 51.5031 32.8097 51.6102L30.5731 51.7053L30.1801 51.7204C29.4883 51.746 28.8115 51.7952 28.1046 51.8437C26.7479 51.9403 25.3599 52.0391 23.8828 51.9844L18.2996 51.7799C16.5164 51.7131 15.0581 51.4065 13.8223 50.8476C11.3349 49.7223 10.3676 47.8451 9.88241 46.6411L9.70039 46.1707L9.60109 45.9074L9.58961 45.8819L9.57411 45.8569C8.52365 44.2718 6.85507 41.6181 7.76886 38.3482L7.82165 38.1614L7.67166 38.0374L7.22547 37.6568C7.13727 37.5792 7.03501 37.4898 6.94331 37.4142C6.89766 37.3767 6.85166 37.341 6.81072 37.3109C6.77528 37.2848 6.72447 37.2489 6.67373 37.2259L6.63894 37.2102C4.51772 36.2507 3.35385 34.3061 3.51474 32.054L3.56474 31.6004C3.92173 29.1953 5.01428 26.4281 7.95421 24.9225L8.11576 24.8385L8.11596 24.656C8.116 24.3302 8.11871 24.0176 8.12171 23.7216L8.12325 23.5589C8.19129 18.3216 11.1357 12.8966 16.0343 9.07136C18.6235 7.04825 21.2714 5.56006 24.3704 4.37783C28.4089 2.84126 32.0677 2.5957 35.5786 3.61201C36.1594 3.77644 36.7225 3.98647 37.2438 4.22225Z" fill="white" stroke="#1F1F1F" stroke-width="0.5"/>
<path d="M29.5482 48.7224C27.4536 48.8038 25.5227 49.0602 23.5137 48.987L17.9259 48.7813C12.5802 48.5842 12.8606 45.7434 12.0637 44.5376C11.0473 43.0012 10.0019 41.3802 10.7759 39.4061C11.0853 38.6172 11.891 37.9394 12.6508 37.4302C12.6881 37.1402 12.6729 36.6877 12.632 36.3581C9.63934 37.1469 9.42943 35.324 7.58327 34.5007C6.8014 34.1508 6.38987 33.5399 6.52559 32.6261C6.98973 29.4943 8.57775 28.1914 11.5817 27.8829C11.0665 26.6154 11.108 25.3605 11.1239 24.0981C11.1837 19.4213 14.093 15.1394 17.6812 12.3378C19.9951 10.5271 22.3748 9.19601 25.1117 8.14859C28.0329 7.03325 31.0344 6.58062 34.117 7.47209C37.6388 8.49104 38.9737 10.9787 40.2911 14.1522C40.8259 15.4411 41.2353 16.7405 40.6492 18.1608C40.0632 19.5811 38.662 20.4641 37.4305 21.4618C38.4695 22.4703 39.3562 23.5865 39.6871 24.9218C40.5185 24.9074 41.3093 24.9376 41.9874 25.3708C43.0622 26.0551 42.8463 27.7859 43.1593 27.9067C43.7921 28.1512 45.3857 27.8472 45.9588 28.9474C46.4782 29.9435 46.6827 31.3098 46.3083 32.414C45.6949 34.2422 43.9136 35.4829 42.0732 35.5364L40.0338 35.5966L39.8486 36.9588C40.88 37.5813 41.8301 38.3773 42.3213 39.3522C42.99 40.6682 42.5503 41.7596 42.1301 42.9944C41.5991 44.553 42.223 47.2528 38.3005 47.9777C35.4095 48.5097 32.572 48.6036 29.5362 48.7212L29.5482 48.7224ZM19.6669 27.1765L30.9033 22.8527L37.5777 19.9605C39.1853 18.595 39.6974 16.3762 38.9462 14.3839C38.2657 12.5793 37.2856 10.8113 35.6326 9.72217C33.5915 8.38175 31.08 8.17343 28.6974 8.57418C25.3296 9.13844 22.4441 10.7449 19.6404 12.6449C15.0425 15.7585 12.2666 20.8365 12.6685 26.4329C12.7607 27.7147 13.7386 28.6073 15.0051 28.4579C16.5883 28.271 18.0726 27.7913 19.6654 27.1801L19.6669 27.1765ZM15.9416 35.6247C16.9886 36.2124 17.8094 36.1468 18.7627 35.6243C21.5531 34.1008 22.0715 36.841 23.717 35.6524C28.4851 32.2122 30.3712 34.7815 31.6848 34.6575C34.4644 34.3945 35.3784 32.883 38.4118 33.7354C39.6634 34.0878 41.2147 34.4036 42.5195 34.1117C44.1261 33.7504 45.2689 31.8466 45.1577 30.2703C44.551 29.1801 41.2172 30.3145 41.3223 27.512C41.3309 27.2679 41.104 26.6354 40.8756 26.5867C40.4071 26.488 39.5343 26.4922 39.1044 26.5875C38.3453 27.198 37.4412 27.5537 36.405 27.635C37.0975 28.7852 36.8586 30.2492 35.5748 30.887C34.0661 31.6372 32.0929 31.7358 30.6 31.0176C29.4021 30.4415 28.7502 29.5747 28.9516 28.2324L26.3471 28.4108C25.529 29.7722 24.2531 30.8885 22.6311 30.835C21.5508 30.7999 20.7514 29.9838 20.0776 29.0818C17.2766 28.9904 14.3914 31.0174 12.3309 28.9242C11.0974 29.1306 9.88406 29.4135 8.8899 30.2245C8.25465 30.7439 7.61711 31.9896 8.26773 32.6625C9.01067 33.4277 9.87258 34.1501 10.7285 34.8488C13.956 34.7213 13.1983 34.0924 15.9332 35.625L15.9416 35.6247ZM35.6789 28.7145C35.5211 28.395 35.0693 27.9214 34.7629 27.6734L30.1848 28.1392C30.1502 28.7037 30.1851 29.2996 30.3648 29.7761C31.9153 30.8146 36.2597 29.8813 35.6789 28.7145ZM25.0551 28.4773L21.5454 28.9015C21.7153 30.1681 24.6924 29.7885 25.0551 28.4773ZM17.7454 37.6395C16.3869 37.3776 15.3787 36.8621 13.9435 36.2668C13.966 36.647 14.0693 37.2108 14.2725 37.4751C14.4919 37.7594 15.1811 37.9244 15.5072 37.9124C17.6987 37.8286 19.7388 37.8697 21.9146 38.0647C26.2303 38.451 33.0195 37.7169 37.4339 37.1137C37.7435 37.0732 38.3829 36.7785 38.4584 36.5058C38.5491 36.1895 38.4209 35.3538 38.1619 35.1776C37.6938 34.9278 36.8478 34.7128 36.3515 34.6857C34.3222 35.6038 34.0333 36.9275 31.4639 36.4744C30.7338 36.3455 30.0049 36.1668 29.2644 35.8273C26.9072 34.7472 27.4694 35.9939 24.2422 37.2816C23.2495 37.6771 22.2871 37.5271 21.3627 36.9824C19.6589 35.9797 18.8206 37.8448 17.7454 37.6395ZM16.3321 46.9035C18.7743 47.6984 21.0237 47.7375 23.463 47.6399L29.0296 47.4156C32.3267 47.2818 35.5944 47.1389 38.7918 46.2832C39.8655 45.996 40.4683 44.7346 40.7789 43.7277C37.9509 44.8767 35.2427 45.2604 32.3245 45.3009L24.6742 45.4139L17.147 45.2968L13.9116 45.2357C14.3873 46.2456 15.3317 46.5766 16.3336 46.9L16.3321 46.9035Z" fill="#860909"/>
<path d="M30.0779 15.4918C29.6097 16.1541 28.7325 16.1171 28.1386 15.679C27.4027 15.1363 27.3193 14.249 27.8035 13.5518C28.2561 12.8978 29.239 12.8559 29.8349 13.2643C30.6323 13.8075 30.7119 14.6015 30.0779 15.4918Z" fill="#860909"/>
<path d="M33.054 13.4905C32.5544 12.9786 32.2021 11.9067 32.8599 11.3212C33.6847 10.5876 35.1157 11.2 35.4464 12.2578C35.6431 12.8835 35.2703 13.5523 34.786 13.8199C34.2033 14.1405 33.5873 14.0346 33.054 13.4905Z" fill="#860909"/>
<path d="M28.1222 23.7993C27.4266 24.4442 26.6992 23.3727 26.5578 22.8641C26.4091 22.3253 26.5239 21.0449 27.1777 21.0022C28.3092 20.9228 28.9548 23.0277 28.1222 23.7993Z" fill="#860909"/>
<path d="M32.4957 9.60148C32.5763 10.1924 31.5127 11.2751 30.8307 10.9355C30.017 10.529 30.8676 9.20359 31.6325 9.04186C31.8131 9.00293 32.0959 8.9873 32.2109 9.01163C32.3608 9.04518 32.462 9.33032 32.4993 9.60283L32.4957 9.60148Z" fill="#860909"/>
<path d="M26.6857 12.9982C25.3797 12.459 25.0631 10.7019 26.1883 10.0063C26.7109 9.91849 27.4073 10.772 27.4692 11.2205C27.5567 11.8713 27.5038 12.4367 26.6903 13L26.6857 12.9982Z" fill="#860909"/>
<path d="M19.2224 24.9855C17.8978 24.7483 18.5807 22.9605 19.7786 23.0007C20.5157 23.0237 20.5525 23.7253 20.4679 24.0248C20.3834 24.3241 19.9186 25.1107 19.2269 24.9869L19.2224 24.9855Z" fill="#860909"/>
<path d="M22.4048 18.1897C22.6903 18.7162 22.2843 20.0033 21.8391 20C21.2754 19.6629 21.4978 18.3256 21.9029 18.0285C22.0174 17.9428 22.337 18.0659 22.4048 18.1897Z" fill="#860909"/>
<path d="M26.0766 19.969C25.7311 20.1609 25.5019 19.4121 25.5 19.094C25.497 18.7026 25.6692 17.8977 26.0269 18.0108C26.6124 18.1959 26.6838 19.6318 26.0755 19.9722L26.0766 19.969Z" fill="#860909"/>
<path d="M36.4894 17.6706C36.6584 18.9188 34.7527 19.5997 34.5187 18.295C34.2846 16.9904 36.3267 16.4801 36.4894 17.6706Z" fill="#860909"/>
<path d="M32.5 20.3163C32.4672 20.7648 31.0889 21.214 30.5958 20.8891C30.4604 20.7978 30.4704 20.4087 30.6139 20.3096C31.0716 20.0039 32.1102 19.7991 32.5 20.3163Z" fill="#860909"/>
<path d="M17.1558 19.1315C17.7647 19.979 17.6139 21.8704 16.3143 22C15.0414 21.5954 15.4839 19.7205 16.1363 19.0935C16.2842 18.9528 17.0438 18.9753 17.1558 19.1315Z" fill="#860909"/>
<path d="M20.2207 15.9095C19.5249 16.3474 18.2313 15.0958 18.5495 14.313C18.7667 13.7792 19.6079 14.0279 19.9649 14.324C20.287 14.5937 20.836 15.5209 20.2225 15.9055L20.2207 15.9095Z" fill="#860909"/>
</svg>
