<svg width="48" height="36" viewBox="0 0 48 36" fill="none" xmlns="http://www.w3.org/2000/svg">
<g filter="url(#filter0_d_860_8352)">
<path d="M45.9459 11.2006L45.6596 19.1805L45.1586 29.2718C45.0513 29.737 44.8366 30.1664 44.5861 30.56C43.0473 32.8503 39.4331 33.4228 37.5365 33.4228H37.3218L29.485 33.2797H24.7972L15.7795 33.6375C15.3859 33.6375 15.028 33.6375 14.6702 33.6375C13.3104 33.6375 11.9863 33.5302 10.6265 33.4586L6.08188 33.1007L3.36226 32.4208L2.71812 31.8841C-0.287786 29.3076 -0.0730651 26.1585 0.0700732 24.2619C0.0700732 23.9041 0.105849 23.582 0.105849 23.26V18.2501L0.213198 10.0197L0.427919 7.58633L0.571044 5.18876C0.749967 1.96815 4.22107 0 6.65442 0H17.4972C17.4972 0.0357846 23.3301 0 23.3301 0H34.4949H39.7909C42.6895 0 45.1587 2.21865 45.5881 5.1172C45.9101 7.40741 46.0533 9.33978 45.9817 11.2006H45.9459Z" fill="white"/>
</g>
<path d="M36.5709 25.6218C35.9983 26.5879 34.6385 26.4448 33.7797 26.3732L29.8434 26.087C29.5571 26.087 29.3066 25.908 29.1992 25.6933C28.6625 24.6556 28.734 23.3673 28.9487 22.2938C29.1635 21.2202 29.736 21.1487 30.4875 21.1845L34.6027 21.2918C35.211 21.2918 36.0341 21.4707 36.3561 22.0791C36.8571 23.0453 37.1434 24.6198 36.5351 25.6218H36.5709Z" fill="#860909"/>
<path d="M20.8255 24.1191C21.2191 24.1191 21.6843 24.6559 21.7201 24.978C21.7559 25.3 21.3265 25.8368 20.8613 25.801L15.6725 25.5863L8.55138 25.5147C8.30088 25.5147 7.94303 25.2642 7.87146 25.0853C7.79989 24.9064 8.0146 24.2981 8.22931 24.2981L10.6269 24.1907H15.8514H20.8613L20.8255 24.1191Z" fill="#860909"/>
<path d="M16.9969 22.7584L8.55175 22.8658C8.01498 22.8658 7.62135 22.2932 7.83606 21.828C8.05077 21.3628 7.87183 21.7564 7.90761 21.7206C8.19389 21.327 8.69488 21.2197 9.19587 21.2197L16.2812 21.1123C17.2474 21.1123 17.82 21.6849 17.7126 22.329L17.4621 22.5795C17.319 22.7226 17.1401 22.7942 16.9611 22.7942L16.9969 22.7584Z" fill="#860909"/>
<path d="M29.5207 29.7009H24.7256L15.6363 30.0587C14.026 30.1303 12.4872 30.0229 10.8769 29.8798L6.86906 29.5935C6.72592 29.5935 6.547 29.5577 6.40386 29.522L5.3661 29.2715C5.11561 29.1999 4.86511 29.0567 4.68619 28.8778C3.0401 27.196 3.61266 25.2636 3.64845 23.2954V18.3214L3.7558 10.2698C3.7558 10.2698 3.7558 10.2341 3.7558 10.1983L3.93472 7.83649L4.07787 5.36735C4.11365 4.54431 5.6166 3.57812 6.58279 3.57812L17.4255 3.64969L23.2584 3.57812H34.3874H39.6835C40.8286 3.57812 41.7948 4.50853 41.9379 5.65363C42.1884 7.47865 42.3673 9.26788 42.2958 11.1287L42.0095 19.1802L42.0811 26.7308C42.0811 27.3391 41.8664 27.8401 41.6159 28.2337C41.2223 28.8778 39.6119 29.9514 37.3217 29.9156L29.4491 29.7724L29.5207 29.7009ZM39.7551 8.58797C40.2561 8.58797 40.6497 8.19434 40.6855 7.72914C40.7213 7.26394 40.6855 6.54825 40.3276 6.04726C39.9698 5.54628 39.1825 5.47471 38.6815 5.47471H26.9442L16.6382 5.11686L13.1671 5.00951H8.01417C7.04799 5.00951 6.2965 5.79677 6.26072 6.76296L6.18914 8.19434C6.18914 8.73111 6.58277 9.16052 7.08376 9.16052H12.3441H24.1888L32.2761 8.83846L37.7512 8.62375H39.8267L39.7551 8.58797ZM27.6957 28.1263C31.4531 28.3411 35.0673 28.3769 38.6815 28.0906C39.3972 27.9116 39.8267 27.5538 39.8982 26.8381C40.2203 23.4028 40.2203 20.039 40.0056 16.6395C39.7909 13.24 39.5762 15.7807 39.111 15.7807H28.6977C22.2206 16.1027 15.8868 15.9596 9.44555 15.566L6.51121 15.4944C6.01023 15.4944 5.5808 15.888 5.5808 16.4248V21.2199C5.65237 23.0449 5.72394 24.7268 6.01022 26.516C6.2965 28.3053 6.51121 27.4822 7.04798 27.6254C7.83524 27.8401 8.65828 27.9832 9.48133 27.9832L17.1392 28.0548H24.6898H27.7315L27.6957 28.1263Z" fill="#860909"/>
<defs>
<filter id="filter0_d_860_8352" x="0" y="0" width="48" height="35.6377" filterUnits="userSpaceOnUse" color-interpolation-filters="sRGB">
<feFlood flood-opacity="0" result="BackgroundImageFix"/>
<feColorMatrix in="SourceAlpha" type="matrix" values="0 0 0 0 0 0 0 0 0 0 0 0 0 0 0 0 0 0 127 0" result="hardAlpha"/>
<feOffset dx="2" dy="2"/>
<feComposite in2="hardAlpha" operator="out"/>
<feColorMatrix type="matrix" values="0 0 0 0 0 0 0 0 0 0 0 0 0 0 0 0 0 0 1 0"/>
<feBlend mode="normal" in2="BackgroundImageFix" result="effect1_dropShadow_860_8352"/>
<feBlend mode="normal" in="SourceGraphic" in2="effect1_dropShadow_860_8352" result="shape"/>
</filter>
</defs>
</svg>
