<svg width="69" height="64" viewBox="0 0 69 64" fill="none" xmlns="http://www.w3.org/2000/svg">
<path d="M21.6176 63.16C17.2776 63.16 12.9276 60.61 10.7976 56.82L6.01761 48.33L1.3276 40.17C-0.362396 37.23 -0.442397 33.63 1.1076 30.61C3.1476 26.65 6.5176 23.03 10.3576 20.66C12.4476 19.37 14.8676 18.69 17.3376 18.69C18.7476 18.69 20.1376 18.91 21.4576 19.31C25.5776 13.98 29.3976 9.37 33.3076 5.01C36.1676 1.82 40.3776 0 44.8576 0C46.6576 0 48.3976 0.3 50.0576 0.88C56.2376 3.07 60.8576 5.53 65.0476 8.84C66.0576 9.64 66.8976 10.62 67.5276 11.73C71.0576 17.93 67.8176 25.93 62.5776 29.5C50.5076 37.73 39.8776 47.45 30.0976 59.22C28.0176 61.72 24.9276 63.16 21.6376 63.16H21.6176Z" fill="white"/>
<path d="M14.7276 43.4099L9.99756 35.1699C11.2176 32.7999 13.3576 30.5399 15.5976 29.1599C17.4076 28.0399 19.7876 28.9799 20.7376 30.6099L22.8176 34.1699C28.5576 26.2799 34.2576 18.8999 40.7476 11.6699C42.1576 10.0999 44.7176 9.57988 46.7076 10.2899C51.0676 11.8399 55.0976 13.7099 58.8276 16.6699C59.4776 17.8199 58.1976 20.3699 56.9276 21.2299C43.8876 30.1099 32.5276 40.6199 22.3876 52.8199C21.6576 53.6899 19.9376 52.6699 19.5076 51.9099L14.7276 43.4199V43.4099Z" fill="#860909"/>
</svg>
