<svg width="18" height="18" viewBox="0 0 18 18" fill="none" xmlns="http://www.w3.org/2000/svg">
<path d="M5.625 9C6.86764 9 7.875 7.99264 7.875 6.75C7.875 5.50736 6.86764 4.5 5.625 4.5C4.38236 4.5 3.375 5.50736 3.375 6.75C3.375 7.99264 4.38236 9 5.625 9Z" fill="black"/>
<path d="M10.125 6.1875C10.125 5.87684 10.3768 5.625 10.6875 5.625H15.1875C15.4981 5.625 15.75 5.87684 15.75 6.1875C15.75 6.49816 15.4981 6.75 15.1875 6.75H10.6875C10.3768 6.75 10.125 6.49816 10.125 6.1875Z" fill="black"/>
<path d="M10.125 9C10.125 8.68934 10.3768 8.4375 10.6875 8.4375H15.1875C15.4981 8.4375 15.75 8.68934 15.75 9C15.75 9.31066 15.4981 9.5625 15.1875 9.5625H10.6875C10.3768 9.5625 10.125 9.31066 10.125 9Z" fill="black"/>
<path d="M11.25 11.8125C11.25 11.5019 11.5019 11.25 11.8125 11.25H15.1875C15.4981 11.25 15.75 11.5019 15.75 11.8125C15.75 12.1231 15.4981 12.375 15.1875 12.375H11.8125C11.5019 12.375 11.25 12.1231 11.25 11.8125Z" fill="black"/>
<path d="M2.25 2.25C1.00736 2.25 0 3.25736 0 4.5V13.5C0 14.7427 1.00736 15.75 2.25 15.75H15.75C16.9927 15.75 18 14.7427 18 13.5V4.5C18 3.25736 16.9927 2.25 15.75 2.25H2.25ZM1.125 4.5C1.125 3.87868 1.62868 3.375 2.25 3.375H15.75C16.3713 3.375 16.875 3.87868 16.875 4.5V13.5C16.875 14.1213 16.3713 14.625 15.75 14.625H10.0794C10.1095 14.4413 10.125 14.2535 10.125 14.0625C10.125 11.8879 8.11028 10.125 5.625 10.125C3.2779 10.125 1.35048 11.6973 1.14342 13.7038C1.13132 13.6377 1.125 13.5696 1.125 13.5V4.5Z" fill="black"/>
</svg>
