<svg width="315" height="363" viewBox="0 0 315 363" fill="none" xmlns="http://www.w3.org/2000/svg">
<g filter="url(#filter0_d_853_3320)">
<path d="M310.793 168.889V173.134L309.883 210.732L308.367 275.923C308.367 277.742 308.367 279.562 308.367 281.381C308.367 291.387 308.367 303.515 304.122 316.554C296.542 339.901 272.588 351.726 253.789 352.939L161.612 358.7L79.1389 358.094C58.5205 358.094 38.8114 348.997 25.7733 333.533C12.7352 318.07 6.97428 297.451 10.0064 276.833C8.49034 275.013 6.97421 273.194 5.76136 271.072C-0.302887 261.066 -1.51551 248.634 1.81982 237.718C3.94231 231.351 7.58063 225.893 11.8256 221.648V205.578C3.33566 196.481 1.51639 185.869 1.21317 182.534C0.000325131 171.012 3.63895 160.096 11.5225 151.606C12.4321 150.696 13.3418 149.787 14.2514 148.877V134.323L9.70326 131.291L6.368 124.62C0.910184 114.008 0.303538 102.486 4.2453 91.5701C6.36778 85.8091 9.70334 80.6545 13.9483 76.4095C13.0387 55.1847 20.3155 33.0501 34.5665 17.5863C50.6368 -3.75915e-05 75.197 0 84.2934 0L141.904 0.606461L197.088 1.81938L237.416 2.42566C264.098 2.72887 288.658 16.9799 299.877 38.508C311.399 60.6425 311.399 83.6866 309.883 103.092C308.064 124.62 309.277 146.148 310.186 168.889H310.793Z" fill="white"/>
</g>
<path d="M81.261 261.976C88.2349 255.608 85.5061 239.538 77.6226 235.293C62.462 227.106 42.1466 242.267 42.1466 228.925V206.791C42.1466 203.456 44.2691 197.391 46.6948 195.269L72.7709 194.056C80.9577 193.753 86.1124 185.869 85.8092 178.895C85.506 171.922 79.7448 164.948 71.2549 163.735L44.5724 160.096V131.898C44.5724 125.53 49.1205 123.104 54.2751 122.498C65.7971 121.892 79.7451 118.253 83.6869 110.066C87.6286 101.879 84.8997 98.8474 82.1708 96.1185C72.7712 86.719 59.4297 87.3254 46.6948 87.6286C40.9337 71.8616 45.482 50.94 57.0041 38.2051C68.5261 25.4702 76.7128 30.3215 85.8092 30.3215L141.297 30.9279L196.482 32.1408L237.112 32.7471C251.363 32.7471 266.524 39.7211 273.194 52.7592C281.078 67.6166 281.078 84.2933 279.865 100.667C278.046 125.227 279.258 148.574 280.471 173.135L279.562 209.52L278.046 275.014C278.046 285.626 278.349 296.542 275.014 307.154C271.678 317.767 261.066 322.012 251.363 322.618L160.096 328.379L78.532 327.773C53.0622 327.773 35.4758 305.638 39.4176 280.775C42.4497 261.369 68.8294 272.588 80.9579 261.369L81.261 261.976ZM192.237 161.309C204.062 151 206.488 136.143 198.604 122.801C190.72 109.46 173.437 100.06 157.67 104.002C141.903 107.944 137.052 120.679 135.536 132.201C134.02 143.723 139.478 158.58 151.303 165.857C163.128 173.134 180.715 171.315 191.933 161.309H192.237ZM189.508 242.873L213.765 240.144C227.712 238.628 225.893 215.584 217.1 202.546C210.43 192.54 198.301 186.172 186.172 185.869H157.367C149.18 185.263 140.084 187.689 133.11 191.024C120.982 196.785 116.131 207.397 117.343 220.436C118.556 233.474 116.131 235.899 123.104 238.931C130.078 241.964 143.42 243.48 153.426 243.48L190.114 242.873H189.508Z" fill="#860909"/>
<path d="M76.41 260.46C65.7976 265.917 52.1528 264.401 40.9339 262.279C29.7151 260.156 28.1993 254.092 30.625 247.118C33.0507 240.144 40.3278 238.022 45.7856 237.719H65.7976C70.649 237.719 75.8036 241.054 77.926 244.996C80.0485 248.937 82.171 257.428 76.41 260.46Z" fill="#860909"/>
<path d="M76.7137 188.598C58.8241 192.539 32.4447 192.843 31.2318 179.804C30.019 166.766 60.0371 161.309 74.8945 170.405C89.7519 179.501 79.7458 183.14 76.7137 188.598Z" fill="#860909"/>
<path d="M79.7453 104.305C80.9582 113.704 72.7713 115.524 66.7071 116.13C54.8818 117.343 43.3597 118.253 33.3537 111.279C29.412 103.395 34.5669 96.4213 42.7536 93.0859L67.92 94.2989C72.165 94.2989 79.139 100.06 79.4422 104.608L79.7453 104.305Z" fill="#860909"/>
<defs>
<filter id="filter0_d_853_3320" x="0" y="0" width="314.793" height="362.7" filterUnits="userSpaceOnUse" color-interpolation-filters="sRGB">
<feFlood flood-opacity="0" result="BackgroundImageFix"/>
<feColorMatrix in="SourceAlpha" type="matrix" values="0 0 0 0 0 0 0 0 0 0 0 0 0 0 0 0 0 0 127 0" result="hardAlpha"/>
<feOffset dx="4" dy="4"/>
<feColorMatrix type="matrix" values="0 0 0 0 0 0 0 0 0 0 0 0 0 0 0 0 0 0 1 0"/>
<feBlend mode="normal" in2="BackgroundImageFix" result="effect1_dropShadow_853_3320"/>
<feBlend mode="normal" in="SourceGraphic" in2="effect1_dropShadow_853_3320" result="shape"/>
</filter>
</defs>
</svg>
