<svg width="53" height="56" viewBox="0 0 53 56" fill="none" xmlns="http://www.w3.org/2000/svg">
<path d="M8.10742 3.25C8.74266 3.25002 9.35027 3.38588 9.91211 3.65137V3.65234C10.5505 3.95664 11.0903 4.43189 11.4707 5.02148L11.624 5.28027C11.7378 5.493 11.8312 5.63386 11.8994 5.72461C11.9334 5.76987 11.9612 5.80292 11.9824 5.82617C11.9931 5.83782 12.0025 5.84737 12.0098 5.85449L12.0225 5.86719L12.0244 5.86816L12.0254 5.86914V5.87012L12.043 5.88477L12.0615 5.89648C12.1108 5.92608 12.1801 5.9526 12.2393 5.97363C12.3051 5.99702 12.3845 6.0215 12.4678 6.04688C12.6342 6.09757 12.8275 6.15109 12.9883 6.19531V6.19629C14.7177 6.68131 17.3147 7.40877 20.3418 10.8604C22.9454 13.8303 24.5477 17.1509 25.2402 21.0156C25.4193 22.0142 25.5191 22.992 25.543 23.9453L25.5508 24.2695L25.8623 24.1787C27.5705 23.6822 29.3752 23.4239 31.2402 23.4238L35.8574 23.4639H35.8594C38.4497 23.4639 40.9552 22.9297 43.1016 21.918C43.6465 21.6606 44.2383 21.5313 44.8633 21.5312C45.8118 21.5312 47.2829 21.8705 48.3027 22.8066C49.8805 24.2564 50.0694 26.7302 48.7012 28.7002C47.5936 30.2888 46.7359 31.6484 45.8262 33.2373C41.5975 40.6374 34.4117 45.0391 26.6143 45.0391C24.7168 45.0391 22.8021 44.7765 20.9141 44.2627L20.6143 44.1807L20.5986 44.4912C20.5415 45.6262 20.5902 46.7928 20.7451 47.9629C20.9644 49.6262 20.0565 50.8715 19.6455 51.3408C18.9002 52.1891 17.9194 52.6784 16.8613 52.7422H16.624C15.9746 52.7422 15.2999 52.5642 14.7373 52.2471V52.2461C13.9586 51.8083 12.9443 50.849 12.542 49.5635L12.4697 49.3018C11.4523 45.0454 11.8432 40.4091 13.6455 35.5098L13.6719 35.4375L13.6533 35.3623C13.606 35.173 13.5192 34.9095 13.4082 34.6875V34.6865L13.2891 34.459C12.7572 33.4823 12.018 32.5939 10.917 31.6025L10.3828 31.1367L10.0557 30.8545C6.71375 27.904 4.63441 24.0481 4.03027 19.6807C3.83546 18.266 3.74801 16.8954 3.68945 15.5557L3.6377 14.2256C3.62155 13.7332 3.60136 13.2404 3.57715 12.7441L3.3916 8.68262C3.3252 7.19425 3.63683 6.4002 3.7334 6.15137C4.39473 4.45245 6.19569 3.25 8.10742 3.25Z" fill="white" stroke="#1F1F1F" stroke-width="0.5"/>
<path d="M42.5518 31.36C38.1626 39.043 29.9561 43.0979 21.3428 40.4484C20.0221 40.0417 19.1684 38.894 18.1818 37.9276C16.849 41.2134 16.551 45.0106 17.006 48.4495C17.0261 48.5985 16.7282 49.0334 16.5953 48.9569C16.4624 48.8803 16.1846 48.5824 16.1483 48.4253C15.1819 44.3825 15.8543 40.3034 17.3322 36.4417C17.7147 35.4391 17.2396 33.8848 16.7805 32.9787C15.81 31.062 14.4289 29.6043 12.8222 28.2514C10.0397 25.8997 8.27597 22.8112 7.77262 19.163C7.46659 16.9604 7.45452 14.8021 7.35385 12.5712L7.16861 8.50827C7.1525 8.166 7.16862 7.74319 7.25721 7.51366C7.36996 7.21971 7.9941 6.91368 8.30013 7.05864C10.539 11.2384 13.0316 8.23848 17.5093 13.3444C19.6314 15.7685 20.9603 18.4825 21.5321 21.6757C22.2569 25.6944 21.4918 29.7493 18.1295 32.3707C18.21 32.9345 18.3993 33.6109 18.6046 34.1264C21.4677 29.6486 26.0904 27.148 31.3937 27.1923L35.666 27.2286C38.7828 27.2568 41.9196 26.6447 44.7182 25.3199C44.9196 25.2233 45.588 25.4246 45.7491 25.5736C45.9383 25.7467 45.8054 26.242 45.6041 26.5279C44.4927 28.1265 43.5585 29.5842 42.5518 31.3479V31.36ZM14.2114 18.7644C17.9201 23.0931 16.7523 26.2903 17.9241 31.1063C19.2892 29.7292 19.9778 28.1547 20.1912 26.2662C20.7267 21.5589 18.9107 17.0127 15.5966 13.7028C12.9712 11.0773 11.7068 11.9229 8.64242 10.0666C9.16187 16.5336 8.1592 22.4488 13.5953 26.8742C14.6826 27.7561 15.6208 28.7185 16.4785 29.7694C16.2208 25.5937 16.8409 23.073 13.7242 19.5939C12.7256 18.4785 12.0289 17.0772 12.3551 15.5349C13.4262 16.4047 12.8504 17.1698 14.2155 18.7644H14.2114ZM36.7452 33.2767C35.1587 34.7747 33.3265 35.427 31.1963 35.3586C30.0487 35.3223 28.9011 35.3062 27.7696 35.129C25.2367 34.7304 21.1415 35.129 19.2368 37.082C20.1107 37.7545 20.9241 38.6403 21.9549 38.9585C29.0299 41.1369 36.6768 37.6538 40.4901 31.5452L42.6686 28.0541C37.309 29.6486 33.9225 28.6299 29.2715 29.0245C24.9669 29.3909 21.1657 31.8754 19.2167 35.7491C22.0918 33.6834 25.2528 33.2687 28.5789 34.0942C30.5239 34.5774 32.6057 34.67 34.4459 33.7599C36.2701 32.8539 37.4902 30.9533 38.666 31.0379C38.2351 32.0727 37.4861 32.5801 36.7492 33.2767H36.7452Z" fill="#860909"/>
</svg>
