<svg width="32" height="32" viewBox="0 0 32 32" fill="none" xmlns="http://www.w3.org/2000/svg">
<path d="M31.9957 15.5509C32.1005 20.0276 30.2754 24.3962 26.986 27.5374C23.9737 30.4153 20.079 32 16.0238 32C15.0251 32 14.0125 31.9036 13.0091 31.7155C5.69244 30.34 0.347508 23.9988 0.0146137 16.2939C-0.290345 9.22616 4.20488 2.82851 10.9442 0.735931C12.5156 0.246878 14.1498 0 15.805 0C19.7671 0 23.5709 1.40838 26.5158 3.96415C29.9448 6.94078 31.891 11.0554 31.9957 15.5509Z" fill="#FFFBF0"/>
<path d="M25.3866 25.8281C22.202 28.8682 17.921 30.2483 13.435 29.4043C7.11006 28.2145 2.61948 22.6563 2.34013 16.1904C2.0794 10.1549 5.92514 4.75415 11.6286 2.98368C16.2611 1.54474 21.3779 2.60514 24.9979 5.74871C31.0901 11.0366 31.2344 20.2463 25.3866 25.8304V25.8281ZM15.586 27.7937C19.327 27.8101 22.8841 26.2395 25.1422 23.3475C27.4562 20.385 28.4874 16.7289 27.5307 13.0516C26.7066 9.88214 24.6161 7.20411 21.7737 5.58648C16.0423 2.32299 8.24609 4.16635 5.28729 10.4605C3.15257 15.0007 4.0046 20.4367 7.36846 24.06C9.54507 26.4041 12.2944 27.7772 15.5837 27.7937H15.586Z" fill="#860909"/>
<path d="M14.6547 18.2527C13.9075 17.9353 13.5187 17.3381 13.5699 16.5199C13.6141 15.7934 13.7468 15.0269 14.2939 14.4908C14.6384 14.1522 15.2297 13.9171 15.7442 13.9195C16.9431 13.9289 18.0791 14.8012 18.2374 16.005C18.3515 16.8679 17.7765 17.6884 17.2015 18.0693C16.3844 18.6101 15.5649 18.643 14.6547 18.2551V18.2527Z" fill="#860909"/>
<path d="M10.681 18.2265C9.61248 18.9954 8.12261 18.9577 7.40095 17.8268C6.81198 16.9051 7.05175 15.4074 7.85954 14.6879C8.75347 13.8932 10.2387 13.8885 11.0465 14.7091C12.0498 15.7295 11.817 17.4059 10.681 18.2265Z" fill="#860909"/>
<path d="M24.5046 17.2036C24.0507 17.9913 23.1149 18.3063 22.2954 18.224C21.476 18.1418 20.6659 17.6786 20.347 16.8251C20.0979 16.1573 20.2352 15.2827 20.6263 14.7184C21.6203 13.2865 23.5874 13.7685 24.2393 14.5914C24.8026 15.3015 24.9842 16.3666 24.5023 17.2013L24.5046 17.2036Z" fill="#860909"/>
</svg>
