<svg width="38" height="32" viewBox="0 0 38 32" fill="none" xmlns="http://www.w3.org/2000/svg">
<path d="M37.8936 22.4581C37.9012 23.866 37.9088 25.7985 36.8755 27.6405C34.7823 31.3697 30.2312 31.6452 27.515 31.8075L24.8596 31.9698C24.7874 31.9736 24.7114 31.9774 24.6392 31.9774L13.2957 32C9.30684 32 4.82034 31.7962 2.08513 29.3579C-0.0498586 27.4593 -0.00427265 24.7228 0.0185208 23.4055L0.185674 13.3881C-0.311983 10.8743 0.197062 8.51144 1.63685 6.6846C1.75841 6.52984 1.89138 6.38641 2.03194 6.25431C4.18592 4.25761 6.65521 4.19722 8.12919 4.16325C8.18617 4.16325 8.24695 4.15947 8.30773 4.15947C10.7048 0.517103 14.0783 0 16.8629 0C17.3415 0 17.8658 0.0150983 18.4622 0.0490686L24.2897 0.369898C26.0562 0.468035 28.0886 1.58151 29.1182 3.01958L29.8058 3.9783L31.728 4.05756C35.204 4.20099 37.9468 6.88464 37.9772 10.1722C37.9772 10.1722 38 12.9917 38 13.0182L37.8936 21.8806V22.4581Z" fill="#FFFBF0"/>
<path d="M27.2829 28.0402L24.6274 28.1988L14.4312 28.2176C11.2211 28.2252 6.60162 28.312 4.6148 26.5418C3.78284 25.802 3.79803 24.4771 3.81322 23.4618L3.98797 12.999C3.63467 11.5949 3.72965 10.1379 4.62619 9.00556C6.48006 7.2844 8.767 8.39032 10.769 7.54106C12.3456 4.00816 14.5451 3.60806 18.2491 3.81188L24.0766 4.13271C24.6958 4.16668 25.6683 4.71021 26.0178 5.20089L27.7843 7.6694L31.5681 7.82415C32.9585 7.88077 34.1589 8.85081 34.1741 10.1983L34.2007 12.965L34.0943 21.8275C34.0791 23.1825 34.2045 24.6357 33.5549 25.7907C32.514 27.6477 29.7674 27.8817 27.2829 28.0327V28.0402ZM25.5772 20.2082C26.7358 17.9699 26.9448 15.3429 25.7671 13.2669C24.107 10.3342 20.6196 8.7338 17.3297 9.32639C14.9592 9.75291 12.8014 11.2778 11.8821 13.4783C10.6171 16.513 11.5858 20.0987 13.9487 22.2691C17.6336 25.651 23.5637 24.0997 25.5772 20.2082ZM30.5613 12.3988C30.7551 12.0855 30.6145 11.1155 30.2574 11.0136C29.3115 10.7531 28.1832 10.9154 27.4158 11.3608C27.2335 11.6854 27.4234 12.5083 27.6856 12.7083C28.5593 13.384 30.0827 13.1764 30.5613 12.395V12.3988Z" fill="#860909"/>
<path d="M20.6997 21.0694C18.6748 21.9866 16.5322 21.1675 15.3242 19.4954C13.6033 17.1175 14.2187 13.6677 16.8969 12.3579C18.3481 11.6483 20.0235 11.8257 21.3759 12.5957C22.5725 13.2789 23.6818 14.5886 23.7426 16.2343C23.8186 18.231 22.5877 20.2088 20.6997 21.0656V21.0694Z" fill="#860909"/>
</svg>
