<svg width="18" height="18" viewBox="0 0 18 18" fill="none" xmlns="http://www.w3.org/2000/svg">
<path d="M5.62538 7.03076C5.62538 7.49675 5.24762 7.87451 4.78163 7.87451C4.31564 7.87451 3.93788 7.49675 3.93788 7.03076C3.93788 6.56477 4.31564 6.18701 4.78163 6.18701C5.24762 6.18701 5.62538 6.56477 5.62538 7.03076Z" fill="black"/>
<path d="M6.90574 5.34726C7.54781 5.16277 8.23892 5.06201 8.96017 5.06201C9.70943 5.06201 10.4262 5.17074 11.0892 5.36912C11.3868 5.45818 11.7002 5.2891 11.7893 4.99148C11.8783 4.69385 11.7093 4.38039 11.4116 4.29134C10.6436 4.06153 9.81824 3.93701 8.96017 3.93701C8.13417 3.93701 7.33846 4.0524 6.59505 4.26601C6.29648 4.35181 6.12398 4.6634 6.20977 4.96198C6.29557 5.26056 6.60717 5.43306 6.90574 5.34726Z" fill="black"/>
<path fill-rule="evenodd" clip-rule="evenodd" d="M8.96027 1.71777C5.61045 1.71777 2.69222 3.63443 1.8494 6.3584H1.23175C0.533353 6.3584 0.00371868 6.98809 0.123382 7.67616L0.409165 9.31941C0.549738 10.1277 1.25128 10.7178 2.07171 10.7178H2.36728C2.70406 11.2949 3.14118 11.818 3.65603 12.2723L2.83586 15.059C2.7858 15.229 2.81886 15.4128 2.92506 15.5547C3.03127 15.6967 3.19818 15.7803 3.37548 15.7803H5.62548C5.86331 15.7803 6.07544 15.6307 6.15531 15.4067L6.6974 13.8862C7.41138 14.0815 8.17205 14.1865 8.96027 14.1865C9.75505 14.1865 10.5218 14.0797 11.241 13.8813L11.8525 15.425C11.9375 15.6394 12.1448 15.7803 12.3755 15.7803H14.6255C14.8036 15.7803 14.9713 15.6959 15.0774 15.5527C15.1835 15.4096 15.2155 15.2247 15.1637 15.0542L14.3067 12.2347C15.5366 11.1309 16.3129 9.62808 16.3129 7.95215C16.3129 7.78855 16.3056 7.62674 16.2914 7.46689C16.5845 7.34324 16.8617 7.16797 17.0835 6.96749C17.4379 7.31201 18.0004 7.31201 18.0004 6.49908C18.0004 6.74951 17.4379 6.74951 17.4815 6.46906C17.5284 6.37753 17.5636 6.28155 17.5824 6.18235C17.6312 5.92489 17.5647 5.66561 17.3555 5.45645C17.1116 5.21261 16.7952 5.21887 16.5605 5.34691C16.3395 5.46747 16.1659 5.70451 16.1385 5.97892C16.1112 6.25194 16.2312 6.51928 16.4987 6.71431C16.4075 6.77755 16.3094 6.8357 16.2076 6.88654C15.6068 3.88967 12.513 1.71777 8.96027 1.71777ZM2.83145 7.04171C3.34251 4.71764 5.83141 2.84277 8.96027 2.84277C12.4987 2.84277 15.1879 5.22087 15.1879 7.95215C15.1879 9.36343 14.486 10.6629 13.3093 11.6061C13.1299 11.7499 13.0561 11.9885 13.123 12.2086L13.8666 14.6553H12.7577L12.0948 12.9821C11.9838 12.7019 11.6715 12.559 11.3868 12.6581C10.6427 12.9173 9.82309 13.0615 8.96027 13.0615C8.09744 13.0615 7.27781 12.9173 6.53371 12.6581C6.24184 12.5565 5.92263 12.7093 5.81884 13.0004L5.22884 14.6553H4.12739L4.83944 12.236C4.90433 12.0155 4.82858 11.7778 4.64814 11.6355C4.02574 11.1446 3.53284 10.5538 3.20347 9.90167C3.10778 9.71223 2.91361 9.59277 2.70138 9.59277H2.07171C1.79824 9.59277 1.56439 9.39608 1.51753 9.12665L1.23175 7.4834H2.28208C2.54618 7.4834 2.77473 7.29965 2.83145 7.04171ZM17.0297 6.07754C17.0171 6.14426 16.9816 6.22501 16.9191 6.31437C16.9013 6.30508 16.8848 6.29568 16.8695 6.28622C16.706 6.18519 16.6928 6.0891 16.6982 6.03489C16.7059 5.95773 16.7609 5.87836 16.8299 5.84072C16.8852 5.81055 16.9204 5.8168 16.9578 5.8542C17.0299 5.9263 17.0453 5.99516 17.0297 6.07754Z" fill="black"/>
</svg>
