<svg width="225" height="349" viewBox="0 0 225 349" fill="none" xmlns="http://www.w3.org/2000/svg">
<g filter="url(#filter0_d_323_1285)">
<path d="M107.654 340.395C90.5679 340.395 75.4482 330.256 67.2498 313.297L45.2598 267.836C35.5035 247.66 -1.60612 152.601 0.053981 115.082C1.5353 81.3699 15.6844 50.1092 38.8748 29.3453C59.3834 10.9566 88.8566 0 117.742 0C149.821 0 177.429 13.7405 193.52 37.6968C209.533 61.551 217.221 90.743 216.378 124.481C216.097 136.459 215.688 152.856 208.971 168.997C208.971 168.997 178.502 242.194 178.451 242.296L149.208 310.513C142.593 325.939 130.129 336.794 115.852 339.603C113.171 340.14 110.438 340.395 107.705 340.395H107.654Z" fill="white"/>
</g>
<path d="M116.057 296.339C114.397 300.195 111.485 303.771 108.854 304.282C104.666 305.099 101.55 301.6 99.6346 297.616L77.6447 252.155C65.9729 228.02 34.8651 142.487 35.9889 116.666C36.9594 94.3186 46.026 71.2305 62.8569 56.1365C89.2908 32.4611 142.031 25.6675 163.561 57.7455C176.638 77.2324 180.903 100.448 180.341 123.587C180.086 134.263 179.779 145.322 175.693 155.129L145.3 228.096L116.057 296.313V296.339ZM133.526 119.143C140.728 111.073 142.363 95.5955 137.919 86.912C130.206 71.869 111.817 70.2856 97.7956 75.0104C86.6091 78.7903 78.8195 85.2008 78.4364 98.2261C78.2576 104.637 80.0709 114.061 84.9491 119.297C97.4126 132.705 120.577 133.675 133.526 119.169V119.143Z" fill="#860909"/>
<defs>
<filter id="filter0_d_323_1285" x="0" y="0" width="224.44" height="348.395" filterUnits="userSpaceOnUse" color-interpolation-filters="sRGB">
<feFlood flood-opacity="0" result="BackgroundImageFix"/>
<feColorMatrix in="SourceAlpha" type="matrix" values="0 0 0 0 0 0 0 0 0 0 0 0 0 0 0 0 0 0 127 0" result="hardAlpha"/>
<feOffset dx="8" dy="8"/>
<feColorMatrix type="matrix" values="0 0 0 0 0 0 0 0 0 0 0 0 0 0 0 0 0 0 1 0"/>
<feBlend mode="normal" in2="BackgroundImageFix" result="effect1_dropShadow_323_1285"/>
<feBlend mode="normal" in="SourceGraphic" in2="effect1_dropShadow_323_1285" result="shape"/>
</filter>
</defs>
</svg>
