<svg width="102" height="103" viewBox="0 0 102 103" fill="none" xmlns="http://www.w3.org/2000/svg">
<path d="M93.1564 52.01C93.4064 52.18 93.6264 52.33 93.8064 52.45C95.6764 53.7 98.2464 55.4 99.4664 58.88C101.006 63.26 99.3765 68.04 98.1665 70.17L89.8165 84.86C87.3965 89.12 83.3265 91.57 78.6665 91.57C75.7565 91.57 73.3364 90.61 71.3864 89.84C71.3364 89.82 71.2764 89.79 71.2164 89.77C70.9564 91.98 70.3265 94.35 68.9765 96.81C67.2665 99.95 64.0165 101.93 60.4465 102.01C60.4465 102.01 40.4265 102.48 40.3465 102.48C38.9765 102.48 37.6065 102.2 36.3465 101.65C29.7665 98.78 28.2764 92.59 27.7464 88.52C25.9264 89.77 23.7564 90.44 21.5064 90.44C17.1764 90.44 12.9665 87.91 10.7965 83.99L2.03644 68.2C-1.16356 62.43 0.0664449 56.77 5.69644 51.37C5.79644 51.28 5.89645 51.18 5.98645 51.09C4.53645 50.09 3.19645 48.82 2.13645 47.24C0.0664475 44.17 -0.533546 40.41 0.486454 36.92C3.00645 28.31 8.44645 21.37 12.5765 17.05C15.2865 14.22 18.9465 12.66 22.9065 12.66C25.0465 12.66 26.9965 13.1 28.7665 13.68C28.6665 12.22 28.6564 10.49 29.3664 8.53C31.4264 2.84 37.4264 1.07 40.3064 0.92L58.0965 0.0200005C58.4165 4.58211e-07 58.7165 0 59.0065 0C63.8065 0 66.7464 2.09 68.3564 3.85C71.4564 7.21 71.6064 11.08 71.4664 13.68C73.6964 12.26 76.4265 11.25 79.2865 11.25C83.6665 11.25 87.4964 13.53 89.5264 17.34C89.9364 18.1 90.2365 18.91 90.4364 19.74C91.5965 24.63 92.8464 25.85 94.9264 27.87C96.2064 29.13 97.8064 30.69 99.2664 32.9C101.146 35.76 101.806 39.09 101.116 42.28C99.9964 47.48 96.0064 50.21 93.1564 52.01Z" fill="white"/>
<path d="M60.2064 92.01L40.3464 92.48C35.4264 90.33 39.8364 79.85 33.2964 77.14C29.3864 75.52 25.1664 77.35 22.2164 80.16C21.4364 80.9 20.0364 80.03 19.5364 79.14L10.7764 63.35C9.23644 60.57 11.8464 59.85 15.4964 55.6C17.6364 53.1 18.8264 49.76 18.1864 46.34C17.9764 45.22 16.1764 44.2 14.8164 44.06C13.0064 43.88 9.36644 42.15 10.0764 39.72C11.8164 33.78 15.6064 28.34 19.7864 23.96C23.5964 19.98 30.0864 26.43 34.5064 26.12C40.9364 21.4 38.3065 13.14 38.7565 11.92C38.9365 11.42 40.2564 10.92 40.8064 10.89L58.5964 9.99003C65.4864 9.64003 56.6365 18.08 65.7864 24.71C68.8864 26.95 72.9164 26.5 75.4264 23.3C76.4264 22.03 79.6864 20.15 80.7064 22.04C83.3264 33.05 88.0464 34.04 90.9064 38.38C93.7664 42.73 82.7264 44.05 81.5464 50.01C80.0764 57.44 89.5764 60.91 90.0264 62.18C90.2664 62.86 89.8664 64.51 89.4664 65.22L81.1264 79.91C78.6864 84.2 74.8564 78.8 67.2164 78.64C63.4564 78.56 61.2764 82.24 61.3864 85.71C61.4464 87.9 61.3464 89.94 60.2164 92.01H60.2064ZM41.8165 88.17L57.3964 87.38C57.4764 83.92 58.1564 80.3 60.5164 77.57C64.9064 72.47 72.1664 75.09 78.0764 77.02L85.6764 64.37C78.4864 59.52 74.9665 50.81 80.9465 43.86L86.1764 39.62C82.7564 36.17 79.9565 32.65 78.0965 28.04C74.3364 31.94 68.6264 32.88 64.2064 29.74C59.2664 26.23 56.6465 20.49 57.2565 14.55L42.9364 15.7C43.0064 19.94 41.6465 24.06 39.2865 27.5C37.4665 30.15 34.3664 30.96 31.2864 29.94L23.6664 27.42L14.9464 39.68C19.3964 40.61 22.4964 43.8 22.3064 48.3C22.0664 54.17 19.1664 59.18 14.8664 63L21.6564 74.42C24.7664 72.67 28.3964 71.34 32.1264 71.8C35.5364 72.22 37.9764 74.6 39.5564 77.57C41.2164 80.7 41.3264 84.45 41.8064 88.17H41.8165Z" fill="#860909"/>
<path d="M65.4264 58.1799C62.9864 64.2299 57.8865 68.0899 52.0365 68.5699C45.5565 69.1099 39.8565 65.7399 36.5965 60.0999C34.0665 55.7299 33.0964 50.9599 34.8864 45.8399C36.2664 41.8699 39.6464 38.5399 44.1764 36.5499C52.0264 33.1099 61.2764 35.7199 65.4264 43.4699C67.8864 48.0499 67.3864 53.3399 65.4264 58.1799ZM52.9664 63.8399C60.9164 61.8199 64.8065 52.5799 61.2265 45.5699C59.1665 41.5499 54.6765 39.9499 50.4765 39.5399C45.6165 39.0599 41.4564 41.3299 39.1064 45.0099C36.6264 48.8899 36.8165 53.5599 39.2865 57.5799C42.0565 62.0799 47.2564 65.2799 52.9664 63.8299V63.8399Z" fill="#860909"/>
</svg>
