<svg width="33" height="32" viewBox="0 0 33 32" fill="none" xmlns="http://www.w3.org/2000/svg">
<path d="M19.0868 31.994C18.6721 31.994 18.2666 31.9851 17.8886 31.9762C17.6233 31.9702 17.3733 31.9642 17.1446 31.9642L12.9065 31.9463C12.8425 31.9463 12.7785 31.9464 12.7175 31.9404L10.2936 31.7824C8.98862 31.696 6.8391 30.8702 6.27504 28.9505L6.08295 28.3007C1.9516 25.9547 -0.130838 20.8246 0.00636579 16.7288C0.0246596 16.1476 0.149663 14.666 0.878366 13.4558C0.975933 13.2948 1.08875 13.1309 1.2229 12.9669C0.57652 11.7567 0.546031 10.3706 1.04301 9.13051L0.783849 8.75491C0.00331313 7.62515 -0.103396 6.13768 0.503349 4.77839C1.00338 3.65459 1.88757 2.81397 2.94556 2.43242C3.46999 1.71402 4.19259 1.18342 5.0585 0.927061C5.43352 0.816768 5.82074 0.760131 6.20796 0.760131C6.72019 0.760131 7.20802 0.852537 7.67451 1.03735C7.97636 0.965812 8.28431 0.930041 8.59226 0.930041C9.08009 0.930041 9.55573 1.01947 10.007 1.19534C11.1229 1.63055 12.0162 2.48905 12.5559 3.53237C13.1596 3.35948 13.7877 3.26707 14.4249 3.26707C14.7512 3.26707 15.0835 3.29092 15.4097 3.33861C15.8122 3.39823 16.1872 3.49064 16.5348 3.60987C17.608 2.11644 19.3246 1.2013 21.2607 1.2013C21.3125 1.2013 21.3674 1.2013 21.4193 1.2013C22.0656 0.679646 23.1297 0 24.6999 0C25.1268 0 25.5659 0.0536575 26.008 0.155008C27.7581 0.563392 29.0417 1.86306 29.4472 3.56516C30.0814 3.98547 31.0387 4.71281 31.4808 6.06912C31.8254 7.12436 31.9931 8.68635 31.1058 10.4898C31.3406 11.1486 31.4077 11.7805 31.3711 12.3737C31.7217 12.6569 32.0236 13.0027 32.2736 13.3992C33.5328 15.4202 32.8773 18.0702 32.3711 19.4683C31.4534 22.014 30.2491 24.1513 28.691 26.0084C28.1117 26.697 27.4257 27.159 26.8525 27.5078L26.2824 28.7449C24.7823 32 20.6448 32 19.0868 32V31.994Z" fill="#FFFBF0"/>
<path d="M8.63776 26.1902C5.02169 24.8846 2.9301 20.4997 3.05511 16.8242C3.07645 16.2191 3.2228 15.4381 3.5094 14.9641C3.88442 14.3381 4.80216 14.2606 5.45464 14.2696L3.9515 11.6196C3.45452 10.7432 3.9515 9.70881 4.75643 9.16628L3.31426 7.07965C2.88436 6.45664 3.46061 5.2911 4.14358 5.18677C4.35701 5.15398 4.72288 5.30303 5.06742 5.43121C5.07352 4.8082 5.29304 3.96759 5.94552 3.77383C6.598 3.58007 7.04925 4.09576 7.41513 4.57867C7.75051 4.19413 8.34811 3.74998 8.88168 3.95864C9.72014 4.28356 10.2171 5.32092 10.0464 6.16153L9.76588 7.54169C10.1866 7.82786 10.5251 8.15277 10.8269 8.56712C11.6379 7.0558 13.2021 6.02441 14.9674 6.28076C15.9126 6.41789 16.6321 6.94551 17.37 7.55361C17.7908 7.3211 18.4219 6.87695 18.5469 6.38212C18.9402 4.83503 20.294 3.90499 21.9343 4.24779C23.038 4.47732 23.3155 2.58742 25.3034 3.05244C26.0657 3.2313 26.4803 3.81258 26.5321 4.58463C26.6175 5.87238 28.2182 5.86046 28.5811 6.97234C28.9195 8.00671 28.5658 9.00233 27.9682 9.85785C27.7273 10.2007 27.6908 10.5584 27.9377 10.9191C28.7274 12.0667 28.1969 13.1011 27.4316 14.2428L28.8616 14.4365C30.2824 14.6273 30.0964 16.8093 29.4957 18.4786C28.7548 20.5295 27.7487 22.4343 26.334 24.1185C25.8522 24.6908 25.093 25.0426 24.4588 25.451L23.5045 27.5197C22.6691 29.3351 19.1475 28.9953 17.1627 28.9863L12.9246 28.9684L10.5007 28.8104C10.1104 28.7836 9.31158 28.4796 9.20792 28.1278L8.64081 26.1932L8.63776 26.1902ZM23.2728 9.37196C24.0046 9.35408 24.8156 9.21994 25.404 9.52995C25.9102 9.79525 24.9406 10.8356 22.7179 10.4958L22.0258 12.1025H24.1753C24.1082 13.0802 22.7758 13.1577 21.544 13.2978L21.1385 14.1563L25.9163 14.1921L26.9468 13.0146C27.4072 12.487 27.2913 11.8074 26.9712 11.3066C25.9742 9.74756 28.0475 8.98444 27.6145 7.24956L26.3553 6.44472C25.6571 5.99758 25.6937 4.99898 25.3796 4.36405C24.9802 3.71421 23.907 4.30741 23.5807 4.78733C23.1264 5.45207 22.4862 5.53256 21.8215 5.34476C20.5989 4.99898 19.6415 5.77103 19.4037 6.88887C19.2573 7.58044 18.7024 8.06335 17.9859 8.32269C18.928 10.1768 19.3335 12.1233 18.7695 14.1742L20.4799 14.1802L20.8184 13.0176L19.7543 11.0443C19.7025 10.9489 19.7695 10.5912 19.8671 10.5613C19.9647 10.5315 20.2543 10.5971 20.3184 10.6746L21.2849 11.8342L22.0197 9.90852C21.4495 9.16628 21.0074 8.53135 20.6568 7.76526C21.0074 7.54169 21.4373 7.6341 21.6538 7.88151L22.4862 8.84434L23.6539 6.63848C23.721 6.5103 24.0655 6.45068 24.1905 6.49837C24.2912 6.53713 24.407 6.91272 24.3521 7.03195L23.2758 9.37494L23.2728 9.37196ZM7.47001 7.9769L6.87546 5.74421C6.78094 5.39246 6.49739 4.93936 6.29311 4.69791C5.61014 6.08403 6.91205 8.07527 6.89376 8.08123L7.47001 7.9769ZM8.82985 7.44034L9.05547 6.05422C9.11035 5.71141 9.02193 5.09139 8.68655 4.99898C8.32677 4.90061 7.9182 5.53852 7.97613 5.82469L8.36031 7.71756C8.47312 7.67583 8.81765 7.51784 8.82985 7.44332V7.44034ZM5.32963 8.75194L6.15895 8.39721C5.66502 7.53573 5.22292 6.77858 4.45762 6.04527C4.09175 6.4626 4.19847 6.79646 4.41494 7.16908L5.32963 8.75194ZM16.1047 14.1772L17.8304 14.1861C18.2054 11.8849 18.1414 9.53889 16.3029 8.00671C15.1717 7.06474 13.699 7.00513 12.5862 7.95901C10.7293 9.55082 10.4793 11.861 10.772 14.1831H12.1807C11.8666 13.1905 12.1593 12.2754 12.8301 11.8014C13.6137 11.244 14.6381 11.2678 15.3363 11.7358C16.1382 12.2754 16.3273 13.1726 16.1138 14.1742L16.1047 14.1772ZM10.2324 14.1742L9.88174 12.4602L8.2292 12.955C8.30543 12.4661 8.49446 12.2694 8.79631 12.1233L9.89088 11.5987C10.0037 10.6687 10.1927 9.86679 10.5251 9.03512L9.66221 8.40317L5.83576 9.6313C5.17414 9.84295 4.72289 10.4958 4.89058 11.1158C5.91808 10.5047 7.26572 10.1291 7.43037 10.6359C7.45781 10.7193 7.28707 10.9995 7.19865 11.0443L5.26256 12.0011L6.41507 14.1891L10.2293 14.1742H10.2324ZM20.6934 18.8602L22.8155 19.7574C24.7058 20.2195 26.3126 18.9585 28.0475 19.1642C28.7396 17.7721 29.5049 15.3427 28.4865 15.3487L15.565 15.45L8.9823 15.4411L4.3814 15.4918C3.78685 16.857 4.18627 18.4906 4.68325 19.9959C5.86016 19.0837 7.034 18.5531 8.41519 18.8483L11.4001 19.4832C15.6351 20.3834 16.3882 17.0388 20.6964 18.8602H20.6934ZM18.6994 27.6181L21.7697 27.6628C22.2118 27.4184 22.5959 26.7626 22.849 26.2111L18.9097 26.5986L9.74149 26.3721L10.4427 27.5883C13.2386 27.779 15.8486 27.5734 18.6994 27.6151V27.6181Z" fill="#860909"/>
</svg>
