<svg width="238" height="440" viewBox="0 0 238 440" fill="none" xmlns="http://www.w3.org/2000/svg">
<g filter="url(#filter0_d_323_1292)">
<path d="M86.9035 431.751C79.6502 431.751 72.6522 428.661 67.7485 423.246C60.4185 415.201 59.7799 405.573 59.6266 390.708C59.55 383.302 59.7289 374.516 60.0609 371.145L64.9644 318.916C42.6424 315.11 22.1083 300.272 6.22237 276.162C1.95718 269.701 -0.954217 258.744 2.23829 248.911C3.48975 245.08 5.45619 241.709 8.16343 238.823C7.34615 237.801 6.55459 236.754 5.78839 235.682C-0.162439 227.458 -1.61832 216.68 1.85512 206.847C5.14979 197.551 12.6329 190.527 21.8784 188.024L25.4285 187.054C27.1908 186.568 29.0041 186.058 30.8685 185.572C30.1279 179.826 31.0985 173.952 33.8057 168.512C38.5306 158.986 47.2654 153.469 55.8979 150.276C53.4971 144.504 50.9431 136.434 52.0669 126.422C52.9863 118.122 57.8642 110.971 64.9133 107.012C63.7384 102.491 63.1256 97.7665 63.1 92.9395C63.049 81.5232 70.5832 71.4349 81.5654 68.268C81.642 68.268 81.7445 68.2169 81.8211 68.1914C80.0844 60.7338 79.4201 52.9952 79.982 45.4354C80.6715 35.7047 86.8777 27.2255 95.9189 23.5733C97.2215 23.0625 98.5241 22.6028 99.8777 22.2197C100.21 21.1981 100.618 20.202 101.078 19.2059C105.982 8.7346 116.76 2.47737 129.938 2.47737C136.655 2.47737 144.522 4.06084 152.235 7.4321C155.044 5.36337 158.288 3.47342 162.068 1.91549C165.158 0.638496 168.453 0 171.747 0C175.451 0 179.154 0.791741 182.576 2.40075C189.038 5.41445 193.942 11.0077 196.087 17.8013C197.007 20.7128 197.568 23.5477 197.824 26.2805C207.35 31.9759 215.702 40.736 221.882 51.9736C225.433 58.3841 226.02 66.0205 223.568 72.8907C231.945 82.6725 231.715 97.1791 223.032 106.705C220.146 109.872 217.107 112.784 213.94 115.415C222.189 125.605 221.372 140.444 211.998 149.663C211.105 150.532 210.185 151.4 209.266 152.217C212.739 158.832 213.505 166.596 211.207 174.105C209.163 180.72 204.847 186.313 199.509 190.936C199.586 191.012 199.663 191.089 199.739 191.166C206.303 197.525 209.853 205.953 209.802 214.943C209.725 223.857 205.869 232.54 199.228 238.772C198.36 239.589 197.492 240.355 196.598 241.096C201.016 246.076 204.822 251.235 207.835 256.318C211.462 262.422 212.356 269.777 210.338 276.596C208.499 282.828 204.336 288.115 198.769 291.384C200.046 293.172 201.272 294.985 202.37 296.798C206.38 303.286 207.273 311.203 204.822 318.431C202.37 325.658 196.828 331.405 189.702 334.112C178.873 338.224 167.508 340.318 155.912 340.318C145.109 340.318 134.203 338.454 123.706 334.904C123.706 334.904 120.872 362.308 120.846 362.41L115.738 406.901C114.895 414.18 110.962 420.769 104.96 424.957L101.768 427.179C97.477 430.167 92.19 431.827 86.9543 431.827L86.9035 431.751Z" fill="white"/>
</g>
<path d="M95.4336 359.396L90.3256 403.887L87.1331 406.109C84.5535 407.922 85.0898 377.657 85.4729 373.52L93.186 291.282C64.9132 301.395 42.6169 284.999 27.5227 262.09C26.8332 261.043 26.1435 257.952 26.5011 256.777C26.9608 255.398 29.7191 254.377 31.5579 253.789C55.3868 246.127 78.2195 253.278 96.2507 271.463L100.848 246.255C73.0605 256.777 42.9488 243.548 26.4499 220.69C24.6366 218.187 25.5306 213.462 28.4933 212.67C38.7348 209.912 48.8997 206.592 59.3711 207.409C76.8915 208.788 90.2745 219.183 102.815 231.799L107.54 208.66C87.2097 212.287 68.9742 200.488 57.5323 185.368C50.049 175.51 74.9761 170.529 82.7147 171.576C94.6163 173.16 104.168 180.183 111.728 189.735L117.602 167.797C100.26 168.078 87.5673 158.321 80.8247 143.61C78.7305 139.039 76.8147 134.595 77.4022 129.257C91.4236 125.86 105.65 131.479 114.027 142.793L121.459 152.83L128.891 124.711C107.769 130.968 88.6909 112.145 88.5887 92.7861C105.547 87.8824 122.634 94.5483 133.897 108.672L138.698 94.3951C115.687 93.7566 103.964 66.8376 105.369 47.2486C111.473 44.7968 117.27 46.9676 122.71 49.3173C133.846 54.0933 140.588 61.9596 145.032 73.7079L152.056 53.3271C144.828 52.2799 138.724 49.7259 133.999 44.0561L125.085 33.3549C118.036 24.8757 144.675 25.3609 156.5 42.4471C160.688 35.8833 163.37 28.8854 171.645 25.5142C173.867 32.5121 170.496 38.9481 168.069 44.669C181.197 42.6258 192.792 52.2544 199.432 64.2837C186.126 68.2934 173.79 65.5862 162.374 56.5451L155.453 77.7942C172.82 69.9024 191.388 74.6017 204.055 89.4404C196.087 98.175 186.1 104.79 174.735 106.756C165.49 108.365 158.16 103.589 149.297 98.6347L144.853 112.426C161.352 107.139 183.649 118.99 193.967 131.402C184.747 140.469 171.773 145.449 159.207 142.819C151.187 141.133 146.079 135.591 139.337 129.589L132.058 154.848C149.042 145.449 169.576 148.616 185.692 162.97C192.281 168.844 169.653 181.358 158.211 182.865C146.769 184.372 136.757 179.392 126.95 174.258L120.565 196.886C140.741 184.321 167.048 195.073 181.861 209.427C185.053 212.517 184.824 217.063 181.657 220.051C176.038 225.312 169.014 227.841 161.608 229.45C149.068 232.183 137.728 228.837 128.738 219.745L117.934 208.788L111.881 237.725C137.038 219.591 173.28 248.145 185.743 269.19C177.647 273.199 170.496 274.119 162.578 274.86C139.848 276.979 125.392 264.516 109.94 249.907L104.832 278.639C129.81 260.532 166.869 287.936 180.533 310.079C152.592 320.704 122.71 311.688 102.253 293.146L95.3824 359.32L95.4336 359.396Z" fill="#860909"/>
<defs>
<filter id="filter0_d_323_1292" x="0" y="0" width="237.701" height="439.827" filterUnits="userSpaceOnUse" color-interpolation-filters="sRGB">
<feFlood flood-opacity="0" result="BackgroundImageFix"/>
<feColorMatrix in="SourceAlpha" type="matrix" values="0 0 0 0 0 0 0 0 0 0 0 0 0 0 0 0 0 0 127 0" result="hardAlpha"/>
<feOffset dx="8" dy="8"/>
<feColorMatrix type="matrix" values="0 0 0 0 0 0 0 0 0 0 0 0 0 0 0 0 0 0 1 0"/>
<feBlend mode="normal" in2="BackgroundImageFix" result="effect1_dropShadow_323_1292"/>
<feBlend mode="normal" in="SourceGraphic" in2="effect1_dropShadow_323_1292" result="shape"/>
</filter>
</defs>
</svg>
